<?xml version="1.0" encoding="UTF-8" standalone="no"?>
<!DOCTYPE svg PUBLIC "-//W3C//DTD SVG 1.1//EN" "http://www.w3.org/Graphics/SVG/1.1/DTD/svg11.dtd">
<!-- Generated by graphviz version 9.0.0 (20230911.1827)
 -->
<!-- Title: g Pages: 1 -->
<svg width="480pt" height="358pt" viewBox="0.00 0.00 480.14 358.00" xmlns="http://www.w3.org/2000/svg" xmlns:xlink="http://www.w3.org/1999/xlink">
<g id="graph0" class="graph" transform="scale(1 1) rotate(0) translate(4 354)">
<title>g</title>
<polygon fill="white" stroke="none" points="-4,4 -4,-354 476.14,-354 476.14,4 -4,4"/>
<g id="clust1" class="cluster">
<title>clusterG0</title>
<polygon fill="none" stroke="black" points="8,-8 8,-342 464.14,-342 464.14,-8 8,-8"/>
<text text-anchor="middle" x="236.07" y="-324.7" font-family="Times,serif" font-size="14.00">Memory (After Code Execution): Python</text>
</g>
<g id="clust2" class="cluster">
<title>clusterG1</title>
<polygon fill="none" stroke="black" points="16,-16 16,-285 212.5,-285 212.5,-16 16,-16"/>
<text text-anchor="middle" x="114.25" y="-267.7" font-family="Times,serif" font-size="14.00">Stack</text>
</g>
<g id="clust3" class="cluster">
<title>clusterG2</title>
<polygon fill="none" stroke="black" points="232.5,-16 232.5,-309 456.14,-309 456.14,-16 232.5,-16"/>
<text text-anchor="middle" x="344.32" y="-291.7" font-family="Times,serif" font-size="14.00">Heap</text>
</g>
<!-- stvars -->
<g id="node1" class="node">
<title>stvars</title>
<polygon fill="none" stroke="black" points="24,-24.38 24,-251.62 204.5,-251.62 204.5,-24.38 24,-24.38"/>
<text text-anchor="middle" x="65" y="-234.32" font-family="Courier,monospace" font-size="14.00">cur_date</text>
<polyline fill="none" stroke="black" points="24,-226.38 106,-226.38"/>
<text text-anchor="middle" x="65" y="-209.07" font-family="Courier,monospace" font-size="14.00">num_rows</text>
<polyline fill="none" stroke="black" points="24,-201.12 106,-201.12"/>
<text text-anchor="middle" x="65" y="-183.82" font-family="Courier,monospace" font-size="14.00">filled</text>
<polyline fill="none" stroke="black" points="24,-175.88 106,-175.88"/>
<text text-anchor="middle" x="65" y="-158.57" font-family="Courier,monospace" font-size="14.00">empty</text>
<polyline fill="none" stroke="black" points="24,-150.62 106,-150.62"/>
<text text-anchor="middle" x="65" y="-133.32" font-family="Courier,monospace" font-size="14.00">num_cols</text>
<polyline fill="none" stroke="black" points="24,-125.38 106,-125.38"/>
<text text-anchor="middle" x="65" y="-108.08" font-family="Courier,monospace" font-size="14.00">username</text>
<polyline fill="none" stroke="black" points="24,-100.12 106,-100.12"/>
<text text-anchor="middle" x="65" y="-82.83" font-family="Courier,monospace" font-size="14.00">i</text>
<polyline fill="none" stroke="black" points="24,-74.88 106,-74.88"/>
<text text-anchor="middle" x="65" y="-57.58" font-family="Courier,monospace" font-size="14.00">j</text>
<polyline fill="none" stroke="black" points="24,-49.62 106,-49.62"/>
<text text-anchor="middle" x="65" y="-32.33" font-family="Courier,monospace" font-size="14.00">z</text>
<polyline fill="none" stroke="black" points="106,-24.38 106,-251.62"/>
<text text-anchor="middle" x="155.25" y="-234.32" font-family="Courier,monospace" font-size="14.00">0x88b6e369</text>
<polyline fill="none" stroke="black" points="106,-226.38 204.5,-226.38"/>
<text text-anchor="middle" x="155.25" y="-209.07" font-family="Courier,monospace" font-size="14.00">13</text>
<polyline fill="none" stroke="black" points="106,-201.12 204.5,-201.12"/>
<text text-anchor="middle" x="155.25" y="-183.82" font-family="Courier,monospace" font-size="14.00">0xb335c746</text>
<polyline fill="none" stroke="black" points="106,-175.88 204.5,-175.88"/>
<text text-anchor="middle" x="155.25" y="-158.57" font-family="Courier,monospace" font-size="14.00">0x6164afe3</text>
<polyline fill="none" stroke="black" points="106,-150.62 204.5,-150.62"/>
<text text-anchor="middle" x="155.25" y="-133.32" font-family="Courier,monospace" font-size="14.00">2</text>
<polyline fill="none" stroke="black" points="106,-125.38 204.5,-125.38"/>
<text text-anchor="middle" x="155.25" y="-108.08" font-family="Courier,monospace" font-size="14.00">0xf7fc43e0</text>
<polyline fill="none" stroke="black" points="106,-100.12 204.5,-100.12"/>
<text text-anchor="middle" x="155.25" y="-82.83" font-family="Courier,monospace" font-size="14.00">0</text>
<polyline fill="none" stroke="black" points="106,-74.88 204.5,-74.88"/>
<text text-anchor="middle" x="155.25" y="-57.58" font-family="Courier,monospace" font-size="14.00">0x88bb0093</text>
<polyline fill="none" stroke="black" points="106,-49.62 204.5,-49.62"/>
<text text-anchor="middle" x="155.25" y="-32.33" font-family="Courier,monospace" font-size="14.00">314</text>
</g>
<!-- h1 -->
<g id="node2" class="node">
<title>h1</title>
<ellipse fill="none" stroke="black" stroke-width="0" cx="344.32" cy="-258" rx="103.82" ry="18"/>
<text text-anchor="middle" x="344.32" y="-253.32" font-family="Courier,monospace" font-size="14.00">Date[2023-07-22]</text>
</g>
<!-- stvars&#45;&gt;h1 -->
<g id="edge1" class="edge">
<title>stvars:addr1-&gt;h1:g5</title>
<path fill="none" stroke="black" d="M205.25,-239C224.07,-239 244.21,-240.75 263.12,-243.2"/>
<polygon fill="black" stroke="black" points="262.51,-246.65 272.9,-244.55 263.47,-239.71 262.51,-246.65"/>
</g>
<!-- h3 -->
<g id="node3" class="node">
<title>h3</title>
<ellipse fill="none" stroke="black" stroke-width="0" cx="344.32" cy="-96" rx="45.95" ry="18"/>
<text text-anchor="middle" x="344.32" y="-91.33" font-family="Courier,monospace" font-size="14.00">"Jeff"</text>
</g>
<!-- stvars&#45;&gt;h3 -->
<g id="edge3" class="edge">
<title>stvars:f6-&gt;h3</title>
<path fill="none" stroke="black" d="M205.25,-113C234.07,-113 266.03,-109.31 291.93,-105.36"/>
<polygon fill="black" stroke="black" points="292.18,-108.87 301.51,-103.84 291.08,-101.95 292.18,-108.87"/>
</g>
<!-- h4 -->
<g id="node4" class="node">
<title>h4</title>
<ellipse fill="none" stroke="black" stroke-width="0" cx="344.32" cy="-204" rx="34.37" ry="18"/>
<text text-anchor="start" x="327.82" y="-200.32" font-family="Courier,monospace" font-weight="bold" font-size="14.00">True</text>
</g>
<!-- stvars&#45;&gt;h4 -->
<g id="edge2" class="edge">
<title>stvars:f2-&gt;h4</title>
<path fill="none" stroke="black" d="M205.25,-189C237.32,-189 273.33,-193.05 300.54,-196.94"/>
<polygon fill="black" stroke="black" points="299.72,-200.36 310.12,-198.36 300.74,-193.43 299.72,-200.36"/>
</g>
<!-- h5 -->
<g id="node5" class="node">
<title>h5</title>
<ellipse fill="none" stroke="black" stroke-width="0" cx="344.32" cy="-150" rx="40.16" ry="18"/>
<text text-anchor="start" x="323.69" y="-146.32" font-family="Courier,monospace" font-weight="bold" font-size="14.00">False</text>
</g>
<!-- stvars&#45;&gt;h5 -->
<g id="edge4" class="edge">
<title>stvars:f4-&gt;h5</title>
<path fill="none" stroke="black" d="M205.25,-163C235.14,-163 268.5,-159.94 294.95,-156.79"/>
<polygon fill="black" stroke="black" points="295.2,-160.29 304.69,-155.59 294.34,-153.34 295.2,-160.29"/>
</g>
<!-- h6 -->
<g id="node6" class="node">
<title>h6</title>
<ellipse fill="none" stroke="black" stroke-width="0" cx="344.32" cy="-42" rx="34.37" ry="18"/>
<text text-anchor="start" x="327.82" y="-38.33" font-family="Courier,monospace" font-weight="bold" font-size="14.00">None</text>
</g>
<!-- stvars&#45;&gt;h6 -->
<g id="edge5" class="edge">
<title>stvars:f9-&gt;h6</title>
<path fill="none" stroke="black" d="M205.25,-62C237.89,-62 274.42,-56.46 301.7,-51.21"/>
<polygon fill="black" stroke="black" points="302.19,-54.68 311.31,-49.29 300.82,-47.82 302.19,-54.68"/>
</g>
</g>
</svg>