<?xml version="1.0" encoding="UTF-8" standalone="no"?>
<!DOCTYPE svg PUBLIC "-//W3C//DTD SVG 1.1//EN" "http://www.w3.org/Graphics/SVG/1.1/DTD/svg11.dtd">
<!-- Generated by graphviz version 9.0.0 (20230911.1827)
 -->
<!-- Title: g Pages: 1 -->
<svg width="480pt" height="334pt" viewBox="0.00 0.00 480.14 334.00" xmlns="http://www.w3.org/2000/svg" xmlns:xlink="http://www.w3.org/1999/xlink">
<g id="graph0" class="graph" transform="scale(1 1) rotate(0) translate(4 330)">
<title>g</title>
<polygon fill="white" stroke="none" points="-4,4 -4,-330 476.14,-330 476.14,4 -4,4"/>
<g id="clust1" class="cluster">
<title>clusterG0</title>
<polygon fill="none" stroke="black" points="8,-8 8,-318 464.14,-318 464.14,-8 8,-8"/>
<text text-anchor="middle" x="236.07" y="-300.7" font-family="Times,serif" font-size="14.00">Memory (After Code Execution): C / Java</text>
</g>
<g id="clust2" class="cluster">
<title>clusterG1</title>
<polygon fill="none" stroke="black" points="16,-16 16,-285 212.5,-285 212.5,-16 16,-16"/>
<text text-anchor="middle" x="114.25" y="-267.7" font-family="Times,serif" font-size="14.00">Stack</text>
</g>
<g id="clust3" class="cluster">
<title>clusterG2</title>
<polygon fill="none" stroke="black" points="232.5,-120 232.5,-251 456.14,-251 456.14,-120 232.5,-120"/>
<text text-anchor="middle" x="344.32" y="-233.7" font-family="Times,serif" font-size="14.00">Heap</text>
</g>
<!-- stvars -->
<g id="node1" class="node">
<title>stvars</title>
<polygon fill="none" stroke="black" points="24,-24.38 24,-251.62 204.5,-251.62 204.5,-24.38 24,-24.38"/>
<text text-anchor="middle" x="65" y="-234.32" font-family="Courier,monospace" font-size="14.00">cur_date</text>
<polyline fill="none" stroke="black" points="24,-226.38 106,-226.38"/>
<text text-anchor="middle" x="65" y="-209.07" font-family="Courier,monospace" font-size="14.00">num_rows</text>
<polyline fill="none" stroke="black" points="24,-201.12 106,-201.12"/>
<text text-anchor="middle" x="65" y="-183.82" font-family="Courier,monospace" font-size="14.00">filled</text>
<polyline fill="none" stroke="black" points="24,-175.88 106,-175.88"/>
<text text-anchor="middle" x="65" y="-158.57" font-family="Courier,monospace" font-size="14.00">empty</text>
<polyline fill="none" stroke="black" points="24,-150.62 106,-150.62"/>
<text text-anchor="middle" x="65" y="-133.32" font-family="Courier,monospace" font-size="14.00">num_cols</text>
<polyline fill="none" stroke="black" points="24,-125.38 106,-125.38"/>
<text text-anchor="middle" x="65" y="-108.08" font-family="Courier,monospace" font-size="14.00">username</text>
<polyline fill="none" stroke="black" points="24,-100.12 106,-100.12"/>
<text text-anchor="middle" x="65" y="-82.83" font-family="Courier,monospace" font-size="14.00">i</text>
<polyline fill="none" stroke="black" points="24,-74.88 106,-74.88"/>
<text text-anchor="middle" x="65" y="-57.58" font-family="Courier,monospace" font-size="14.00">j</text>
<polyline fill="none" stroke="black" points="24,-49.62 106,-49.62"/>
<text text-anchor="middle" x="65" y="-32.33" font-family="Courier,monospace" font-size="14.00">z</text>
<polyline fill="none" stroke="black" points="106,-24.38 106,-251.62"/>
<text text-anchor="middle" x="155.25" y="-234.32" font-family="Courier,monospace" font-size="14.00">0x88b6e369</text>
<polyline fill="none" stroke="black" points="106,-226.38 204.5,-226.38"/>
<text text-anchor="middle" x="155.25" y="-209.07" font-family="Courier,monospace" font-size="14.00">13</text>
<polyline fill="none" stroke="black" points="106,-201.12 204.5,-201.12"/>
<text text-anchor="middle" x="155.25" y="-183.82" font-family="Courier,monospace" font-size="14.00">True (1)</text>
<polyline fill="none" stroke="black" points="106,-175.88 204.5,-175.88"/>
<text text-anchor="middle" x="155.25" y="-158.57" font-family="Courier,monospace" font-size="14.00">False (0)</text>
<polyline fill="none" stroke="black" points="106,-150.62 204.5,-150.62"/>
<text text-anchor="middle" x="155.25" y="-133.32" font-family="Courier,monospace" font-size="14.00">2</text>
<polyline fill="none" stroke="black" points="106,-125.38 204.5,-125.38"/>
<text text-anchor="middle" x="155.25" y="-108.08" font-family="Courier,monospace" font-size="14.00">0xf7fc43e0</text>
<polyline fill="none" stroke="black" points="106,-100.12 204.5,-100.12"/>
<text text-anchor="middle" x="155.25" y="-82.83" font-family="Courier,monospace" font-size="14.00">0</text>
<polyline fill="none" stroke="black" points="106,-74.88 204.5,-74.88"/>
<text text-anchor="middle" x="155.25" y="-57.58" font-family="Courier,monospace" font-size="14.00">None</text>
<polyline fill="none" stroke="black" points="106,-49.62 204.5,-49.62"/>
<text text-anchor="middle" x="155.25" y="-32.33" font-family="Courier,monospace" font-size="14.00">314</text>
</g>
<!-- h1 -->
<g id="node2" class="node">
<title>h1</title>
<ellipse fill="none" stroke="black" stroke-width="0" cx="344.32" cy="-200" rx="103.82" ry="18"/>
<text text-anchor="middle" x="344.32" y="-195.32" font-family="Courier,monospace" font-size="14.00">Date[2023-07-22]</text>
</g>
<!-- stvars&#45;&gt;h1 -->
<g id="edge1" class="edge">
<title>stvars:addr1-&gt;h1:g5</title>
<path fill="none" stroke="black" d="M205.25,-239C235.87,-239 268.92,-230.01 295.01,-220.66"/>
<polygon fill="black" stroke="black" points="296.17,-223.96 304.32,-217.18 293.73,-217.4 296.17,-223.96"/>
</g>
<!-- h3 -->
<g id="node3" class="node">
<title>h3</title>
<ellipse fill="none" stroke="black" stroke-width="0" cx="344.32" cy="-146" rx="45.95" ry="18"/>
<text text-anchor="middle" x="344.32" y="-141.32" font-family="Courier,monospace" font-size="14.00">"Jeff"</text>
</g>
<!-- stvars&#45;&gt;h3 -->
<g id="edge2" class="edge">
<title>stvars:f6-&gt;h3</title>
<path fill="none" stroke="black" d="M205.25,-113C237.74,-113 273.38,-121.75 300.32,-130.24"/>
<polygon fill="black" stroke="black" points="298.89,-133.46 309.48,-133.24 301.07,-126.8 298.89,-133.46"/>
</g>
</g>
</svg>