<?xml version="1.0" encoding="UTF-8" standalone="no"?>
<!DOCTYPE svg PUBLIC "-//W3C//DTD SVG 1.1//EN"
 "http://www.w3.org/Graphics/SVG/1.1/DTD/svg11.dtd">
<!-- Generated by graphviz version 9.0.0 (20230911.1827)
 -->
<!-- Pages: 1 -->
<svg width="283pt" height="190pt"
 viewBox="0.00 0.00 282.88 189.50" xmlns="http://www.w3.org/2000/svg" xmlns:xlink="http://www.w3.org/1999/xlink">
<g id="graph0" class="graph" transform="scale(1 1) rotate(0) translate(4 185.5)">
<polygon fill="white" stroke="none" points="-4,4 -4,-185.5 278.88,-185.5 278.88,4 -4,4"/>
<!-- Mango -->
<g id="node1" class="node">
<title>Mango</title>
<polygon fill="none" stroke="black" points="125,-156.5 125,-181 219.5,-181 219.5,-156.5 125,-156.5"/>
<text text-anchor="middle" x="134.88" y="-163.7" font-family="Times,serif" font-size="14.00"> </text>
<polyline fill="none" stroke="black" points="144.75,-156.5 144.75,-181"/>
<text text-anchor="middle" x="172.25" y="-163.7" font-family="Times,serif" font-size="14.00">Mango</text>
<polyline fill="none" stroke="black" points="199.75,-156.5 199.75,-181"/>
<text text-anchor="middle" x="209.62" y="-163.7" font-family="Times,serif" font-size="14.00"> </text>
</g>
<!-- Artichoke -->
<g id="node2" class="node">
<title>Artichoke</title>
<polygon fill="none" stroke="black" points="58.5,-78.5 58.5,-103 168,-103 168,-78.5 58.5,-78.5"/>
<text text-anchor="middle" x="68.38" y="-85.7" font-family="Times,serif" font-size="14.00"> </text>
<polyline fill="none" stroke="black" points="78.25,-78.5 78.25,-103"/>
<text text-anchor="middle" x="113.25" y="-85.7" font-family="Times,serif" font-size="14.00">Artichoke</text>
<polyline fill="none" stroke="black" points="148.25,-78.5 148.25,-103"/>
<text text-anchor="middle" x="158.12" y="-85.7" font-family="Times,serif" font-size="14.00"> </text>
</g>
<!-- Mango&#45;&gt;Artichoke -->
<g id="edge1" class="edge">
<title>Mango:f0&#45;&gt;Artichoke:f1</title>
<path fill="none" stroke="black" d="M135.25,-156C135.25,-135.05 120.16,-130.14 114.98,-114.71"/>
<polygon fill="black" stroke="black" points="118.46,-114.35 113.48,-105 111.54,-115.41 118.46,-114.35"/>
<text text-anchor="middle" x="134.38" y="-124.7" font-family="Times,serif" font-size="14.00">L</text>
</g>
<!-- Pickle -->
<g id="node5" class="node">
<title>Pickle</title>
<polygon fill="none" stroke="black" points="185.62,-78.5 185.62,-103 274.88,-103 274.88,-78.5 185.62,-78.5"/>
<text text-anchor="middle" x="195.5" y="-85.7" font-family="Times,serif" font-size="14.00"> </text>
<polyline fill="none" stroke="black" points="205.38,-78.5 205.38,-103"/>
<text text-anchor="middle" x="230.25" y="-85.7" font-family="Times,serif" font-size="14.00">Pickle</text>
<polyline fill="none" stroke="black" points="255.12,-78.5 255.12,-103"/>
<text text-anchor="middle" x="265" y="-85.7" font-family="Times,serif" font-size="14.00"> </text>
</g>
<!-- Mango&#45;&gt;Pickle -->
<g id="edge4" class="edge">
<title>Mango:f2&#45;&gt;Pickle:f1</title>
<path fill="none" stroke="black" d="M209.25,-156C209.25,-135.19 223.65,-130.08 228.6,-114.66"/>
<polygon fill="black" stroke="black" points="232.03,-115.4 230.03,-105 225.11,-114.38 232.03,-115.4"/>
<text text-anchor="middle" x="228.75" y="-124.7" font-family="Times,serif" font-size="14.00">R</text>
</g>
<!-- Aardvark -->
<g id="node3" class="node">
<title>Aardvark</title>
<polygon fill="none" stroke="black" points="0,-0.5 0,-25 106.5,-25 106.5,-0.5 0,-0.5"/>
<text text-anchor="middle" x="9.88" y="-7.7" font-family="Times,serif" font-size="14.00"> </text>
<polyline fill="none" stroke="black" points="19.75,-0.5 19.75,-25"/>
<text text-anchor="middle" x="53.25" y="-7.7" font-family="Times,serif" font-size="14.00">Aardvark</text>
<polyline fill="none" stroke="black" points="86.75,-0.5 86.75,-25"/>
<text text-anchor="middle" x="96.62" y="-7.7" font-family="Times,serif" font-size="14.00"> </text>
</g>
<!-- Artichoke&#45;&gt;Aardvark -->
<g id="edge2" class="edge">
<title>Artichoke:f0&#45;&gt;Aardvark:f1</title>
<path fill="none" stroke="black" d="M68.25,-78C68.25,-58.09 58.16,-51.85 54.53,-36.85"/>
<polygon fill="black" stroke="black" points="58.02,-36.55 53.42,-27 51.06,-37.33 58.02,-36.55"/>
<text text-anchor="middle" x="69.38" y="-46.7" font-family="Times,serif" font-size="14.00">L</text>
</g>
<!-- Banana -->
<g id="node4" class="node">
<title>Banana</title>
<polygon fill="none" stroke="black" points="124.25,-0.5 124.25,-25 220.25,-25 220.25,-0.5 124.25,-0.5"/>
<text text-anchor="middle" x="134.12" y="-7.7" font-family="Times,serif" font-size="14.00"> </text>
<polyline fill="none" stroke="black" points="144,-0.5 144,-25"/>
<text text-anchor="middle" x="172.25" y="-7.7" font-family="Times,serif" font-size="14.00">Banana</text>
<polyline fill="none" stroke="black" points="200.5,-0.5 200.5,-25"/>
<text text-anchor="middle" x="210.38" y="-7.7" font-family="Times,serif" font-size="14.00"> </text>
</g>
<!-- Artichoke&#45;&gt;Banana -->
<g id="edge3" class="edge">
<title>Artichoke:f2&#45;&gt;Banana:f1</title>
<path fill="none" stroke="black" d="M158.25,-78C158.25,-58.19 167.67,-51.8 171.06,-36.82"/>
<polygon fill="black" stroke="black" points="174.52,-37.32 172.09,-27.01 167.56,-36.58 174.52,-37.32"/>
<text text-anchor="middle" x="173.75" y="-46.7" font-family="Times,serif" font-size="14.00">R</text>
</g>
</g>
</svg>
