<?xml version="1.0" encoding="UTF-8" standalone="no"?>
<!DOCTYPE svg PUBLIC "-//W3C//DTD SVG 1.1//EN"
 "http://www.w3.org/Graphics/SVG/1.1/DTD/svg11.dtd">
<!-- Generated by graphviz version 9.0.0 (20230911.1827)
 -->
<!-- Pages: 1 -->
<svg width="549pt" height="34pt"
 viewBox="0.00 0.00 549.00 33.50" xmlns="http://www.w3.org/2000/svg" xmlns:xlink="http://www.w3.org/1999/xlink">
<g id="graph0" class="graph" transform="scale(1 1) rotate(0) translate(4 29.5)">
<polygon fill="white" stroke="none" points="-4,4 -4,-29.5 545,-29.5 545,4 -4,4"/>
<!-- Mango -->
<g id="node1" class="node">
<title>Mango</title>
<polygon fill="none" stroke="black" points="0,-0.5 0,-25 74.75,-25 74.75,-0.5 0,-0.5"/>
<text text-anchor="middle" x="27.5" y="-7.7" font-family="Times,serif" font-size="14.00">Mango</text>
<polyline fill="none" stroke="black" points="55,-0.5 55,-25"/>
<text text-anchor="middle" x="64.88" y="-7.7" font-family="Times,serif" font-size="14.00"> </text>
</g>
<!-- Pickle -->
<g id="node2" class="node">
<title>Pickle</title>
<polygon fill="none" stroke="black" points="110.75,-0.5 110.75,-25 180.25,-25 180.25,-0.5 110.75,-0.5"/>
<text text-anchor="middle" x="135.62" y="-7.7" font-family="Times,serif" font-size="14.00">Pickle</text>
<polyline fill="none" stroke="black" points="160.5,-0.5 160.5,-25"/>
<text text-anchor="middle" x="170.38" y="-7.7" font-family="Times,serif" font-size="14.00"> </text>
</g>
<!-- Mango&#45;&gt;Pickle -->
<g id="edge1" class="edge">
<title>Mango:f1&#45;&gt;Pickle</title>
<path fill="none" stroke="black" d="M74.75,-12.75C82.65,-12.75 91.06,-12.75 99.19,-12.75"/>
<polygon fill="black" stroke="black" points="98.93,-16.25 108.93,-12.75 98.93,-9.25 98.93,-16.25"/>
</g>
<!-- Artichoke -->
<g id="node3" class="node">
<title>Artichoke</title>
<polygon fill="none" stroke="black" points="216.25,-0.5 216.25,-25 306,-25 306,-0.5 216.25,-0.5"/>
<text text-anchor="middle" x="251.25" y="-7.7" font-family="Times,serif" font-size="14.00">Artichoke</text>
<polyline fill="none" stroke="black" points="286.25,-0.5 286.25,-25"/>
<text text-anchor="middle" x="296.12" y="-7.7" font-family="Times,serif" font-size="14.00"> </text>
</g>
<!-- Pickle&#45;&gt;Artichoke -->
<g id="edge2" class="edge">
<title>Pickle:f1&#45;&gt;Artichoke</title>
<path fill="none" stroke="black" d="M180.25,-12.75C188.07,-12.75 196.33,-12.75 204.44,-12.75"/>
<polygon fill="black" stroke="black" points="204.25,-16.25 214.25,-12.75 204.25,-9.25 204.25,-16.25"/>
</g>
<!-- Banana -->
<g id="node4" class="node">
<title>Banana</title>
<polygon fill="none" stroke="black" points="342,-0.5 342,-25 418.25,-25 418.25,-0.5 342,-0.5"/>
<text text-anchor="middle" x="370.25" y="-7.7" font-family="Times,serif" font-size="14.00">Banana</text>
<polyline fill="none" stroke="black" points="398.5,-0.5 398.5,-25"/>
<text text-anchor="middle" x="408.38" y="-7.7" font-family="Times,serif" font-size="14.00"> </text>
</g>
<!-- Artichoke&#45;&gt;Banana -->
<g id="edge3" class="edge">
<title>Artichoke:f1&#45;&gt;Banana</title>
<path fill="none" stroke="black" d="M306,-12.75C313.85,-12.75 322.18,-12.75 330.29,-12.75"/>
<polygon fill="black" stroke="black" points="330.03,-16.25 340.03,-12.75 330.03,-9.25 330.03,-16.25"/>
</g>
<!-- Aardvark -->
<g id="node5" class="node">
<title>Aardvark</title>
<polygon fill="none" stroke="black" points="454.25,-0.5 454.25,-25 541,-25 541,-0.5 454.25,-0.5"/>
<text text-anchor="middle" x="487.75" y="-7.7" font-family="Times,serif" font-size="14.00">Aardvark</text>
<polyline fill="none" stroke="black" points="521.25,-0.5 521.25,-25"/>
<text text-anchor="middle" x="531.12" y="-7.7" font-family="Times,serif" font-size="14.00"> </text>
</g>
<!-- Banana&#45;&gt;Aardvark -->
<g id="edge4" class="edge">
<title>Banana:f1&#45;&gt;Aardvark</title>
<path fill="none" stroke="black" d="M418.25,-12.75C426.11,-12.75 434.42,-12.75 442.56,-12.75"/>
<polygon fill="black" stroke="black" points="442.4,-16.25 452.4,-12.75 442.4,-9.25 442.4,-16.25"/>
</g>
</g>
</svg>
