<?xml version="1.0" encoding="UTF-8" standalone="no"?>
<!DOCTYPE svg PUBLIC "-//W3C//DTD SVG 1.1//EN"
 "http://www.w3.org/Graphics/SVG/1.1/DTD/svg11.dtd">
<!-- Generated by graphviz version 9.0.0 (20230911.1827)
 -->
<!-- Pages: 1 -->
<svg width="334pt" height="190pt"
 viewBox="0.00 0.00 333.75 189.50" xmlns="http://www.w3.org/2000/svg" xmlns:xlink="http://www.w3.org/1999/xlink">
<g id="graph0" class="graph" transform="scale(1 1) rotate(0) translate(4 185.5)">
<polygon fill="white" stroke="none" points="-4,4 -4,-185.5 329.75,-185.5 329.75,4 -4,4"/>
<!-- Mango -->
<g id="node1" class="node">
<title>Mango</title>
<polygon fill="none" stroke="black" points="151,-156.5 151,-181 245.5,-181 245.5,-156.5 151,-156.5"/>
<text text-anchor="middle" x="160.88" y="-163.7" font-family="Times,serif" font-size="14.00"> </text>
<polyline fill="none" stroke="black" points="170.75,-156.5 170.75,-181"/>
<text text-anchor="middle" x="198.25" y="-163.7" font-family="Times,serif" font-size="14.00">Mango</text>
<polyline fill="none" stroke="black" points="225.75,-156.5 225.75,-181"/>
<text text-anchor="middle" x="235.62" y="-163.7" font-family="Times,serif" font-size="14.00"> </text>
</g>
<!-- Artichoke -->
<g id="node2" class="node">
<title>Artichoke</title>
<polygon fill="none" stroke="black" points="72.5,-78.5 72.5,-103 182,-103 182,-78.5 72.5,-78.5"/>
<text text-anchor="middle" x="82.38" y="-85.7" font-family="Times,serif" font-size="14.00"> </text>
<polyline fill="none" stroke="black" points="92.25,-78.5 92.25,-103"/>
<text text-anchor="middle" x="127.25" y="-85.7" font-family="Times,serif" font-size="14.00">Artichoke</text>
<polyline fill="none" stroke="black" points="162.25,-78.5 162.25,-103"/>
<text text-anchor="middle" x="172.12" y="-85.7" font-family="Times,serif" font-size="14.00"> </text>
</g>
<!-- Mango&#45;&gt;Artichoke -->
<g id="edge1" class="edge">
<title>Mango:f0&#45;&gt;Artichoke:f1</title>
<path fill="none" stroke="black" d="M161.25,-156C161.25,-132.54 137.04,-131.09 129.48,-114.5"/>
<polygon fill="black" stroke="black" points="132.97,-114.09 127.55,-104.98 126.11,-115.48 132.97,-114.09"/>
<text text-anchor="middle" x="158.38" y="-124.7" font-family="Times,serif" font-size="14.00">L</text>
</g>
<!-- Pickle -->
<g id="node5" class="node">
<title>Pickle</title>
<polygon fill="none" stroke="black" points="201.62,-78.5 201.62,-103 290.88,-103 290.88,-78.5 201.62,-78.5"/>
<text text-anchor="middle" x="211.5" y="-85.7" font-family="Times,serif" font-size="14.00"> </text>
<polyline fill="none" stroke="black" points="221.38,-78.5 221.38,-103"/>
<text text-anchor="middle" x="246.25" y="-85.7" font-family="Times,serif" font-size="14.00">Pickle</text>
<polyline fill="none" stroke="black" points="271.12,-78.5 271.12,-103"/>
<text text-anchor="middle" x="281" y="-85.7" font-family="Times,serif" font-size="14.00"> </text>
</g>
<!-- Mango&#45;&gt;Pickle -->
<g id="edge4" class="edge">
<title>Mango:f2&#45;&gt;Pickle:f1</title>
<path fill="none" stroke="black" d="M235.25,-156C235.25,-136.44 242.65,-129.69 245.31,-114.73"/>
<polygon fill="black" stroke="black" points="248.78,-115.26 246.12,-105.01 241.8,-114.68 248.78,-115.26"/>
<text text-anchor="middle" x="248.75" y="-124.7" font-family="Times,serif" font-size="14.00">R</text>
</g>
<!-- Aardvark -->
<g id="node3" class="node">
<title>Aardvark</title>
<polygon fill="none" stroke="black" points="0,-0.5 0,-25 106.5,-25 106.5,-0.5 0,-0.5"/>
<text text-anchor="middle" x="9.88" y="-7.7" font-family="Times,serif" font-size="14.00"> </text>
<polyline fill="none" stroke="black" points="19.75,-0.5 19.75,-25"/>
<text text-anchor="middle" x="53.25" y="-7.7" font-family="Times,serif" font-size="14.00">Aardvark</text>
<polyline fill="none" stroke="black" points="86.75,-0.5 86.75,-25"/>
<text text-anchor="middle" x="96.62" y="-7.7" font-family="Times,serif" font-size="14.00"> </text>
</g>
<!-- Artichoke&#45;&gt;Aardvark -->
<g id="edge2" class="edge">
<title>Artichoke:f0&#45;&gt;Aardvark:f1</title>
<path fill="none" stroke="black" d="M82.25,-78C82.25,-55.72 61.99,-52.63 55.34,-36.64"/>
<polygon fill="black" stroke="black" points="58.81,-36.17 53.53,-26.99 51.93,-37.46 58.81,-36.17"/>
<text text-anchor="middle" x="80.38" y="-46.7" font-family="Times,serif" font-size="14.00">L</text>
</g>
<!-- Banana -->
<g id="node4" class="node">
<title>Banana</title>
<polygon fill="none" stroke="black" points="124.25,-0.5 124.25,-25 220.25,-25 220.25,-0.5 124.25,-0.5"/>
<text text-anchor="middle" x="134.12" y="-7.7" font-family="Times,serif" font-size="14.00"> </text>
<polyline fill="none" stroke="black" points="144,-0.5 144,-25"/>
<text text-anchor="middle" x="172.25" y="-7.7" font-family="Times,serif" font-size="14.00">Banana</text>
<polyline fill="none" stroke="black" points="200.5,-0.5 200.5,-25"/>
<text text-anchor="middle" x="210.38" y="-7.7" font-family="Times,serif" font-size="14.00"> </text>
</g>
<!-- Artichoke&#45;&gt;Banana -->
<g id="edge3" class="edge">
<title>Artichoke:f2&#45;&gt;Banana:f1</title>
<path fill="none" stroke="black" d="M172.25,-78C172.25,-59.04 172.25,-51.64 172.25,-37.01"/>
<polygon fill="black" stroke="black" points="175.75,-37.01 172.25,-27.01 168.75,-37.01 175.75,-37.01"/>
<text text-anchor="middle" x="176.75" y="-46.7" font-family="Times,serif" font-size="14.00">R</text>
</g>
<!-- Zebra -->
<g id="node6" class="node">
<title>Zebra</title>
<polygon fill="none" stroke="black" points="238.75,-0.5 238.75,-25 325.75,-25 325.75,-0.5 238.75,-0.5"/>
<text text-anchor="middle" x="248.62" y="-7.7" font-family="Times,serif" font-size="14.00"> </text>
<polyline fill="none" stroke="black" points="258.5,-0.5 258.5,-25"/>
<text text-anchor="middle" x="282.25" y="-7.7" font-family="Times,serif" font-size="14.00">Zebra</text>
<polyline fill="none" stroke="black" points="306,-0.5 306,-25"/>
<text text-anchor="middle" x="315.88" y="-7.7" font-family="Times,serif" font-size="14.00"> </text>
</g>
<!-- Pickle&#45;&gt;Zebra -->
<g id="edge5" class="edge">
<title>Pickle:f2&#45;&gt;Zebra:f1</title>
<path fill="none" stroke="black" d="M281.25,-78C281.25,-59.04 281.91,-51.64 282.16,-37.01"/>
<polygon fill="black" stroke="black" points="285.66,-37.04 282.24,-27.01 278.66,-36.99 285.66,-37.04"/>
<text text-anchor="middle" x="285.75" y="-46.7" font-family="Times,serif" font-size="14.00">R</text>
</g>
</g>
</svg>
