<?xml version="1.0" encoding="UTF-8" standalone="no"?>
<!DOCTYPE svg PUBLIC "-//W3C//DTD SVG 1.1//EN"
 "http://www.w3.org/Graphics/SVG/1.1/DTD/svg11.dtd">
<!-- Generated by graphviz version 9.0.0 (20230911.1827)
 -->
<!-- Pages: 1 -->
<svg width="414pt" height="330pt"
 viewBox="0.00 0.00 414.00 330.00" xmlns="http://www.w3.org/2000/svg" xmlns:xlink="http://www.w3.org/1999/xlink">
<g id="graph0" class="graph" transform="scale(1 1) rotate(0) translate(4 326)">
<polygon fill="white" stroke="none" points="-4,4 -4,-326 410,-326 410,4 -4,4"/>
<!-- root -->
<g id="node1" class="node">
<title>root</title>
<polygon fill="none" stroke="black" stroke-width="0" points="240,-297 240,-321.5 294,-321.5 294,-297 240,-297"/>
<text text-anchor="middle" x="266.88" y="-304.2" font-family="Times,serif" font-size="14.00">root</text>
</g>
<!-- Mango -->
<g id="node2" class="node">
<title>Mango</title>
<polygon fill="none" stroke="black" points="219.75,-234.5 219.75,-259 314.25,-259 314.25,-234.5 219.75,-234.5"/>
<text text-anchor="middle" x="229.62" y="-241.7" font-family="Times,serif" font-size="14.00"> </text>
<polyline fill="none" stroke="black" points="239.5,-234.5 239.5,-259"/>
<text text-anchor="middle" x="267" y="-241.7" font-family="Times,serif" font-size="14.00">Mango</text>
<polyline fill="none" stroke="black" points="294.5,-234.5 294.5,-259"/>
<text text-anchor="middle" x="304.38" y="-241.7" font-family="Times,serif" font-size="14.00"> </text>
</g>
<!-- root&#45;&gt;Mango -->
<g id="edge1" class="edge">
<title>root&#45;&gt;Mango</title>
<path fill="none" stroke="black" d="M267,-297.15C267,-289.74 267,-279.73 267,-270.65"/>
<polygon fill="black" stroke="black" points="270.5,-270.7 267,-260.7 263.5,-270.7 270.5,-270.7"/>
</g>
<!-- Artichoke -->
<g id="node3" class="node">
<title>Artichoke</title>
<polygon fill="none" stroke="black" points="114.25,-156.5 114.25,-181 223.75,-181 223.75,-156.5 114.25,-156.5"/>
<text text-anchor="middle" x="124.12" y="-163.7" font-family="Times,serif" font-size="14.00"> </text>
<polyline fill="none" stroke="black" points="134,-156.5 134,-181"/>
<text text-anchor="middle" x="169" y="-163.7" font-family="Times,serif" font-size="14.00">Artichoke</text>
<polyline fill="none" stroke="black" points="204,-156.5 204,-181"/>
<text text-anchor="middle" x="213.88" y="-163.7" font-family="Times,serif" font-size="14.00"> </text>
</g>
<!-- Mango&#45;&gt;Artichoke -->
<g id="edge2" class="edge">
<title>Mango:f0&#45;&gt;Artichoke:f1</title>
<path fill="none" stroke="black" d="M230,-234C230,-202.7 183.3,-213.37 171.62,-192.56"/>
<polygon fill="black" stroke="black" points="175.06,-191.9 169.35,-182.97 168.25,-193.51 175.06,-191.9"/>
<text text-anchor="middle" x="224.12" y="-202.7" font-family="Times,serif" font-size="14.00">L</text>
</g>
<!-- Pickle -->
<g id="node10" class="node">
<title>Pickle</title>
<polygon fill="none" stroke="black" points="297.38,-156.5 297.38,-181 386.62,-181 386.62,-156.5 297.38,-156.5"/>
<text text-anchor="middle" x="307.25" y="-163.7" font-family="Times,serif" font-size="14.00"> </text>
<polyline fill="none" stroke="black" points="317.12,-156.5 317.12,-181"/>
<text text-anchor="middle" x="342" y="-163.7" font-family="Times,serif" font-size="14.00">Pickle</text>
<polyline fill="none" stroke="black" points="366.88,-156.5 366.88,-181"/>
<text text-anchor="middle" x="376.75" y="-163.7" font-family="Times,serif" font-size="14.00"> </text>
</g>
<!-- Mango&#45;&gt;Pickle -->
<g id="edge9" class="edge">
<title>Mango:f2&#45;&gt;Pickle:f1</title>
<path fill="none" stroke="black" d="M304,-234C304,-209.47 331.56,-209.53 339.74,-192.31"/>
<polygon fill="black" stroke="black" points="343.07,-193.49 341.69,-182.98 336.21,-192.05 343.07,-193.49"/>
<text text-anchor="middle" x="337.5" y="-202.7" font-family="Times,serif" font-size="14.00">R</text>
</g>
<!-- Aardvark -->
<g id="node4" class="node">
<title>Aardvark</title>
<polygon fill="none" stroke="black" points="16.75,-78.5 16.75,-103 123.25,-103 123.25,-78.5 16.75,-78.5"/>
<text text-anchor="middle" x="26.62" y="-85.7" font-family="Times,serif" font-size="14.00"> </text>
<polyline fill="none" stroke="black" points="36.5,-78.5 36.5,-103"/>
<text text-anchor="middle" x="70" y="-85.7" font-family="Times,serif" font-size="14.00">Aardvark</text>
<polyline fill="none" stroke="black" points="103.5,-78.5 103.5,-103"/>
<text text-anchor="middle" x="113.38" y="-85.7" font-family="Times,serif" font-size="14.00"> </text>
</g>
<!-- Artichoke&#45;&gt;Aardvark -->
<g id="edge3" class="edge">
<title>Artichoke:f0&#45;&gt;Aardvark:f1</title>
<path fill="none" stroke="black" d="M124,-156C124,-126.97 83.39,-133.98 72.6,-114.53"/>
<polygon fill="black" stroke="black" points="76.05,-113.9 70.35,-104.97 69.24,-115.51 76.05,-113.9"/>
<text text-anchor="middle" x="119.12" y="-124.7" font-family="Times,serif" font-size="14.00">L</text>
</g>
<!-- Banana -->
<g id="node7" class="node">
<title>Banana</title>
<polygon fill="none" stroke="black" points="166,-78.5 166,-103 262,-103 262,-78.5 166,-78.5"/>
<text text-anchor="middle" x="175.88" y="-85.7" font-family="Times,serif" font-size="14.00"> </text>
<polyline fill="none" stroke="black" points="185.75,-78.5 185.75,-103"/>
<text text-anchor="middle" x="214" y="-85.7" font-family="Times,serif" font-size="14.00">Banana</text>
<polyline fill="none" stroke="black" points="242.25,-78.5 242.25,-103"/>
<text text-anchor="middle" x="252.12" y="-85.7" font-family="Times,serif" font-size="14.00"> </text>
</g>
<!-- Artichoke&#45;&gt;Banana -->
<g id="edge6" class="edge">
<title>Artichoke:f2&#45;&gt;Banana:f1</title>
<path fill="none" stroke="black" d="M214,-156C214,-137.04 214,-129.64 214,-115.01"/>
<polygon fill="black" stroke="black" points="217.5,-115.01 214,-105.01 210.5,-115.01 217.5,-115.01"/>
<text text-anchor="middle" x="218.5" y="-124.7" font-family="Times,serif" font-size="14.00">R</text>
</g>
<!-- None_0 -->
<g id="node5" class="node">
<title>None_0</title>
<polygon fill="none" stroke="black" stroke-width="0" points="0,-0.5 0,-25 54,-25 54,-0.5 0,-0.5"/>
<text text-anchor="middle" x="26.62" y="-7.7" font-family="Times,serif" font-size="14.00">None</text>
</g>
<!-- Aardvark&#45;&gt;None_0 -->
<g id="edge4" class="edge">
<title>Aardvark:f0&#45;&gt;None_0:f1</title>
<path fill="none" stroke="black" d="M27,-78C27,-64.07 27,-48.46 27,-36"/>
<polygon fill="black" stroke="black" points="30.5,-36.29 27,-26.29 23.5,-36.29 30.5,-36.29"/>
<text text-anchor="middle" x="31.12" y="-46.7" font-family="Times,serif" font-size="14.00">L</text>
</g>
<!-- None_1 -->
<g id="node6" class="node">
<title>None_1</title>
<polygon fill="none" stroke="black" stroke-width="0" points="79,-0.5 79,-25 133,-25 133,-0.5 79,-0.5"/>
<text text-anchor="middle" x="105.62" y="-7.7" font-family="Times,serif" font-size="14.00">None</text>
</g>
<!-- Aardvark&#45;&gt;None_1 -->
<g id="edge5" class="edge">
<title>Aardvark:f2&#45;&gt;None_1:f1</title>
<path fill="none" stroke="black" d="M113,-78C113,-63.99 111.38,-48.38 109.7,-35.94"/>
<polygon fill="black" stroke="black" points="113.2,-35.62 108.28,-26.23 106.27,-36.63 113.2,-35.62"/>
<text text-anchor="middle" x="117.5" y="-46.7" font-family="Times,serif" font-size="14.00">R</text>
</g>
<!-- None_2 -->
<g id="node8" class="node">
<title>None_2</title>
<polygon fill="none" stroke="black" stroke-width="0" points="151,-0.5 151,-25 205,-25 205,-0.5 151,-0.5"/>
<text text-anchor="middle" x="177.62" y="-7.7" font-family="Times,serif" font-size="14.00">None</text>
</g>
<!-- Banana&#45;&gt;None_2 -->
<g id="edge7" class="edge">
<title>Banana:f0&#45;&gt;None_2:f1</title>
<path fill="none" stroke="black" d="M176,-78C176,-64.06 176.46,-48.45 176.94,-36"/>
<polygon fill="black" stroke="black" points="180.43,-36.42 177.35,-26.28 173.43,-36.13 180.43,-36.42"/>
<text text-anchor="middle" x="181.12" y="-46.7" font-family="Times,serif" font-size="14.00">L</text>
</g>
<!-- None_3 -->
<g id="node9" class="node">
<title>None_3</title>
<polygon fill="none" stroke="black" stroke-width="0" points="225,-0.5 225,-25 279,-25 279,-0.5 225,-0.5"/>
<text text-anchor="middle" x="251.62" y="-7.7" font-family="Times,serif" font-size="14.00">None</text>
</g>
<!-- Banana&#45;&gt;None_3 -->
<g id="edge8" class="edge">
<title>Banana:f2&#45;&gt;None_3:f1</title>
<path fill="none" stroke="black" d="M252,-78C252,-64.07 252,-48.46 252,-36"/>
<polygon fill="black" stroke="black" points="255.5,-36.29 252,-26.29 248.5,-36.29 255.5,-36.29"/>
<text text-anchor="middle" x="256.5" y="-46.7" font-family="Times,serif" font-size="14.00">R</text>
</g>
<!-- None_4 -->
<g id="node11" class="node">
<title>None_4</title>
<polygon fill="none" stroke="black" stroke-width="0" points="280,-78.5 280,-103 334,-103 334,-78.5 280,-78.5"/>
<text text-anchor="middle" x="306.62" y="-85.7" font-family="Times,serif" font-size="14.00">None</text>
</g>
<!-- Pickle&#45;&gt;None_4 -->
<g id="edge10" class="edge">
<title>Pickle:f0&#45;&gt;None_4:f1</title>
<path fill="none" stroke="black" d="M307,-156C307,-142.07 307,-126.46 307,-114"/>
<polygon fill="black" stroke="black" points="310.5,-114.29 307,-104.29 303.5,-114.29 310.5,-114.29"/>
<text text-anchor="middle" x="311.12" y="-124.7" font-family="Times,serif" font-size="14.00">L</text>
</g>
<!-- None_5 -->
<g id="node12" class="node">
<title>None_5</title>
<polygon fill="none" stroke="black" stroke-width="0" points="352,-78.5 352,-103 406,-103 406,-78.5 352,-78.5"/>
<text text-anchor="middle" x="378.62" y="-85.7" font-family="Times,serif" font-size="14.00">None</text>
</g>
<!-- Pickle&#45;&gt;None_5 -->
<g id="edge11" class="edge">
<title>Pickle:f2&#45;&gt;None_5:f1</title>
<path fill="none" stroke="black" d="M377,-156C377,-142.06 377.46,-126.45 377.94,-114"/>
<polygon fill="black" stroke="black" points="381.43,-114.42 378.35,-104.28 374.43,-114.13 381.43,-114.42"/>
<text text-anchor="middle" x="381.5" y="-124.7" font-family="Times,serif" font-size="14.00">R</text>
</g>
</g>
</svg>
