<?xml version="1.0" encoding="UTF-8" standalone="no"?>
<!DOCTYPE svg PUBLIC "-//W3C//DTD SVG 1.1//EN"
 "http://www.w3.org/Graphics/SVG/1.1/DTD/svg11.dtd">
<!-- Generated by graphviz version 12.2.1 (20241206.2353)
 -->
<!-- Pages: 1 -->
<svg width="414pt" height="268pt"
 viewBox="0.00 0.00 414.00 267.50" xmlns="http://www.w3.org/2000/svg" xmlns:xlink="http://www.w3.org/1999/xlink">
<g id="graph0" class="graph" transform="scale(1 1) rotate(0) translate(4 263.5)">
<polygon fill="white" stroke="none" points="-4,4 -4,-263.5 410,-263.5 410,4 -4,4"/>
<!-- Mango -->
<g id="node1" class="node">
<title>Mango</title>
<polygon fill="none" stroke="black" points="219.75,-234.5 219.75,-259 314.25,-259 314.25,-234.5 219.75,-234.5"/>
<text text-anchor="middle" x="229.62" y="-241.7" font-family="Times,serif" font-size="14.00"> </text>
<polyline fill="none" stroke="black" points="239.5,-234.5 239.5,-259"/>
<text text-anchor="middle" x="267" y="-241.7" font-family="Times,serif" font-size="14.00">Mango</text>
<polyline fill="none" stroke="black" points="294.5,-234.5 294.5,-259"/>
<text text-anchor="middle" x="304.38" y="-241.7" font-family="Times,serif" font-size="14.00"> </text>
</g>
<!-- Artichoke -->
<g id="node2" class="node">
<title>Artichoke</title>
<polygon fill="none" stroke="black" points="115.25,-156.5 115.25,-181 224.75,-181 224.75,-156.5 115.25,-156.5"/>
<text text-anchor="middle" x="125.12" y="-163.7" font-family="Times,serif" font-size="14.00"> </text>
<polyline fill="none" stroke="black" points="135,-156.5 135,-181"/>
<text text-anchor="middle" x="170" y="-163.7" font-family="Times,serif" font-size="14.00">Artichoke</text>
<polyline fill="none" stroke="black" points="205,-156.5 205,-181"/>
<text text-anchor="middle" x="214.88" y="-163.7" font-family="Times,serif" font-size="14.00"> </text>
</g>
<!-- Mango&#45;&gt;Artichoke -->
<g id="edge1" class="edge">
<title>Mango:f0&#45;&gt;Artichoke:f1</title>
<path fill="none" stroke="black" d="M229.62,-234C229.62,-203.11 183.97,-213.11 172.56,-192.45"/>
<polygon fill="black" stroke="black" points="176.03,-191.91 170.34,-182.97 169.22,-193.51 176.03,-191.91"/>
<text text-anchor="middle" x="223.75" y="-202.7" font-family="Times,serif" font-size="14.00">L</text>
</g>
<!-- Pickle -->
<g id="node9" class="node">
<title>Pickle</title>
<polygon fill="none" stroke="black" points="296.38,-156.5 296.38,-181 385.62,-181 385.62,-156.5 296.38,-156.5"/>
<text text-anchor="middle" x="306.25" y="-163.7" font-family="Times,serif" font-size="14.00"> </text>
<polyline fill="none" stroke="black" points="316.12,-156.5 316.12,-181"/>
<text text-anchor="middle" x="341" y="-163.7" font-family="Times,serif" font-size="14.00">Pickle</text>
<polyline fill="none" stroke="black" points="365.88,-156.5 365.88,-181"/>
<text text-anchor="middle" x="375.75" y="-163.7" font-family="Times,serif" font-size="14.00"> </text>
</g>
<!-- Mango&#45;&gt;Pickle -->
<g id="edge8" class="edge">
<title>Mango:f2&#45;&gt;Pickle:f1</title>
<path fill="none" stroke="black" d="M304.38,-234C304.38,-210 330.45,-209.38 338.6,-192.68"/>
<polygon fill="black" stroke="black" points="342,-193.49 340.68,-182.98 335.16,-192.02 342,-193.49"/>
<text text-anchor="middle" x="337.59" y="-202.7" font-family="Times,serif" font-size="14.00">R</text>
</g>
<!-- Aardvark -->
<g id="node3" class="node">
<title>Aardvark</title>
<polygon fill="none" stroke="black" points="16.75,-78.5 16.75,-103 123.25,-103 123.25,-78.5 16.75,-78.5"/>
<text text-anchor="middle" x="26.62" y="-85.7" font-family="Times,serif" font-size="14.00"> </text>
<polyline fill="none" stroke="black" points="36.5,-78.5 36.5,-103"/>
<text text-anchor="middle" x="70" y="-85.7" font-family="Times,serif" font-size="14.00">Aardvark</text>
<polyline fill="none" stroke="black" points="103.5,-78.5 103.5,-103"/>
<text text-anchor="middle" x="113.38" y="-85.7" font-family="Times,serif" font-size="14.00"> </text>
</g>
<!-- Artichoke&#45;&gt;Aardvark -->
<g id="edge2" class="edge">
<title>Artichoke:f0&#45;&gt;Aardvark:f1</title>
<path fill="none" stroke="black" d="M125.12,-156C125.12,-126.66 83.67,-134.17 72.66,-114.62"/>
<polygon fill="black" stroke="black" points="76.08,-113.88 70.35,-104.97 69.27,-115.51 76.08,-113.88"/>
<text text-anchor="middle" x="120.01" y="-124.7" font-family="Times,serif" font-size="14.00">L</text>
</g>
<!-- Banana -->
<g id="node6" class="node">
<title>Banana</title>
<polygon fill="none" stroke="black" points="166,-78.5 166,-103 262,-103 262,-78.5 166,-78.5"/>
<text text-anchor="middle" x="175.88" y="-85.7" font-family="Times,serif" font-size="14.00"> </text>
<polyline fill="none" stroke="black" points="185.75,-78.5 185.75,-103"/>
<text text-anchor="middle" x="214" y="-85.7" font-family="Times,serif" font-size="14.00">Banana</text>
<polyline fill="none" stroke="black" points="242.25,-78.5 242.25,-103"/>
<text text-anchor="middle" x="252.12" y="-85.7" font-family="Times,serif" font-size="14.00"> </text>
</g>
<!-- Artichoke&#45;&gt;Banana -->
<g id="edge5" class="edge">
<title>Artichoke:f2&#45;&gt;Banana:f1</title>
<path fill="none" stroke="black" d="M214.88,-156C214.88,-137.04 214.3,-129.64 214.08,-115.01"/>
<polygon fill="black" stroke="black" points="217.58,-114.99 214.01,-105.01 210.58,-115.04 217.58,-114.99"/>
<text text-anchor="middle" x="219.16" y="-124.7" font-family="Times,serif" font-size="14.00">R</text>
</g>
<!-- None_0 -->
<g id="node4" class="node">
<title>None_0</title>
<polygon fill="none" stroke="black" stroke-width="0" points="0,-0.5 0,-25 54,-25 54,-0.5 0,-0.5"/>
<text text-anchor="middle" x="26.62" y="-7.7" font-family="Times,serif" font-size="14.00">None</text>
</g>
<!-- Aardvark&#45;&gt;None_0 -->
<g id="edge3" class="edge">
<title>Aardvark:f0&#45;&gt;None_0:f1</title>
<path fill="none" stroke="black" d="M26.62,-78C26.62,-64.07 26.71,-48.46 26.8,-36"/>
<polygon fill="black" stroke="black" points="30.3,-36.32 26.88,-26.29 23.3,-36.26 30.3,-36.32"/>
<text text-anchor="middle" x="30.87" y="-46.7" font-family="Times,serif" font-size="14.00">L</text>
</g>
<!-- None_1 -->
<g id="node5" class="node">
<title>None_1</title>
<polygon fill="none" stroke="black" stroke-width="0" points="79,-0.5 79,-25 133,-25 133,-0.5 79,-0.5"/>
<text text-anchor="middle" x="105.62" y="-7.7" font-family="Times,serif" font-size="14.00">None</text>
</g>
<!-- Aardvark&#45;&gt;None_1 -->
<g id="edge4" class="edge">
<title>Aardvark:f2&#45;&gt;None_1:f1</title>
<path fill="none" stroke="black" d="M113.38,-78C113.38,-63.98 111.67,-48.37 109.9,-35.93"/>
<polygon fill="black" stroke="black" points="113.39,-35.57 108.4,-26.23 106.47,-36.64 113.39,-35.57"/>
<text text-anchor="middle" x="116.96" y="-46.7" font-family="Times,serif" font-size="14.00">R</text>
</g>
<!-- None_2 -->
<g id="node7" class="node">
<title>None_2</title>
<polygon fill="none" stroke="black" stroke-width="0" points="151,-0.5 151,-25 205,-25 205,-0.5 151,-0.5"/>
<text text-anchor="middle" x="177.62" y="-7.7" font-family="Times,serif" font-size="14.00">None</text>
</g>
<!-- Banana&#45;&gt;None_2 -->
<g id="edge6" class="edge">
<title>Banana:f0&#45;&gt;None_2:f1</title>
<path fill="none" stroke="black" d="M175.88,-78C175.88,-64.06 176.37,-48.45 176.88,-36"/>
<polygon fill="black" stroke="black" points="180.36,-36.43 177.31,-26.28 173.37,-36.12 180.36,-36.43"/>
<text text-anchor="middle" x="180.69" y="-46.7" font-family="Times,serif" font-size="14.00">L</text>
</g>
<!-- None_3 -->
<g id="node8" class="node">
<title>None_3</title>
<polygon fill="none" stroke="black" stroke-width="0" points="225,-0.5 225,-25 279,-25 279,-0.5 225,-0.5"/>
<text text-anchor="middle" x="251.62" y="-7.7" font-family="Times,serif" font-size="14.00">None</text>
</g>
<!-- Banana&#45;&gt;None_3 -->
<g id="edge7" class="edge">
<title>Banana:f2&#45;&gt;None_3:f1</title>
<path fill="none" stroke="black" d="M252.12,-78C252.12,-64.07 252.1,-48.46 252.07,-36"/>
<polygon fill="black" stroke="black" points="255.57,-36.28 252.04,-26.29 248.57,-36.3 255.57,-36.28"/>
<text text-anchor="middle" x="256.61" y="-46.7" font-family="Times,serif" font-size="14.00">R</text>
</g>
<!-- None_4 -->
<g id="node10" class="node">
<title>None_4</title>
<polygon fill="none" stroke="black" stroke-width="0" points="280,-78.5 280,-103 334,-103 334,-78.5 280,-78.5"/>
<text text-anchor="middle" x="306.62" y="-85.7" font-family="Times,serif" font-size="14.00">None</text>
</g>
<!-- Pickle&#45;&gt;None_4 -->
<g id="edge9" class="edge">
<title>Pickle:f0&#45;&gt;None_4:f1</title>
<path fill="none" stroke="black" d="M306.25,-156C306.25,-142.07 306.42,-126.46 306.6,-114"/>
<polygon fill="black" stroke="black" points="310.1,-114.34 306.76,-104.29 303.1,-114.23 310.1,-114.34"/>
<text text-anchor="middle" x="310.62" y="-124.7" font-family="Times,serif" font-size="14.00">L</text>
</g>
<!-- None_5 -->
<g id="node11" class="node">
<title>None_5</title>
<polygon fill="none" stroke="black" stroke-width="0" points="352,-78.5 352,-103 406,-103 406,-78.5 352,-78.5"/>
<text text-anchor="middle" x="378.62" y="-85.7" font-family="Times,serif" font-size="14.00">None</text>
</g>
<!-- Pickle&#45;&gt;None_5 -->
<g id="edge10" class="edge">
<title>Pickle:f2&#45;&gt;None_5:f1</title>
<path fill="none" stroke="black" d="M375.75,-156C375.75,-142.05 376.5,-126.44 377.28,-113.99"/>
<polygon fill="black" stroke="black" points="380.75,-114.49 377.94,-104.28 373.77,-114.02 380.75,-114.49"/>
<text text-anchor="middle" x="381.3" y="-124.7" font-family="Times,serif" font-size="14.00">R</text>
</g>
</g>
</svg>
