<?xml version="1.0" encoding="UTF-8"?>
<!-- Generator: Adobe Illustrator 27.8.1, SVG Export Plug-In . SVG Version: 6.00 Build 0)  -->
<svg version="1.1" id="Layer_1" xmlns="http://www.w3.org/2000/svg" xmlns:xlink="http://www.w3.org/1999/xlink" x="0px" y="0px" viewBox="0 0 505.94 150" style="enable-background:new 0 0 505.94 150;" xml:space="preserve">
<style type="text/css">
	.st0{fill:#CC0033;}
</style>
<path class="st0" d="M121.11,78.18l2.39-0.9c19.85-7.48,29.49-18.78,29.49-34.54c0-10.92-4.37-19.82-13.34-27.21  c-9.51-7.71-22.59-11.62-38.86-11.62c0,0-92.97-0.01-96.88,0v20.6c0.61,0,4.93,0,11.28,0.01v101.02H3.91v20.56h66.07v-20.56H58.32  V82h23.95l27.4,43.53H94.26v20.56h71.54v-20.56h-13.53L121.11,78.18z M102.24,56.45l-0.06,0.04c-5.1,3.99-12.62,6.01-22.37,6.01  H58.32V24.5c14.64,0,26.5,0,26.5,0c8.28,0,14.72,2.32,19.11,6.86c3.2,3.17,4.83,7.17,4.83,11.91  C108.76,48.37,106.57,52.8,102.24,56.45L102.24,56.45z"/>
<g>
	<path d="M84.83,24.5l-26.51,0V62.5h21.49c9.74,0,17.27-2.02,22.37-6.01l0.06-0.04c4.33-3.64,6.53-8.08,6.53-13.17   c0-4.74-1.63-8.74-4.83-11.91C99.54,26.82,93.1,24.5,84.83,24.5L84.83,24.5z M99.79,53.4l-0.02,0.01   c-4.39,3.44-11.11,5.18-19.96,5.18H62.23V28.41l22.6,0c7.17,0,12.66,1.9,16.3,5.67l0.06,0.06c2.47,2.45,3.67,5.43,3.67,9.13   C104.86,47.19,103.2,50.51,99.79,53.4L99.79,53.4z"/>
	<path d="M154.38,121.62l-27.34-41.53c19.82-8.05,29.86-20.61,29.86-37.35c0-12.15-4.83-22.04-14.79-30.25   C131.89,4.2,117.99,0.01,100.79,0.01L0,0.01v28.38l11.28,0v93.23H0V150h73.89v-28.38H62.23V85.91h17.89l22.48,35.71H90.35V150   h79.35v-28.38H154.38z M165.8,146.09H94.26v-20.56h15.41L82.27,82H58.32v43.53h11.66v20.56H3.91v-20.56h11.28V24.5l-11.28,0V3.91   h96.89c16.27,0,29.35,3.91,38.86,11.62c8.97,7.39,13.34,16.29,13.34,27.21c0,15.77-9.65,27.06-29.49,34.54l-2.39,0.9l31.16,47.35   h13.53V146.09z"/>
</g>
<rect x="198.09" width="3.91" height="150"/>
<g>
	<g>
		<path d="M242.5,121l-4.28-9.58c-1.4-3.13-2.92-6.66-3.38-8.21c0.18,2.05,0.22,5,0.25,7.09l0.14,10.69h-4.86V95.98h5.58l4.79,10.01    c1.26,2.66,2.23,5.29,2.74,7.09c-0.18-1.94-0.36-5.15-0.4-6.88l-0.11-10.22h4.79V121H242.5z"/>
		<path d="M251.07,121V95.98h14.26l-0.65,4.1h-8.5v5.8h7.09v4.1h-7.09v6.7h9.47V121H251.07z"/>
		<path d="M290.95,121.22h-5.51l-2.23-10.19c-0.68-3.06-1.12-6.08-1.19-7.06c-0.11,0.68-0.54,3.78-1.19,6.98l-2.09,10.26h-5.72    l-5.98-25.24h5.33l2.16,9.87c0.94,4.36,1.26,7.7,1.33,8.21c0.11-1.04,0.54-4.57,1.3-7.96l2.23-10.12h5.51l2.3,11.2    c0.47,2.23,1.01,6.19,1.08,6.59c0.07-0.86,0.83-5.87,1.37-8.28l2.05-9.5H297L290.95,121.22z"/>
		<path d="M317.63,120.93c-0.79,0.04-1.84,0.07-3.2,0.07h-7.88V95.98H315c3.06,0,4.64,0.47,6.16,1.8c1.4,1.22,2.05,2.66,2.05,4.46    c0,1.69-0.58,3.13-1.69,4.18c-0.72,0.68-1.15,0.94-2.3,1.3c3.1,0.9,4.97,3.02,4.97,6.3C324.18,117.48,322.02,120.72,317.63,120.93    z M316.51,100.59c-0.43-0.18-0.97-0.32-2.09-0.32h-2.88v5.72h2.95c1.19,0,1.73-0.11,2.16-0.32c0.68-0.36,1.3-1.55,1.3-2.56    C317.95,102.07,317.41,100.95,316.51,100.59z M316.66,110.35c-0.61-0.18-1.01-0.22-1.94-0.22h-3.13v6.77h3.28    c1.04,0,1.8-0.14,2.34-0.58c0.76-0.58,1.3-1.73,1.3-2.92C318.49,111.97,317.77,110.67,316.66,110.35z"/>
		<path d="M338.62,121c-0.97-1.66-1.37-2.34-2.34-4.1c-2.48-4.5-3.24-5.72-4.14-6.12c-0.25-0.11-0.47-0.18-0.79-0.22V121h-4.93    V95.98h9.32c4.43,0,7.34,2.95,7.34,7.34c0,3.74-2.48,6.84-5.58,6.91c0.5,0.4,0.72,0.61,1.04,1.04c1.3,1.62,5.11,8.14,6.01,9.72    H338.62z M335.99,100.37c-0.58-0.22-1.62-0.36-2.84-0.36h-1.8v6.77h1.69c2.16,0,3.1-0.22,3.78-0.83c0.61-0.58,0.97-1.48,0.97-2.52    C337.79,101.89,337.18,100.81,335.99,100.37z"/>
		<path d="M363.67,116.76c-0.65,1.98-3.1,4.72-8.5,4.72c-3.82,0-6.62-1.15-8.03-3.35c-0.83-1.3-1.08-2.3-1.08-4.72V95.98h5.15v16.45    c0,1.55,0.14,2.45,0.43,2.99c0.58,1.12,1.76,1.73,3.42,1.73c2.2,0,3.6-1.08,3.82-2.92c0.07-0.54,0.07-0.9,0.07-2.23V95.98h5.11    v16.85C364.07,115.21,364.03,115.68,363.67,116.76z"/>
		<path d="M379.48,121l-4.28-9.58c-1.4-3.13-2.92-6.66-3.38-8.21c0.18,2.05,0.22,5,0.25,7.09L372.2,121h-4.86V95.98h5.58l4.79,10.01    c1.26,2.66,2.23,5.29,2.74,7.09c-0.18-1.94-0.36-5.15-0.4-6.88l-0.11-10.22h4.79V121H379.48z"/>
		<path d="M395.6,121.54c-2.84,0-6.01-0.83-8.53-2.27l1.87-3.92c2.34,1.22,4.36,2.02,6.88,2.02c2.88,0,4.39-1.19,4.39-3.42    c0-1.62-1.04-2.63-3.28-3.24l-2.77-0.76c-2.48-0.68-4.03-1.66-4.93-3.17c-0.68-1.12-1.04-2.41-1.04-3.82    c0-4.57,3.67-7.74,8.96-7.74c3.06,0,6.16,0.94,8.35,2.52l-2.38,3.6c-2.27-1.37-3.96-1.91-5.83-1.91c-2.05,0-3.49,1.19-3.49,2.88    c0,1.3,0.68,1.94,2.77,2.52l3.02,0.83c4.1,1.12,6.34,3.74,6.34,7.45C405.94,118.2,401.83,121.54,395.6,121.54z"/>
		<path d="M430.49,121.22h-5.51l-2.23-10.19c-0.68-3.06-1.12-6.08-1.19-7.06c-0.11,0.68-0.54,3.78-1.19,6.98l-2.09,10.26h-5.72    l-5.98-25.24h5.33l2.16,9.87c0.94,4.36,1.26,7.7,1.33,8.21c0.11-1.04,0.54-4.57,1.3-7.96l2.23-10.12h5.51l2.3,11.2    c0.47,2.23,1.01,6.19,1.08,6.59c0.07-0.86,0.83-5.87,1.37-8.28l2.05-9.5h5.29L430.49,121.22z"/>
		<path d="M438.26,121V95.98h5.26V121H438.26z"/>
		<path d="M456.91,121.44c-3.46,0-6.12-1.12-8.17-3.46c-2.02-2.27-3.02-5.29-3.02-8.96c0-3.13,0.54-5.62,1.69-7.78    c1.94-3.64,5.54-5.8,9.58-5.8c2.48,0,4.97,0.79,6.34,1.98l-2.27,3.42c-1.26-0.94-2.59-1.4-4-1.4c-1.69,0-3.35,0.83-4.25,2.16    c-0.97,1.44-1.4,3.53-1.4,6.44c0,3.42,0.29,5.33,1.04,6.7c1.01,1.84,2.66,2.81,4.82,2.81c1.48,0,2.81-0.43,4.28-1.62l2.3,3.17    C461.88,120.72,459.76,121.44,456.91,121.44z"/>
		<path d="M478.58,121l-7.6-13.07V121h-5.15V95.98h5.15v11.41l7.13-11.41h6.19l-7.99,11.59l8.89,13.43H478.58z"/>
	</g>
	<g>
		<path d="M254.78,80.01c-1.94-3.31-2.74-4.68-4.68-8.21c-4.97-9-6.48-11.45-8.28-12.24c-0.5-0.22-0.94-0.36-1.58-0.43v20.88h-9.86    V29.97h18.65c8.86,0,14.69,5.9,14.69,14.69c0,7.49-4.97,13.68-11.16,13.83c1.01,0.79,1.44,1.22,2.09,2.09    c2.59,3.24,10.23,16.27,12.02,19.44H254.78z M249.52,38.75c-1.15-0.43-3.24-0.72-5.69-0.72h-3.6v13.54h3.38    c4.32,0,6.19-0.43,7.56-1.66c1.22-1.15,1.94-2.95,1.94-5.04C253.12,41.78,251.9,39.62,249.52,38.75z"/>
		<path d="M306.33,71.52c-1.3,3.96-6.19,9.43-16.99,9.43c-7.63,0-13.25-2.3-16.06-6.7c-1.66-2.59-2.16-4.61-2.16-9.43V29.97h10.3    v32.91c0,3.1,0.29,4.9,0.86,5.98c1.15,2.23,3.53,3.46,6.84,3.46c4.39,0,7.2-2.16,7.63-5.83c0.14-1.08,0.14-1.8,0.14-4.46V29.97    h10.23v33.7C307.12,68.42,307.05,69.36,306.33,71.52z"/>
		<path d="M346.62,38.32h-11.95v41.69h-10.22V38.32H312.2v-8.35h36.08L346.62,38.32z"/>
		<path d="M370.74,80.59c-7.49,0-13.03-2.45-17.07-7.63c-3.67-4.68-5.33-10.01-5.33-17.5c0-10.58,3.46-18.07,10.44-22.75    c3.67-2.45,7.42-3.53,12.17-3.53c6.05,0,11.52,1.94,15.91,5.76l-5.33,6.26c-3.24-2.66-6.62-3.89-10.44-3.89    c-2.95,0-5.47,0.86-7.2,2.52c-3.38,3.24-4.25,8.64-4.25,16.13c0,7.13,1.22,11.74,3.74,14.26c1.87,1.8,4.61,2.81,7.85,2.81    c2.23,0,4.03-0.36,5.69-1.22V60.43h-7.63l-1.3-8.21h19.37v23.91C382.26,79.15,376.64,80.59,370.74,80.59z"/>
		<path d="M394.78,80.01V29.97h28.51l-1.3,8.21h-16.99v11.59h14.19v8.21h-14.19v13.39h18.94v8.64H394.78z"/>
		<path d="M454.69,80.01c-1.94-3.31-2.74-4.68-4.68-8.21c-4.97-9-6.48-11.45-8.28-12.24c-0.5-0.22-0.94-0.36-1.58-0.43v20.88h-9.86    V29.97h18.65c8.86,0,14.69,5.9,14.69,14.69c0,7.49-4.97,13.68-11.16,13.83c1.01,0.79,1.44,1.22,2.09,2.09    c2.59,3.24,10.23,16.27,12.02,19.44H454.69z M449.43,38.75c-1.15-0.43-3.24-0.72-5.69-0.72h-3.6v13.54h3.38    c4.32,0,6.19-0.43,7.56-1.66c1.22-1.15,1.94-2.95,1.94-5.04C453.03,41.78,451.81,39.62,449.43,38.75z"/>
		<path d="M485.27,81.09c-5.69,0-12.02-1.66-17.07-4.54l3.74-7.85c4.68,2.45,8.71,4.03,13.75,4.03c5.76,0,8.78-2.38,8.78-6.84    c0-3.24-2.09-5.26-6.55-6.48l-5.54-1.51c-4.97-1.37-8.06-3.31-9.86-6.34c-1.37-2.23-2.09-4.82-2.09-7.63    c0-9.14,7.34-15.48,17.93-15.48c6.12,0,12.31,1.87,16.71,5.04l-4.75,7.2c-4.54-2.74-7.92-3.82-11.66-3.82    c-4.1,0-6.98,2.38-6.98,5.76c0,2.59,1.37,3.89,5.54,5.04l6.05,1.66c8.21,2.23,12.67,7.49,12.67,14.91    C505.94,74.4,497.73,81.09,485.27,81.09z"/>
	</g>
</g>
</svg>