<?xml version="1.0" encoding="UTF-8" standalone="no"?>
<!-- Created with Inkscape (http://www.inkscape.org/) -->

<svg
   width="123.00195mm"
   height="33.653629mm"
   viewBox="0 0 123.00195 33.653629"
   version="1.1"
   id="svg1"
   inkscape:version="1.3.2 (091e20e, 2023-11-25)"
   sodipodi:docname="rsa.svg"
   xmlns:inkscape="http://www.inkscape.org/namespaces/inkscape"
   xmlns:sodipodi="http://sodipodi.sourceforge.net/DTD/sodipodi-0.dtd"
   xmlns="http://www.w3.org/2000/svg"
   xmlns:svg="http://www.w3.org/2000/svg">
  <sodipodi:namedview
     id="namedview1"
     pagecolor="#ffffff"
     bordercolor="#000000"
     borderopacity="0.25"
     inkscape:showpageshadow="2"
     inkscape:pageopacity="0.0"
     inkscape:pagecheckerboard="0"
     inkscape:deskcolor="#d1d1d1"
     inkscape:document-units="mm"
     inkscape:zoom="0.2102413"
     inkscape:cx="233.06553"
     inkscape:cy="61.833711"
     inkscape:window-width="1312"
     inkscape:window-height="449"
     inkscape:window-x="0"
     inkscape:window-y="38"
     inkscape:window-maximized="0"
     inkscape:current-layer="layer1" />
  <defs
     id="defs1" />
  <g
     inkscape:label="Layer 1"
     inkscape:groupmode="layer"
     id="layer1"
     transform="translate(-43.030432,-131.78719)">
    <path
       fill-rule="nonzero"
       fill="#fee4b3"
       fill-opacity="1"
       d="m 135.9159,151.51987 h 10.39868 v -7.77903 H 135.9159 v 7.77903"
       id="path246"
       style="stroke-width:0.352778" />
    <path
       fill="none"
       stroke-width="0.144198"
       stroke-linecap="butt"
       stroke-linejoin="miter"
       stroke="#f58220"
       stroke-opacity="1"
       stroke-miterlimit="4"
       d="m 135.91592,151.51985 h 10.39867 v -7.77903 h -10.39867 z m 0,0"
       id="path247" />
    <path
       fill-rule="evenodd"
       fill="#231f20"
       fill-opacity="1"
       d="m 63.049381,147.62967 -3.042708,0.89986 0.953601,-0.89986 -0.953601,-0.89848 3.042708,0.89848"
       id="path248"
       style="stroke-width:0.352778" />
    <path
       fill="none"
       stroke-width="0.144198"
       stroke-linecap="butt"
       stroke-linejoin="miter"
       stroke="#231f20"
       stroke-opacity="1"
       stroke-miterlimit="4"
       d="M 47.360421,147.62965 H 61.03883"
       id="path249" />
    <g
       fill="#231f20"
       fill-opacity="1"
       id="g250"
       transform="matrix(0.35277777,0,0,0.35277777,-17.304025,102.86272)">
      <g
         id="use249"
         transform="translate(434.32501,111)">
        <path
           d="m 2.328125,-4.53125 c 0.226563,0 0.441406,0.054688 0.640625,0.15625 0.125,0.0625 0.25,0.152344 0.375,0.265625 V -5.625 c 0,-0.195312 -0.027344,-0.332031 -0.078125,-0.40625 C 3.222656,-6.101562 3.125,-6.140625 2.96875,-6.140625 c -0.042969,0 -0.078125,0 -0.109375,0 -0.023437,0 -0.085937,0.00781 -0.1875,0.015625 V -6.28125 L 3.0625,-6.375 C 3.207031,-6.414062 3.351562,-6.457031 3.5,-6.5 3.644531,-6.539062 3.769531,-6.582031 3.875,-6.625 3.925781,-6.63281 4.007812,-6.660156 4.125,-6.703125 h 0.03125 v 0.5 c -0.011719,0.1875 -0.015625,0.382813 -0.015625,0.578125 0,0.1875 0,0.375 0,0.5625 L 4.125,-1.140625 c 0,0.210937 0.023438,0.355469 0.078125,0.4375 0.050781,0.085937 0.1875,0.125 0.40625,0.125 0.039063,0 0.078125,0 0.109375,0 0.03125,0 0.066406,-0.003906 0.109375,-0.015625 V -0.4375 C 4.804688,-0.425781 4.570312,-0.34375 4.125,-0.1875 L 3.375,0.09375 3.34375,0.046875 v -0.59375 C 3.164062,-0.347656 3.007812,-0.207031 2.875,-0.125 2.644531,0.0195312 2.375,0.09375 2.0625,0.09375 c -0.542969,0 -0.984375,-0.207031 -1.328125,-0.625 -0.335937,-0.425781 -0.5,-0.914062 -0.5,-1.46875 0,-0.695312 0.203125,-1.289062 0.609375,-1.78125 0.40625,-0.5 0.898438,-0.75 1.484375,-0.75 z M 2.5,-0.421875 c 0.25,0 0.453125,-0.070313 0.609375,-0.21875 C 3.265625,-0.796875 3.34375,-0.9375 3.34375,-1.0625 V -3.125 C 3.34375,-3.539062 3.226562,-3.832031 3,-4 2.78125,-4.175781 2.566406,-4.265625 2.359375,-4.265625 c -0.40625,0 -0.726563,0.183594 -0.953125,0.546875 -0.21875,0.355469 -0.328125,0.792969 -0.328125,1.3125 0,0.511719 0.117187,0.96875 0.359375,1.375 0.238281,0.40625 0.59375,0.609375 1.0625,0.609375 z m 0,0"
           id="path67" />
      </g>
      <g
         id="use250"
         transform="translate(439.24124,111)">
        <path
           d="m 2.25,-4.5 c 0.445312,0 0.835938,0.15625 1.171875,0.46875 0.34375,0.3125 0.515625,0.757812 0.515625,1.328125 H 0.890625 c 0.039063,0.742187 0.210937,1.28125 0.515625,1.625 0.300781,0.335937 0.660156,0.5 1.078125,0.5 0.332031,0 0.613281,-0.085937 0.84375,-0.265625 0.226563,-0.175781 0.441406,-0.425781 0.640625,-0.75 l 0.171875,0.0625 c -0.136719,0.40625 -0.386719,0.78125 -0.75,1.125 -0.355469,0.34375 -0.792969,0.515625 -1.3125,0.515625 -0.605469,0 -1.074219,-0.222656 -1.40625,-0.671875 C 0.347656,-1.019531 0.1875,-1.546875 0.1875,-2.140625 c 0,-0.632813 0.1875,-1.1875 0.5625,-1.65625 C 1.132812,-4.265625 1.632812,-4.5 2.25,-4.5 Z m -0.28125,0.34375 c -0.367188,0 -0.640625,0.164062 -0.828125,0.484375 -0.105469,0.179687 -0.179687,0.398437 -0.21875,0.65625 H 2.9375 C 2.90625,-3.335938 2.847656,-3.578125 2.765625,-3.734375 2.609375,-4.015625 2.34375,-4.15625 1.96875,-4.15625 Z M 2.1875,-4.5 Z m 0,0"
           id="path60" />
      </g>
    </g>
    <g
       fill="#231f20"
       fill-opacity="1"
       id="g251"
       transform="matrix(0.35277777,0,0,0.35277777,-17.304025,102.86272)">
      <g
         id="use251"
         transform="translate(443.60532,111)">
        <path
           d="m 2.4375,-4.53125 c 0.40625,0 0.75,0.105469 1.03125,0.3125 0.289062,0.210938 0.4375,0.4375 0.4375,0.6875 0,0.105469 -0.039062,0.203125 -0.109375,0.296875 -0.074219,0.085937 -0.1875,0.125 -0.34375,0.125 C 3.347656,-3.109375 3.25,-3.144531 3.15625,-3.21875 3.070312,-3.289062 3.015625,-3.40625 2.984375,-3.5625 l -0.0625,-0.21875 C 2.878906,-3.957031 2.804688,-4.078125 2.703125,-4.140625 2.597656,-4.210938 2.460938,-4.25 2.296875,-4.25 c -0.375,0 -0.6875,0.164062 -0.9375,0.484375 -0.25,0.3125 -0.375,0.734375 -0.375,1.265625 0,0.480469 0.132813,0.914062 0.40625,1.296875 0.28125,0.386719 0.660156,0.578125 1.140625,0.578125 0.320312,0 0.613281,-0.109375 0.875,-0.328125 0.144531,-0.125 0.3125,-0.320313 0.5,-0.59375 L 4.046875,-1.46875 C 3.859375,-1.082031 3.664062,-0.773438 3.46875,-0.546875 3.082031,-0.117188 2.632812,0.09375 2.125,0.09375 1.625,0.09375 1.179688,-0.101562 0.796875,-0.5 0.410156,-0.894531 0.21875,-1.429688 0.21875,-2.109375 c 0,-0.65625 0.207031,-1.222656 0.625,-1.703125 0.425781,-0.476562 0.957031,-0.71875 1.59375,-0.71875 z m -0.203125,0 z m 0,0"
           id="path38" />
      </g>
    </g>
    <g
       fill="#231f20"
       fill-opacity="1"
       id="g255"
       transform="matrix(0.35277777,0,0,0.35277777,-17.304025,102.86272)">
      <g
         id="use252"
         transform="translate(447.96899,111)">
        <path
           d="M 0.046875,-0.15625 C 0.335938,-0.1875 0.53125,-0.238281 0.625,-0.3125 c 0.09375,-0.082031 0.140625,-0.25 0.140625,-0.5 v -2.171875 c 0,-0.3125 -0.03125,-0.535156 -0.09375,-0.671875 -0.054687,-0.132812 -0.15625,-0.203125 -0.3125,-0.203125 -0.03125,0 -0.074219,0.00781 -0.125,0.015625 -0.054687,0 -0.109375,0.011719 -0.171875,0.03125 v -0.171875 c 0.1875,-0.0625 0.375,-0.125 0.5625,-0.1875 0.195312,-0.070313 0.332031,-0.117187 0.40625,-0.140625 0.15625,-0.0625 0.316406,-0.132812 0.484375,-0.21875 0.03125,0 0.046875,0.011719 0.046875,0.03125 0,0.011719 0,0.042969 0,0.09375 v 0.796875 C 1.769531,-3.898438 1.96875,-4.125 2.15625,-4.28125 2.351562,-4.4375 2.550781,-4.515625 2.75,-4.515625 c 0.164062,0 0.300781,0.046875 0.40625,0.140625 0.101562,0.09375 0.15625,0.21875 0.15625,0.375 0,0.125 -0.042969,0.234375 -0.125,0.328125 -0.074219,0.085937 -0.171875,0.125 -0.296875,0.125 -0.117187,0 -0.234375,-0.050781 -0.359375,-0.15625 C 2.40625,-3.816406 2.304688,-3.875 2.234375,-3.875 c -0.117187,0 -0.257813,0.09375 -0.421875,0.28125 -0.15625,0.179688 -0.234375,0.359375 -0.234375,0.546875 v 2.15625 c 0,0.28125 0.0625,0.476563 0.1875,0.578125 0.132813,0.105469 0.347656,0.15625 0.640625,0.15625 V 0 H 0.046875 Z m 0,0"
           id="path34" />
      </g>
      <g
         id="use253"
         transform="translate(451.24323,111)">
        <path
           d="M 0.140625,-4.40625 H 2.15625 v 0.140625 C 2,-4.253906 1.878906,-4.238281 1.796875,-4.21875 c -0.148437,0.042969 -0.21875,0.125 -0.21875,0.25 0,0.042969 0.00391,0.089844 0.015625,0.140625 0.019531,0.042969 0.050781,0.109375 0.09375,0.203125 l 1.125,2.484375 0.90625,-2.5 C 3.726562,-3.671875 3.742188,-3.726562 3.765625,-3.8125 3.785156,-3.90625 3.796875,-3.96875 3.796875,-4 c 0,-0.082031 -0.03125,-0.144531 -0.09375,-0.1875 C 3.648438,-4.226562 3.578125,-4.25 3.484375,-4.25 L 3.34375,-4.265625 V -4.40625 h 1.3125 v 0.140625 C 4.53125,-4.242188 4.429688,-4.195312 4.359375,-4.125 4.296875,-4.050781 4.238281,-3.945312 4.1875,-3.8125 l -1.5,4 C 2.425781,0.875 2.171875,1.375 1.921875,1.6875 1.679688,2 1.378906,2.15625 1.015625,2.15625 c -0.179687,0 -0.34375,-0.046875 -0.5,-0.140625 C 0.359375,1.921875 0.28125,1.78125 0.28125,1.59375 0.28125,1.457031 0.328125,1.347656 0.421875,1.265625 0.515625,1.191406 0.632812,1.15625 0.78125,1.15625 c 0.082031,0 0.203125,0.023438 0.359375,0.078125 0.164063,0.0625 0.285156,0.09375 0.359375,0.09375 0.175781,0 0.363281,-0.210937 0.5625,-0.625 0.195312,-0.40625 0.296875,-0.6835938 0.296875,-0.828125 0,-0.03125 -0.00781,-0.066406 -0.015625,-0.109375 0,-0.039063 -0.011719,-0.078125 -0.03125,-0.109375 L 0.78125,-3.65625 C 0.675781,-3.894531 0.582031,-4.050781 0.5,-4.125 0.414062,-4.207031 0.296875,-4.257812 0.140625,-4.28125 Z M 2.421875,-4.5 Z m 0,0"
           id="path27" />
      </g>
      <g
         id="use254"
         transform="translate(456.15945,111)">
        <path
           d="m 1.5625,-0.890625 c 0.082031,0.21875 0.207031,0.386719 0.375,0.5 0.164062,0.105469 0.363281,0.15625 0.59375,0.15625 0.34375,0 0.632812,-0.171875 0.875,-0.515625 0.25,-0.34375 0.375,-0.820312 0.375,-1.4375 0,-0.59375 -0.132812,-1.03125 -0.390625,-1.3125 -0.25,-0.289062 -0.542969,-0.4375 -0.875,-0.4375 -0.242187,0 -0.460937,0.074219 -0.65625,0.21875 C 1.660156,-3.582031 1.5625,-3.441406 1.5625,-3.296875 Z m -1.515625,2.875 c 0.300781,-0.023437 0.488281,-0.089844 0.5625,-0.203125 0.082031,-0.105469 0.125,-0.273438 0.125,-0.5 v -4.609375 c 0,-0.238281 -0.03125,-0.394531 -0.09375,-0.46875 C 0.585938,-3.867188 0.476562,-3.90625 0.3125,-3.90625 c -0.03125,0 -0.0625,0.00781 -0.09375,0.015625 -0.03125,0 -0.074219,0.00781 -0.125,0.015625 V -4.03125 L 0.546875,-4.1875 c 0.007813,0 0.328125,-0.109375 0.953125,-0.328125 0.019531,0 0.035156,0.011719 0.046875,0.03125 0.00781,0.011719 0.015625,0.027344 0.015625,0.046875 v 0.640625 C 1.769531,-4.003906 1.953125,-4.160156 2.109375,-4.265625 2.398438,-4.441406 2.695312,-4.53125 3,-4.53125 c 0.4375,0 0.8125,0.1875 1.125,0.5625 0.320312,0.375 0.484375,0.890625 0.484375,1.546875 0,0.636719 -0.195313,1.214844 -0.578125,1.734375 -0.375,0.523438 -0.855469,0.78125 -1.4375,0.78125 -0.179688,0 -0.328125,-0.0234375 -0.453125,-0.0625 C 1.929688,-0.0390625 1.738281,-0.164062 1.5625,-0.34375 v 1.578125 c 0,0.320313 0.050781,0.519531 0.15625,0.59375 0.113281,0.070313 0.347656,0.117187 0.703125,0.140625 v 0.171875 h -2.375 z m 0,0"
           id="path23" />
      </g>
      <g
         id="use255"
         transform="translate(461.07571,111)">
        <path
           d="m 2.5,-4.421875 v 0.34375 H 1.515625 V -1.3125 c 0,0.242188 0.019531,0.421875 0.0625,0.546875 0.070313,0.21875 0.222656,0.328125 0.453125,0.328125 0.113281,0 0.210938,-0.023438 0.296875,-0.078125 0.082031,-0.050781 0.175781,-0.132813 0.28125,-0.25 l 0.125,0.09375 -0.09375,0.15625 c -0.167969,0.21875 -0.34375,0.375 -0.53125,0.46875 -0.1875,0.09375 -0.371094,0.140625 -0.546875,0.140625 -0.375,0 -0.632812,-0.1640625 -0.765625,-0.5 C 0.722656,-0.59375 0.6875,-0.847656 0.6875,-1.171875 v -2.90625 H 0.171875 C 0.148438,-4.085938 0.132812,-4.097656 0.125,-4.109375 c 0,-0.00781 0,-0.019531 0,-0.03125 0,-0.03125 0.003906,-0.054687 0.015625,-0.078125 0.007813,-0.019531 0.054687,-0.0625 0.140625,-0.125 C 0.5,-4.519531 0.65625,-4.664062 0.75,-4.78125 0.851562,-4.894531 1.082031,-5.195312 1.4375,-5.6875 c 0.039062,0 0.066406,0.00781 0.078125,0.015625 0.00781,0 0.015625,0.023437 0.015625,0.0625 v 1.1875 z m 0,0"
           id="path20" />
      </g>
    </g>
    <g
       fill="#231f20"
       fill-opacity="1"
       id="g256"
       transform="matrix(0.35277777,0,0,0.35277777,-17.304025,102.86272)">
      <g
         id="use256"
         transform="translate(298.57501,99.974998)">
        <path
           d="m 2.4375,-4.53125 c 0.40625,0 0.75,0.105469 1.03125,0.3125 0.289062,0.210938 0.4375,0.4375 0.4375,0.6875 0,0.105469 -0.039062,0.203125 -0.109375,0.296875 -0.074219,0.085937 -0.1875,0.125 -0.34375,0.125 C 3.347656,-3.109375 3.25,-3.144531 3.15625,-3.21875 3.070312,-3.289062 3.015625,-3.40625 2.984375,-3.5625 l -0.0625,-0.21875 C 2.878906,-3.957031 2.804688,-4.078125 2.703125,-4.140625 2.597656,-4.210938 2.460938,-4.25 2.296875,-4.25 c -0.375,0 -0.6875,0.164062 -0.9375,0.484375 -0.25,0.3125 -0.375,0.734375 -0.375,1.265625 0,0.480469 0.132813,0.914062 0.40625,1.296875 0.28125,0.386719 0.660156,0.578125 1.140625,0.578125 0.320312,0 0.613281,-0.109375 0.875,-0.328125 0.144531,-0.125 0.3125,-0.320313 0.5,-0.59375 L 4.046875,-1.46875 C 3.859375,-1.082031 3.664062,-0.773438 3.46875,-0.546875 3.082031,-0.117188 2.632812,0.09375 2.125,0.09375 1.625,0.09375 1.179688,-0.101562 0.796875,-0.5 0.410156,-0.894531 0.21875,-1.429688 0.21875,-2.109375 c 0,-0.65625 0.207031,-1.222656 0.625,-1.703125 0.425781,-0.476562 0.957031,-0.71875 1.59375,-0.71875 z m -0.203125,0 z m 0,0"
           id="path39" />
      </g>
    </g>
    <g
       fill="#231f20"
       fill-opacity="1"
       id="g258"
       transform="matrix(0.35277777,0,0,0.35277777,-17.304025,102.86272)">
      <g
         id="use257"
         transform="translate(302.93906,99.974998)">
        <path
           d="M 0.25,-2.234375 C 0.25,-2.867188 0.453125,-3.40625 0.859375,-3.84375 1.265625,-4.28125 1.785156,-4.5 2.421875,-4.5 c 0.632813,0 1.15625,0.210938 1.5625,0.625 0.414063,0.417969 0.625,0.96875 0.625,1.65625 0,0.636719 -0.203125,1.195312 -0.609375,1.671875 -0.398438,0.46875 -0.914062,0.703125 -1.546875,0.703125 -0.617187,0 -1.136719,-0.2226562 -1.5625,-0.671875 C 0.460938,-0.972656 0.25,-1.546875 0.25,-2.234375 Z M 2.28125,-4.21875 c -0.25,0 -0.46875,0.085938 -0.65625,0.25 -0.324219,0.292969 -0.484375,0.796875 -0.484375,1.515625 0,0.5625 0.128906,1.09375 0.390625,1.59375 0.257812,0.492187 0.617188,0.734375 1.078125,0.734375 0.351563,0 0.625,-0.160156 0.8125,-0.484375 0.195313,-0.332031 0.296875,-0.769531 0.296875,-1.3125 0,-0.550781 -0.125,-1.070313 -0.375,-1.5625 C 3.101562,-3.972656 2.75,-4.21875 2.28125,-4.21875 Z M 2.46875,-4.5 Z m 0,0"
           id="path16" />
      </g>
      <g
         id="use258"
         transform="translate(307.85532,99.974998)">
        <path
           d="m 0.15625,-0.125 c 0.25,-0.019531 0.414062,-0.0625 0.5,-0.125 0.125,-0.09375 0.1875,-0.28125 0.1875,-0.5625 V -3.28125 C 0.84375,-3.519531 0.8125,-3.675781 0.75,-3.75 0.6875,-3.820312 0.585938,-3.859375 0.453125,-3.859375 c -0.074219,0 -0.125,0.00781 -0.15625,0.015625 -0.03125,0 -0.074219,0.011719 -0.125,0.03125 v -0.171875 l 0.34375,-0.125 c 0.125,-0.039063 0.328125,-0.113281 0.609375,-0.21875 0.289062,-0.101563 0.445312,-0.15625 0.46875,-0.15625 0.00781,0 0.015625,0.011719 0.015625,0.03125 C 1.617188,-4.441406 1.625,-4.414062 1.625,-4.375 v 0.640625 c 0.3125,-0.28125 0.582031,-0.472656 0.8125,-0.578125 0.226562,-0.113281 0.46875,-0.171875 0.71875,-0.171875 0.320312,0 0.582031,0.109375 0.78125,0.328125 0.101562,0.125 0.1875,0.292969 0.25,0.5 0.238281,-0.238281 0.445312,-0.414062 0.625,-0.53125 0.300781,-0.195312 0.613281,-0.296875 0.9375,-0.296875 0.507812,0 0.851562,0.210937 1.03125,0.625 0.09375,0.230469 0.140625,0.605469 0.140625,1.125 V -0.75 c 0,0.230469 0.050781,0.386719 0.15625,0.46875 C 7.179688,-0.195312 7.363281,-0.144531 7.625,-0.125 V 0 H 5.453125 V -0.140625 C 5.734375,-0.160156 5.914062,-0.210938 6,-0.296875 6.09375,-0.390625 6.140625,-0.566406 6.140625,-0.828125 V -2.90625 c 0,-0.300781 -0.039063,-0.523438 -0.109375,-0.671875 -0.117188,-0.269531 -0.34375,-0.40625 -0.6875,-0.40625 -0.210938,0 -0.417969,0.074219 -0.625,0.21875 -0.117188,0.074219 -0.261719,0.199219 -0.4375,0.375 V -0.9375 c 0,0.261719 0.046875,0.460938 0.140625,0.59375 C 4.515625,-0.207031 4.707031,-0.132812 5,-0.125 V 0 H 2.796875 V -0.125 C 3.097656,-0.164062 3.289062,-0.238281 3.375,-0.34375 3.457031,-0.457031 3.5,-0.722656 3.5,-1.140625 v -1.34375 c 0,-0.5 -0.03125,-0.84375 -0.09375,-1.03125 -0.105469,-0.3125 -0.328125,-0.46875 -0.671875,-0.46875 -0.199219,0 -0.390625,0.058594 -0.578125,0.171875 -0.1875,0.105469 -0.355469,0.246094 -0.5,0.421875 v 2.625 c 0,0.242187 0.039062,0.40625 0.125,0.5 C 1.875,-0.171875 2.0625,-0.125 2.34375,-0.125 V 0 h -2.1875 z m 0,0"
           id="path14" />
      </g>
    </g>
    <g
       fill="#231f20"
       fill-opacity="1"
       id="g259"
       transform="matrix(0.35277777,0,0,0.35277777,-17.304025,102.86272)">
      <g
         id="use259"
         transform="translate(315.50299,99.974998)">
        <path
           d="m 0.15625,-0.125 c 0.25,-0.019531 0.414062,-0.0625 0.5,-0.125 0.125,-0.09375 0.1875,-0.28125 0.1875,-0.5625 V -3.28125 C 0.84375,-3.519531 0.8125,-3.675781 0.75,-3.75 0.6875,-3.820312 0.585938,-3.859375 0.453125,-3.859375 c -0.074219,0 -0.125,0.00781 -0.15625,0.015625 -0.03125,0 -0.074219,0.011719 -0.125,0.03125 v -0.171875 l 0.34375,-0.125 c 0.125,-0.039063 0.328125,-0.113281 0.609375,-0.21875 0.289062,-0.101563 0.445312,-0.15625 0.46875,-0.15625 0.00781,0 0.015625,0.011719 0.015625,0.03125 C 1.617188,-4.441406 1.625,-4.414062 1.625,-4.375 v 0.640625 c 0.3125,-0.28125 0.582031,-0.472656 0.8125,-0.578125 0.226562,-0.113281 0.46875,-0.171875 0.71875,-0.171875 0.320312,0 0.582031,0.109375 0.78125,0.328125 0.101562,0.125 0.1875,0.292969 0.25,0.5 0.238281,-0.238281 0.445312,-0.414062 0.625,-0.53125 0.300781,-0.195312 0.613281,-0.296875 0.9375,-0.296875 0.507812,0 0.851562,0.210937 1.03125,0.625 0.09375,0.230469 0.140625,0.605469 0.140625,1.125 V -0.75 c 0,0.230469 0.050781,0.386719 0.15625,0.46875 C 7.179688,-0.195312 7.363281,-0.144531 7.625,-0.125 V 0 H 5.453125 V -0.140625 C 5.734375,-0.160156 5.914062,-0.210938 6,-0.296875 6.09375,-0.390625 6.140625,-0.566406 6.140625,-0.828125 V -2.90625 c 0,-0.300781 -0.039063,-0.523438 -0.109375,-0.671875 -0.117188,-0.269531 -0.34375,-0.40625 -0.6875,-0.40625 -0.210938,0 -0.417969,0.074219 -0.625,0.21875 -0.117188,0.074219 -0.261719,0.199219 -0.4375,0.375 V -0.9375 c 0,0.261719 0.046875,0.460938 0.140625,0.59375 C 4.515625,-0.207031 4.707031,-0.132812 5,-0.125 V 0 H 2.796875 V -0.125 C 3.097656,-0.164062 3.289062,-0.238281 3.375,-0.34375 3.457031,-0.457031 3.5,-0.722656 3.5,-1.140625 v -1.34375 c 0,-0.5 -0.03125,-0.84375 -0.09375,-1.03125 -0.105469,-0.3125 -0.328125,-0.46875 -0.671875,-0.46875 -0.199219,0 -0.390625,0.058594 -0.578125,0.171875 -0.1875,0.105469 -0.355469,0.246094 -0.5,0.421875 v 2.625 c 0,0.242187 0.039062,0.40625 0.125,0.5 C 1.875,-0.171875 2.0625,-0.125 2.34375,-0.125 V 0 h -2.1875 z m 0,0"
           id="path15" />
      </g>
    </g>
    <g
       fill="#231f20"
       fill-opacity="1"
       id="g262"
       transform="matrix(0.35277777,0,0,0.35277777,-17.304025,102.86272)">
      <g
         id="use260"
         transform="translate(323.15063,99.974998)">
        <path
           d="m 1.515625,-4.4375 v 3.0625 c 0,0.21875 0.03125,0.398438 0.09375,0.53125 0.125,0.242188 0.34375,0.359375 0.65625,0.359375 0.21875,0 0.429687,-0.070313 0.640625,-0.21875 0.113281,-0.082031 0.234375,-0.191406 0.359375,-0.328125 v -2.625 c 0,-0.25 -0.054687,-0.410156 -0.15625,-0.484375 -0.09375,-0.082031 -0.28125,-0.128906 -0.5625,-0.140625 V -4.4375 H 4.09375 v 3.375 c 0,0.21875 0.035156,0.371094 0.109375,0.453125 0.082031,0.074219 0.25,0.105469 0.5,0.09375 V -0.375 c -0.179687,0.054688 -0.308594,0.089844 -0.390625,0.109375 -0.085938,0.023437 -0.21875,0.0625 -0.40625,0.125 -0.085938,0.03125 -0.265625,0.1054688 -0.546875,0.21875 -0.023437,0 -0.03125,-0.0117188 -0.03125,-0.03125 0,-0.0117188 0,-0.0273438 0,-0.046875 v -0.765625 c -0.21875,0.25 -0.421875,0.4375 -0.609375,0.5625 -0.273438,0.19921875 -0.558594,0.296875 -0.859375,0.296875 -0.28125,0 -0.542969,-0.09765625 -0.78125,-0.296875 -0.25,-0.195313 -0.375,-0.523437 -0.375,-0.984375 v -2.5 c 0,-0.25 -0.058594,-0.414062 -0.171875,-0.5 -0.0625,-0.0625 -0.210938,-0.101562 -0.4375,-0.125 v -0.125 z M 2.46875,-4.5 Z m 0,0"
           id="path13" />
      </g>
      <g
         id="use261"
         transform="translate(328.06689,99.974998)">
        <path
           d="M 0.171875,-0.140625 C 0.398438,-0.160156 0.5625,-0.210938 0.65625,-0.296875 0.75,-0.390625 0.796875,-0.582031 0.796875,-0.875 v -2.4375 c 0,-0.195312 -0.023437,-0.335938 -0.0625,-0.421875 -0.0625,-0.125 -0.1875,-0.1875 -0.375,-0.1875 -0.03125,0 -0.0625,0.00781 -0.09375,0.015625 -0.03125,0 -0.070313,0 -0.109375,0 V -4.0625 c 0.132812,-0.039062 0.445312,-0.140625 0.9375,-0.296875 l 0.453125,-0.15625 c 0.019531,0 0.03125,0.011719 0.03125,0.03125 0.00781,0.011719 0.015625,0.03125 0.015625,0.0625 v 0.703125 c 0.289062,-0.269531 0.519531,-0.457031 0.6875,-0.5625 0.25,-0.15625 0.507812,-0.234375 0.78125,-0.234375 0.21875,0 0.414062,0.0625 0.59375,0.1875 C 4,-4.085938 4.171875,-3.65625 4.171875,-3.03125 v 2.234375 c 0,0.230469 0.046875,0.398437 0.140625,0.5 0.09375,0.105469 0.25,0.15625 0.46875,0.15625 V 0 h -2.0625 v -0.140625 c 0.238281,-0.03125 0.40625,-0.09375 0.5,-0.1875 0.09375,-0.09375 0.140625,-0.304687 0.140625,-0.640625 v -2.046875 c 0,-0.269531 -0.054687,-0.492187 -0.15625,-0.671875 -0.105469,-0.1875 -0.292969,-0.28125 -0.5625,-0.28125 -0.199219,0 -0.390625,0.0625 -0.578125,0.1875 -0.117188,0.074219 -0.257812,0.199219 -0.421875,0.375 v 2.6875 c 0,0.230469 0.046875,0.386719 0.140625,0.46875 0.101562,0.074219 0.269531,0.109375 0.5,0.109375 V 0 H 0.171875 Z m 2.296875,-4.375 z m 0,0"
           id="path8" />
      </g>
      <g
         id="use262"
         transform="translate(332.98312,99.974998)">
        <path
           d="m 0.8125,-6.203125 c 0,-0.132813 0.046875,-0.25 0.140625,-0.34375 0.09375,-0.101563 0.210937,-0.15625 0.359375,-0.15625 0.132812,0 0.25,0.054687 0.34375,0.15625 0.09375,0.09375 0.140625,0.210937 0.140625,0.34375 C 1.796875,-6.054688 1.75,-5.9375 1.65625,-5.84375 1.5625,-5.75 1.445312,-5.703125 1.3125,-5.703125 1.164062,-5.703125 1.046875,-5.75 0.953125,-5.84375 0.859375,-5.9375 0.8125,-6.054688 0.8125,-6.203125 Z m -0.625,6.0625 C 0.53125,-0.171875 0.742188,-0.226562 0.828125,-0.3125 0.921875,-0.394531 0.96875,-0.625 0.96875,-1 v -2.28125 c 0,-0.207031 -0.011719,-0.351562 -0.03125,-0.4375 -0.054688,-0.132812 -0.15625,-0.203125 -0.3125,-0.203125 -0.03125,0 -0.070312,0.00781 -0.109375,0.015625 -0.03125,0.011719 -0.125,0.039062 -0.28125,0.078125 v -0.15625 l 0.203125,-0.0625 c 0.5625,-0.175781 0.953125,-0.3125 1.171875,-0.40625 0.09375,-0.039063 0.148437,-0.0625 0.171875,-0.0625 0.00781,0.023437 0.015625,0.046875 0.015625,0.078125 V -1 c 0,0.367188 0.039063,0.59375 0.125,0.6875 0.09375,0.09375 0.296875,0.152344 0.609375,0.171875 V 0 H 0.1875 Z m 0,0"
           id="path5" />
      </g>
    </g>
    <g
       fill="#231f20"
       fill-opacity="1"
       id="g263"
       transform="matrix(0.35277777,0,0,0.35277777,-17.304025,102.86272)">
      <g
         id="use263"
         transform="translate(335.71478,99.974998)">
        <path
           d="m 2.4375,-4.53125 c 0.40625,0 0.75,0.105469 1.03125,0.3125 0.289062,0.210938 0.4375,0.4375 0.4375,0.6875 0,0.105469 -0.039062,0.203125 -0.109375,0.296875 -0.074219,0.085937 -0.1875,0.125 -0.34375,0.125 C 3.347656,-3.109375 3.25,-3.144531 3.15625,-3.21875 3.070312,-3.289062 3.015625,-3.40625 2.984375,-3.5625 l -0.0625,-0.21875 C 2.878906,-3.957031 2.804688,-4.078125 2.703125,-4.140625 2.597656,-4.210938 2.460938,-4.25 2.296875,-4.25 c -0.375,0 -0.6875,0.164062 -0.9375,0.484375 -0.25,0.3125 -0.375,0.734375 -0.375,1.265625 0,0.480469 0.132813,0.914062 0.40625,1.296875 0.28125,0.386719 0.660156,0.578125 1.140625,0.578125 0.320312,0 0.613281,-0.109375 0.875,-0.328125 0.144531,-0.125 0.3125,-0.320313 0.5,-0.59375 L 4.046875,-1.46875 C 3.859375,-1.082031 3.664062,-0.773438 3.46875,-0.546875 3.082031,-0.117188 2.632812,0.09375 2.125,0.09375 1.625,0.09375 1.179688,-0.101562 0.796875,-0.5 0.410156,-0.894531 0.21875,-1.429688 0.21875,-2.109375 c 0,-0.65625 0.207031,-1.222656 0.625,-1.703125 0.425781,-0.476562 0.957031,-0.71875 1.59375,-0.71875 z m -0.203125,0 z m 0,0"
           id="path40" />
      </g>
    </g>
    <g
       fill="#231f20"
       fill-opacity="1"
       id="g264"
       transform="matrix(0.35277777,0,0,0.35277777,-17.304025,102.86272)">
      <g
         id="use264"
         transform="translate(340.07846,99.974998)">
        <path
           d="m 2.8125,-2.65625 c -0.367188,0.125 -0.667969,0.261719 -0.90625,0.40625 -0.460938,0.28125 -0.6875,0.605469 -0.6875,0.96875 0,0.292969 0.09375,0.507812 0.28125,0.640625 0.125,0.085937 0.265625,0.125 0.421875,0.125 0.207031,0 0.40625,-0.054687 0.59375,-0.171875 C 2.710938,-0.800781 2.8125,-0.953125 2.8125,-1.140625 Z m -2.453125,1.703125 c 0,-0.46875 0.234375,-0.851563 0.703125,-1.15625 0.289062,-0.195313 0.875,-0.460937 1.75,-0.796875 V -3.3125 c 0,-0.320312 -0.03125,-0.546875 -0.09375,-0.671875 C 2.613281,-4.203125 2.390625,-4.3125 2.046875,-4.3125 c -0.167969,0 -0.324219,0.042969 -0.46875,0.125 -0.148437,0.085938 -0.21875,0.203125 -0.21875,0.359375 0,0.042969 0.00391,0.109375 0.015625,0.203125 0.019531,0.085938 0.03125,0.140625 0.03125,0.171875 0,0.179687 -0.058594,0.304687 -0.171875,0.375 -0.074219,0.042969 -0.15625,0.0625 -0.25,0.0625 -0.148437,0 -0.257813,-0.046875 -0.328125,-0.140625 -0.074219,-0.101562 -0.109375,-0.210938 -0.109375,-0.328125 0,-0.21875 0.132813,-0.445313 0.40625,-0.6875 0.28125,-0.25 0.6875,-0.375 1.21875,-0.375 0.625,0 1.046875,0.203125 1.265625,0.609375 0.113281,0.21875 0.171875,0.539062 0.171875,0.953125 V -1.0625 c 0,0.1875 0.015625,0.320312 0.046875,0.390625 0.039062,0.125 0.125,0.1875 0.25,0.1875 0.070312,0 0.132812,-0.007813 0.1875,-0.03125 0.050781,-0.019531 0.132812,-0.078125 0.25,-0.171875 v 0.25 C 4.238281,-0.3125 4.128906,-0.207031 4.015625,-0.125 3.835938,0 3.65625,0.0625 3.46875,0.0625 3.25,0.0625 3.085938,-0.00390625 2.984375,-0.140625 2.890625,-0.285156 2.835938,-0.457031 2.828125,-0.65625 2.585938,-0.445312 2.378906,-0.289062 2.203125,-0.1875 1.910156,-0.0078125 1.632812,0.078125 1.375,0.078125 1.101562,0.078125 0.863281,-0.0195312 0.65625,-0.21875 0.457031,-0.414062 0.359375,-0.660156 0.359375,-0.953125 Z M 2.1875,-4.546875 Z m 0,0"
           id="path1" />
      </g>
    </g>
    <g
       fill="#231f20"
       fill-opacity="1"
       id="g265"
       transform="matrix(0.35277777,0,0,0.35277777,-17.304025,102.86272)">
      <g
         id="use265"
         transform="translate(344.44254,99.974998)">
        <path
           d="m 2.5,-4.421875 v 0.34375 H 1.515625 V -1.3125 c 0,0.242188 0.019531,0.421875 0.0625,0.546875 0.070313,0.21875 0.222656,0.328125 0.453125,0.328125 0.113281,0 0.210938,-0.023438 0.296875,-0.078125 0.082031,-0.050781 0.175781,-0.132813 0.28125,-0.25 l 0.125,0.09375 -0.09375,0.15625 c -0.167969,0.21875 -0.34375,0.375 -0.53125,0.46875 -0.1875,0.09375 -0.371094,0.140625 -0.546875,0.140625 -0.375,0 -0.632812,-0.1640625 -0.765625,-0.5 C 0.722656,-0.59375 0.6875,-0.847656 0.6875,-1.171875 v -2.90625 H 0.171875 C 0.148438,-4.085938 0.132812,-4.097656 0.125,-4.109375 c 0,-0.00781 0,-0.019531 0,-0.03125 0,-0.03125 0.003906,-0.054687 0.015625,-0.078125 0.007813,-0.019531 0.054687,-0.0625 0.140625,-0.125 C 0.5,-4.519531 0.65625,-4.664062 0.75,-4.78125 0.851562,-4.894531 1.082031,-5.195312 1.4375,-5.6875 c 0.039062,0 0.066406,0.00781 0.078125,0.015625 0.00781,0 0.015625,0.023437 0.015625,0.0625 v 1.1875 z m 0,0"
           id="path21" />
      </g>
    </g>
    <g
       fill="#231f20"
       fill-opacity="1"
       id="g266"
       transform="matrix(0.35277777,0,0,0.35277777,-17.304025,102.86272)">
      <g
         id="use266"
         transform="translate(347.17419,99.974998)">
        <path
           d="m 0.8125,-6.203125 c 0,-0.132813 0.046875,-0.25 0.140625,-0.34375 0.09375,-0.101563 0.210937,-0.15625 0.359375,-0.15625 0.132812,0 0.25,0.054687 0.34375,0.15625 0.09375,0.09375 0.140625,0.210937 0.140625,0.34375 C 1.796875,-6.054688 1.75,-5.9375 1.65625,-5.84375 1.5625,-5.75 1.445312,-5.703125 1.3125,-5.703125 1.164062,-5.703125 1.046875,-5.75 0.953125,-5.84375 0.859375,-5.9375 0.8125,-6.054688 0.8125,-6.203125 Z m -0.625,6.0625 C 0.53125,-0.171875 0.742188,-0.226562 0.828125,-0.3125 0.921875,-0.394531 0.96875,-0.625 0.96875,-1 v -2.28125 c 0,-0.207031 -0.011719,-0.351562 -0.03125,-0.4375 -0.054688,-0.132812 -0.15625,-0.203125 -0.3125,-0.203125 -0.03125,0 -0.070312,0.00781 -0.109375,0.015625 -0.03125,0.011719 -0.125,0.039062 -0.28125,0.078125 v -0.15625 l 0.203125,-0.0625 c 0.5625,-0.175781 0.953125,-0.3125 1.171875,-0.40625 0.09375,-0.039063 0.148437,-0.0625 0.171875,-0.0625 0.00781,0.023437 0.015625,0.046875 0.015625,0.078125 V -1 c 0,0.367188 0.039063,0.59375 0.125,0.6875 0.09375,0.09375 0.296875,0.152344 0.609375,0.171875 V 0 H 0.1875 Z m 0,0"
           id="path6" />
      </g>
    </g>
    <g
       fill="#231f20"
       fill-opacity="1"
       id="g270"
       transform="matrix(0.35277777,0,0,0.35277777,-17.304025,102.86272)">
      <g
         id="use267"
         transform="translate(349.90582,99.974998)">
        <path
           d="M 0.25,-2.234375 C 0.25,-2.867188 0.453125,-3.40625 0.859375,-3.84375 1.265625,-4.28125 1.785156,-4.5 2.421875,-4.5 c 0.632813,0 1.15625,0.210938 1.5625,0.625 0.414063,0.417969 0.625,0.96875 0.625,1.65625 0,0.636719 -0.203125,1.195312 -0.609375,1.671875 -0.398438,0.46875 -0.914062,0.703125 -1.546875,0.703125 -0.617187,0 -1.136719,-0.2226562 -1.5625,-0.671875 C 0.460938,-0.972656 0.25,-1.546875 0.25,-2.234375 Z M 2.28125,-4.21875 c -0.25,0 -0.46875,0.085938 -0.65625,0.25 -0.324219,0.292969 -0.484375,0.796875 -0.484375,1.515625 0,0.5625 0.128906,1.09375 0.390625,1.59375 0.257812,0.492187 0.617188,0.734375 1.078125,0.734375 0.351563,0 0.625,-0.160156 0.8125,-0.484375 0.195313,-0.332031 0.296875,-0.769531 0.296875,-1.3125 0,-0.550781 -0.125,-1.070313 -0.375,-1.5625 C 3.101562,-3.972656 2.75,-4.21875 2.28125,-4.21875 Z M 2.46875,-4.5 Z m 0,0"
           id="path17" />
      </g>
      <g
         id="use268"
         transform="translate(354.82208,99.974998)">
        <path
           d="M 0.171875,-0.140625 C 0.398438,-0.160156 0.5625,-0.210938 0.65625,-0.296875 0.75,-0.390625 0.796875,-0.582031 0.796875,-0.875 v -2.4375 c 0,-0.195312 -0.023437,-0.335938 -0.0625,-0.421875 -0.0625,-0.125 -0.1875,-0.1875 -0.375,-0.1875 -0.03125,0 -0.0625,0.00781 -0.09375,0.015625 -0.03125,0 -0.070313,0 -0.109375,0 V -4.0625 c 0.132812,-0.039062 0.445312,-0.140625 0.9375,-0.296875 l 0.453125,-0.15625 c 0.019531,0 0.03125,0.011719 0.03125,0.03125 0.00781,0.011719 0.015625,0.03125 0.015625,0.0625 v 0.703125 c 0.289062,-0.269531 0.519531,-0.457031 0.6875,-0.5625 0.25,-0.15625 0.507812,-0.234375 0.78125,-0.234375 0.21875,0 0.414062,0.0625 0.59375,0.1875 C 4,-4.085938 4.171875,-3.65625 4.171875,-3.03125 v 2.234375 c 0,0.230469 0.046875,0.398437 0.140625,0.5 0.09375,0.105469 0.25,0.15625 0.46875,0.15625 V 0 h -2.0625 v -0.140625 c 0.238281,-0.03125 0.40625,-0.09375 0.5,-0.1875 0.09375,-0.09375 0.140625,-0.304687 0.140625,-0.640625 v -2.046875 c 0,-0.269531 -0.054687,-0.492187 -0.15625,-0.671875 -0.105469,-0.1875 -0.292969,-0.28125 -0.5625,-0.28125 -0.199219,0 -0.390625,0.0625 -0.578125,0.1875 -0.117188,0.074219 -0.257812,0.199219 -0.421875,0.375 v 2.6875 c 0,0.230469 0.046875,0.386719 0.140625,0.46875 0.101562,0.074219 0.269531,0.109375 0.5,0.109375 V 0 H 0.171875 Z m 2.296875,-4.375 z m 0,0"
           id="path9" />
      </g>
      <g
         id="use269"
         transform="translate(359.73834,99.974998)" />
      <g
         id="use270"
         transform="translate(362.19647,99.974998)">
        <path
           d="m 2.4375,-4.53125 c 0.40625,0 0.75,0.105469 1.03125,0.3125 0.289062,0.210938 0.4375,0.4375 0.4375,0.6875 0,0.105469 -0.039062,0.203125 -0.109375,0.296875 -0.074219,0.085937 -0.1875,0.125 -0.34375,0.125 C 3.347656,-3.109375 3.25,-3.144531 3.15625,-3.21875 3.070312,-3.289062 3.015625,-3.40625 2.984375,-3.5625 l -0.0625,-0.21875 C 2.878906,-3.957031 2.804688,-4.078125 2.703125,-4.140625 2.597656,-4.210938 2.460938,-4.25 2.296875,-4.25 c -0.375,0 -0.6875,0.164062 -0.9375,0.484375 -0.25,0.3125 -0.375,0.734375 -0.375,1.265625 0,0.480469 0.132813,0.914062 0.40625,1.296875 0.28125,0.386719 0.660156,0.578125 1.140625,0.578125 0.320312,0 0.613281,-0.109375 0.875,-0.328125 0.144531,-0.125 0.3125,-0.320313 0.5,-0.59375 L 4.046875,-1.46875 C 3.859375,-1.082031 3.664062,-0.773438 3.46875,-0.546875 3.082031,-0.117188 2.632812,0.09375 2.125,0.09375 1.625,0.09375 1.179688,-0.101562 0.796875,-0.5 0.410156,-0.894531 0.21875,-1.429688 0.21875,-2.109375 c 0,-0.65625 0.207031,-1.222656 0.625,-1.703125 0.425781,-0.476562 0.957031,-0.71875 1.59375,-0.71875 z m -0.203125,0 z m 0,0"
           id="path57" />
      </g>
    </g>
    <g
       fill="#231f20"
       fill-opacity="1"
       id="g272"
       transform="matrix(0.35277777,0,0,0.35277777,-17.304025,102.86272)">
      <g
         id="use271"
         transform="translate(366.56015,99.974998)">
        <path
           d="m 0.09375,-0.140625 c 0.257812,-0.03125 0.425781,-0.09375 0.5,-0.1875 C 0.675781,-0.421875 0.71875,-0.644531 0.71875,-1 V -5.609375 C 0.71875,-5.785156 0.691406,-5.914062 0.640625,-6 0.597656,-6.082031 0.488281,-6.125 0.3125,-6.125 c -0.03125,0 -0.070312,0.00781 -0.109375,0.015625 -0.03125,0 -0.070313,0 -0.109375,0 V -6.28125 C 0.238281,-6.320312 0.414062,-6.367188 0.625,-6.421875 0.832031,-6.484375 0.972656,-6.53125 1.046875,-6.5625 l 0.46875,-0.140625 V -3.71875 C 1.722656,-3.945312 1.90625,-4.117188 2.0625,-4.234375 c 0.28125,-0.1875 0.582031,-0.28125 0.90625,-0.28125 0.519531,0 0.875,0.21875 1.0625,0.65625 0.101562,0.230469 0.15625,0.53125 0.15625,0.90625 V -1 c 0,0.34375 0.035156,0.570312 0.109375,0.671875 0.082031,0.09375 0.242187,0.15625 0.484375,0.1875 V 0 H 2.703125 v -0.140625 c 0.28125,-0.03125 0.457031,-0.09375 0.53125,-0.1875 0.082031,-0.09375 0.125,-0.316406 0.125,-0.671875 v -1.9375 c 0,-0.3125 -0.054687,-0.5625 -0.15625,-0.75 C 3.097656,-3.882812 2.90625,-3.984375 2.625,-3.984375 c -0.25,0 -0.496094,0.089844 -0.734375,0.265625 -0.230469,0.179688 -0.34375,0.296875 -0.34375,0.359375 V -1 c 0,0.367188 0.039063,0.59375 0.125,0.6875 0.082031,0.085938 0.257813,0.140625 0.53125,0.171875 V 0 H 0.09375 Z m 0,0"
           id="path76" />
      </g>
      <g
         id="use272"
         transform="translate(371.47638,99.974998)">
        <path
           d="m 2.8125,-2.65625 c -0.367188,0.125 -0.667969,0.261719 -0.90625,0.40625 -0.460938,0.28125 -0.6875,0.605469 -0.6875,0.96875 0,0.292969 0.09375,0.507812 0.28125,0.640625 0.125,0.085937 0.265625,0.125 0.421875,0.125 0.207031,0 0.40625,-0.054687 0.59375,-0.171875 C 2.710938,-0.800781 2.8125,-0.953125 2.8125,-1.140625 Z m -2.453125,1.703125 c 0,-0.46875 0.234375,-0.851563 0.703125,-1.15625 0.289062,-0.195313 0.875,-0.460937 1.75,-0.796875 V -3.3125 c 0,-0.320312 -0.03125,-0.546875 -0.09375,-0.671875 C 2.613281,-4.203125 2.390625,-4.3125 2.046875,-4.3125 c -0.167969,0 -0.324219,0.042969 -0.46875,0.125 -0.148437,0.085938 -0.21875,0.203125 -0.21875,0.359375 0,0.042969 0.00391,0.109375 0.015625,0.203125 0.019531,0.085938 0.03125,0.140625 0.03125,0.171875 0,0.179687 -0.058594,0.304687 -0.171875,0.375 -0.074219,0.042969 -0.15625,0.0625 -0.25,0.0625 -0.148437,0 -0.257813,-0.046875 -0.328125,-0.140625 -0.074219,-0.101562 -0.109375,-0.210938 -0.109375,-0.328125 0,-0.21875 0.132813,-0.445313 0.40625,-0.6875 0.28125,-0.25 0.6875,-0.375 1.21875,-0.375 0.625,0 1.046875,0.203125 1.265625,0.609375 0.113281,0.21875 0.171875,0.539062 0.171875,0.953125 V -1.0625 c 0,0.1875 0.015625,0.320312 0.046875,0.390625 0.039062,0.125 0.125,0.1875 0.25,0.1875 0.070312,0 0.132812,-0.007813 0.1875,-0.03125 0.050781,-0.019531 0.132812,-0.078125 0.25,-0.171875 v 0.25 C 4.238281,-0.3125 4.128906,-0.207031 4.015625,-0.125 3.835938,0 3.65625,0.0625 3.46875,0.0625 3.25,0.0625 3.085938,-0.00390625 2.984375,-0.140625 2.890625,-0.285156 2.835938,-0.457031 2.828125,-0.65625 2.585938,-0.445312 2.378906,-0.289062 2.203125,-0.1875 1.910156,-0.0078125 1.632812,0.078125 1.375,0.078125 1.101562,0.078125 0.863281,-0.0195312 0.65625,-0.21875 0.457031,-0.414062 0.359375,-0.660156 0.359375,-0.953125 Z M 2.1875,-4.546875 Z m 0,0"
           id="path3" />
      </g>
    </g>
    <g
       fill="#231f20"
       fill-opacity="1"
       id="g275"
       transform="matrix(0.35277777,0,0,0.35277777,-17.304025,102.86272)">
      <g
         id="use273"
         transform="translate(375.84045,99.974998)">
        <path
           d="M 0.171875,-0.140625 C 0.398438,-0.160156 0.5625,-0.210938 0.65625,-0.296875 0.75,-0.390625 0.796875,-0.582031 0.796875,-0.875 v -2.4375 c 0,-0.195312 -0.023437,-0.335938 -0.0625,-0.421875 -0.0625,-0.125 -0.1875,-0.1875 -0.375,-0.1875 -0.03125,0 -0.0625,0.00781 -0.09375,0.015625 -0.03125,0 -0.070313,0 -0.109375,0 V -4.0625 c 0.132812,-0.039062 0.445312,-0.140625 0.9375,-0.296875 l 0.453125,-0.15625 c 0.019531,0 0.03125,0.011719 0.03125,0.03125 0.00781,0.011719 0.015625,0.03125 0.015625,0.0625 v 0.703125 c 0.289062,-0.269531 0.519531,-0.457031 0.6875,-0.5625 0.25,-0.15625 0.507812,-0.234375 0.78125,-0.234375 0.21875,0 0.414062,0.0625 0.59375,0.1875 C 4,-4.085938 4.171875,-3.65625 4.171875,-3.03125 v 2.234375 c 0,0.230469 0.046875,0.398437 0.140625,0.5 0.09375,0.105469 0.25,0.15625 0.46875,0.15625 V 0 h -2.0625 v -0.140625 c 0.238281,-0.03125 0.40625,-0.09375 0.5,-0.1875 0.09375,-0.09375 0.140625,-0.304687 0.140625,-0.640625 v -2.046875 c 0,-0.269531 -0.054687,-0.492187 -0.15625,-0.671875 -0.105469,-0.1875 -0.292969,-0.28125 -0.5625,-0.28125 -0.199219,0 -0.390625,0.0625 -0.578125,0.1875 -0.117188,0.074219 -0.257812,0.199219 -0.421875,0.375 v 2.6875 c 0,0.230469 0.046875,0.386719 0.140625,0.46875 0.101562,0.074219 0.269531,0.109375 0.5,0.109375 V 0 H 0.171875 Z m 2.296875,-4.375 z m 0,0"
           id="path10" />
      </g>
      <g
         id="use274"
         transform="translate(380.75671,99.974998)">
        <path
           d="M 0.171875,-0.140625 C 0.398438,-0.160156 0.5625,-0.210938 0.65625,-0.296875 0.75,-0.390625 0.796875,-0.582031 0.796875,-0.875 v -2.4375 c 0,-0.195312 -0.023437,-0.335938 -0.0625,-0.421875 -0.0625,-0.125 -0.1875,-0.1875 -0.375,-0.1875 -0.03125,0 -0.0625,0.00781 -0.09375,0.015625 -0.03125,0 -0.070313,0 -0.109375,0 V -4.0625 c 0.132812,-0.039062 0.445312,-0.140625 0.9375,-0.296875 l 0.453125,-0.15625 c 0.019531,0 0.03125,0.011719 0.03125,0.03125 0.00781,0.011719 0.015625,0.03125 0.015625,0.0625 v 0.703125 c 0.289062,-0.269531 0.519531,-0.457031 0.6875,-0.5625 0.25,-0.15625 0.507812,-0.234375 0.78125,-0.234375 0.21875,0 0.414062,0.0625 0.59375,0.1875 C 4,-4.085938 4.171875,-3.65625 4.171875,-3.03125 v 2.234375 c 0,0.230469 0.046875,0.398437 0.140625,0.5 0.09375,0.105469 0.25,0.15625 0.46875,0.15625 V 0 h -2.0625 v -0.140625 c 0.238281,-0.03125 0.40625,-0.09375 0.5,-0.1875 0.09375,-0.09375 0.140625,-0.304687 0.140625,-0.640625 v -2.046875 c 0,-0.269531 -0.054687,-0.492187 -0.15625,-0.671875 -0.105469,-0.1875 -0.292969,-0.28125 -0.5625,-0.28125 -0.199219,0 -0.390625,0.0625 -0.578125,0.1875 -0.117188,0.074219 -0.257812,0.199219 -0.421875,0.375 v 2.6875 c 0,0.230469 0.046875,0.386719 0.140625,0.46875 0.101562,0.074219 0.269531,0.109375 0.5,0.109375 V 0 H 0.171875 Z m 2.296875,-4.375 z m 0,0"
           id="path11" />
      </g>
      <g
         id="use275"
         transform="translate(385.67294,99.974998)">
        <path
           d="m 2.25,-4.5 c 0.445312,0 0.835938,0.15625 1.171875,0.46875 0.34375,0.3125 0.515625,0.757812 0.515625,1.328125 H 0.890625 c 0.039063,0.742187 0.210937,1.28125 0.515625,1.625 0.300781,0.335937 0.660156,0.5 1.078125,0.5 0.332031,0 0.613281,-0.085937 0.84375,-0.265625 0.226563,-0.175781 0.441406,-0.425781 0.640625,-0.75 l 0.171875,0.0625 c -0.136719,0.40625 -0.386719,0.78125 -0.75,1.125 -0.355469,0.34375 -0.792969,0.515625 -1.3125,0.515625 -0.605469,0 -1.074219,-0.222656 -1.40625,-0.671875 C 0.347656,-1.019531 0.1875,-1.546875 0.1875,-2.140625 c 0,-0.632813 0.1875,-1.1875 0.5625,-1.65625 C 1.132812,-4.265625 1.632812,-4.5 2.25,-4.5 Z m -0.28125,0.34375 c -0.367188,0 -0.640625,0.164062 -0.828125,0.484375 -0.105469,0.179687 -0.179687,0.398437 -0.21875,0.65625 H 2.9375 C 2.90625,-3.335938 2.847656,-3.578125 2.765625,-3.734375 2.609375,-4.015625 2.34375,-4.15625 1.96875,-4.15625 Z M 2.1875,-4.5 Z m 0,0"
           id="path61" />
      </g>
    </g>
    <g
       fill="#231f20"
       fill-opacity="1"
       id="g276"
       transform="matrix(0.35277777,0,0,0.35277777,-17.304025,102.86272)">
      <g
         id="use276"
         transform="translate(390.03702,99.974998)">
        <path
           d="M 0.203125,-0.140625 C 0.492188,-0.160156 0.691406,-0.21875 0.796875,-0.3125 0.910156,-0.40625 0.96875,-0.582031 0.96875,-0.84375 v -4.6875 c 0,-0.21875 -0.023438,-0.363281 -0.0625,-0.4375 -0.0625,-0.132812 -0.195312,-0.203125 -0.390625,-0.203125 -0.042969,0 -0.089844,0.00781 -0.140625,0.015625 -0.054688,0.011719 -0.121094,0.023438 -0.203125,0.03125 v -0.15625 c 0.4375,-0.113281 0.957031,-0.265625 1.5625,-0.453125 0.019531,0 0.03125,0.011719 0.03125,0.03125 0.00781,0.011719 0.015625,0.054687 0.015625,0.125 v 5.75 c 0,0.28125 0.046875,0.464844 0.140625,0.546875 0.101563,0.074219 0.304687,0.121094 0.609375,0.140625 V 0 H 0.203125 Z m 0,0"
           id="path74" />
      </g>
    </g>
    <path
       fill-rule="nonzero"
       fill="#fee4b3"
       fill-opacity="1"
       d="m 63.049381,151.51987 h 10.398675 v -7.77903 H 63.049381 v 7.77903"
       id="path277"
       style="stroke-width:0.352778" />
    <path
       fill="none"
       stroke-width="0.144198"
       stroke-linecap="butt"
       stroke-linejoin="miter"
       stroke="#f58220"
       stroke-opacity="1"
       stroke-miterlimit="4"
       d="m 63.049388,151.51985 h 10.398676 v -7.77903 H 63.049388 Z m 0,0"
       id="path278" />
    <g
       fill="#231f20"
       fill-opacity="1"
       id="g278"
       transform="matrix(0.35277777,0,0,0.35277777,-17.304025,102.86272)">
      <g
         id="use278"
         transform="translate(227.77499,111)">
        <path
           d="m 2.25,-4.5 c 0.445312,0 0.835938,0.15625 1.171875,0.46875 0.34375,0.3125 0.515625,0.757812 0.515625,1.328125 H 0.890625 c 0.039063,0.742187 0.210937,1.28125 0.515625,1.625 0.300781,0.335937 0.660156,0.5 1.078125,0.5 0.332031,0 0.613281,-0.085937 0.84375,-0.265625 0.226563,-0.175781 0.441406,-0.425781 0.640625,-0.75 l 0.171875,0.0625 c -0.136719,0.40625 -0.386719,0.78125 -0.75,1.125 -0.355469,0.34375 -0.792969,0.515625 -1.3125,0.515625 -0.605469,0 -1.074219,-0.222656 -1.40625,-0.671875 C 0.347656,-1.019531 0.1875,-1.546875 0.1875,-2.140625 c 0,-0.632813 0.1875,-1.1875 0.5625,-1.65625 C 1.132812,-4.265625 1.632812,-4.5 2.25,-4.5 Z m -0.28125,0.34375 c -0.367188,0 -0.640625,0.164062 -0.828125,0.484375 -0.105469,0.179687 -0.179687,0.398437 -0.21875,0.65625 H 2.9375 C 2.90625,-3.335938 2.847656,-3.578125 2.765625,-3.734375 2.609375,-4.015625 2.34375,-4.15625 1.96875,-4.15625 Z M 2.1875,-4.5 Z m 0,0"
           id="path62" />
      </g>
    </g>
    <g
       fill="#231f20"
       fill-opacity="1"
       id="g280"
       transform="matrix(0.35277777,0,0,0.35277777,-17.304025,102.86272)">
      <g
         id="use279"
         transform="translate(232.13907,111)">
        <path
           d="M 0.171875,-0.140625 C 0.398438,-0.160156 0.5625,-0.210938 0.65625,-0.296875 0.75,-0.390625 0.796875,-0.582031 0.796875,-0.875 v -2.4375 c 0,-0.195312 -0.023437,-0.335938 -0.0625,-0.421875 -0.0625,-0.125 -0.1875,-0.1875 -0.375,-0.1875 -0.03125,0 -0.0625,0.00781 -0.09375,0.015625 -0.03125,0 -0.070313,0 -0.109375,0 V -4.0625 c 0.132812,-0.039062 0.445312,-0.140625 0.9375,-0.296875 l 0.453125,-0.15625 c 0.019531,0 0.03125,0.011719 0.03125,0.03125 0.00781,0.011719 0.015625,0.03125 0.015625,0.0625 v 0.703125 c 0.289062,-0.269531 0.519531,-0.457031 0.6875,-0.5625 0.25,-0.15625 0.507812,-0.234375 0.78125,-0.234375 0.21875,0 0.414062,0.0625 0.59375,0.1875 C 4,-4.085938 4.171875,-3.65625 4.171875,-3.03125 v 2.234375 c 0,0.230469 0.046875,0.398437 0.140625,0.5 0.09375,0.105469 0.25,0.15625 0.46875,0.15625 V 0 h -2.0625 v -0.140625 c 0.238281,-0.03125 0.40625,-0.09375 0.5,-0.1875 0.09375,-0.09375 0.140625,-0.304687 0.140625,-0.640625 v -2.046875 c 0,-0.269531 -0.054687,-0.492187 -0.15625,-0.671875 -0.105469,-0.1875 -0.292969,-0.28125 -0.5625,-0.28125 -0.199219,0 -0.390625,0.0625 -0.578125,0.1875 -0.117188,0.074219 -0.257812,0.199219 -0.421875,0.375 v 2.6875 c 0,0.230469 0.046875,0.386719 0.140625,0.46875 0.101562,0.074219 0.269531,0.109375 0.5,0.109375 V 0 H 0.171875 Z m 2.296875,-4.375 z m 0,0"
           id="path12" />
      </g>
      <g
         id="use280"
         transform="translate(237.05531,111)">
        <path
           d="m 2.4375,-4.53125 c 0.40625,0 0.75,0.105469 1.03125,0.3125 0.289062,0.210938 0.4375,0.4375 0.4375,0.6875 0,0.105469 -0.039062,0.203125 -0.109375,0.296875 -0.074219,0.085937 -0.1875,0.125 -0.34375,0.125 C 3.347656,-3.109375 3.25,-3.144531 3.15625,-3.21875 3.070312,-3.289062 3.015625,-3.40625 2.984375,-3.5625 l -0.0625,-0.21875 C 2.878906,-3.957031 2.804688,-4.078125 2.703125,-4.140625 2.597656,-4.210938 2.460938,-4.25 2.296875,-4.25 c -0.375,0 -0.6875,0.164062 -0.9375,0.484375 -0.25,0.3125 -0.375,0.734375 -0.375,1.265625 0,0.480469 0.132813,0.914062 0.40625,1.296875 0.28125,0.386719 0.660156,0.578125 1.140625,0.578125 0.320312,0 0.613281,-0.109375 0.875,-0.328125 0.144531,-0.125 0.3125,-0.320313 0.5,-0.59375 L 4.046875,-1.46875 C 3.859375,-1.082031 3.664062,-0.773438 3.46875,-0.546875 3.082031,-0.117188 2.632812,0.09375 2.125,0.09375 1.625,0.09375 1.179688,-0.101562 0.796875,-0.5 0.410156,-0.894531 0.21875,-1.429688 0.21875,-2.109375 c 0,-0.65625 0.207031,-1.222656 0.625,-1.703125 0.425781,-0.476562 0.957031,-0.71875 1.59375,-0.71875 z m -0.203125,0 z m 0,0"
           id="path58" />
      </g>
    </g>
    <g
       fill="#231f20"
       fill-opacity="1"
       id="g284"
       transform="matrix(0.35277777,0,0,0.35277777,-17.304025,102.86272)">
      <g
         id="use281"
         transform="translate(241.41899,111)">
        <path
           d="M 0.046875,-0.15625 C 0.335938,-0.1875 0.53125,-0.238281 0.625,-0.3125 c 0.09375,-0.082031 0.140625,-0.25 0.140625,-0.5 v -2.171875 c 0,-0.3125 -0.03125,-0.535156 -0.09375,-0.671875 -0.054687,-0.132812 -0.15625,-0.203125 -0.3125,-0.203125 -0.03125,0 -0.074219,0.00781 -0.125,0.015625 -0.054687,0 -0.109375,0.011719 -0.171875,0.03125 v -0.171875 c 0.1875,-0.0625 0.375,-0.125 0.5625,-0.1875 0.195312,-0.070313 0.332031,-0.117187 0.40625,-0.140625 0.15625,-0.0625 0.316406,-0.132812 0.484375,-0.21875 0.03125,0 0.046875,0.011719 0.046875,0.03125 0,0.011719 0,0.042969 0,0.09375 v 0.796875 C 1.769531,-3.898438 1.96875,-4.125 2.15625,-4.28125 2.351562,-4.4375 2.550781,-4.515625 2.75,-4.515625 c 0.164062,0 0.300781,0.046875 0.40625,0.140625 0.101562,0.09375 0.15625,0.21875 0.15625,0.375 0,0.125 -0.042969,0.234375 -0.125,0.328125 -0.074219,0.085937 -0.171875,0.125 -0.296875,0.125 -0.117187,0 -0.234375,-0.050781 -0.359375,-0.15625 C 2.40625,-3.816406 2.304688,-3.875 2.234375,-3.875 c -0.117187,0 -0.257813,0.09375 -0.421875,0.28125 -0.15625,0.179688 -0.234375,0.359375 -0.234375,0.546875 v 2.15625 c 0,0.28125 0.0625,0.476563 0.1875,0.578125 0.132813,0.105469 0.347656,0.15625 0.640625,0.15625 V 0 H 0.046875 Z m 0,0"
           id="path35" />
      </g>
      <g
         id="use282"
         transform="translate(244.69322,111)">
        <path
           d="M 0.140625,-4.40625 H 2.15625 v 0.140625 C 2,-4.253906 1.878906,-4.238281 1.796875,-4.21875 c -0.148437,0.042969 -0.21875,0.125 -0.21875,0.25 0,0.042969 0.00391,0.089844 0.015625,0.140625 0.019531,0.042969 0.050781,0.109375 0.09375,0.203125 l 1.125,2.484375 0.90625,-2.5 C 3.726562,-3.671875 3.742188,-3.726562 3.765625,-3.8125 3.785156,-3.90625 3.796875,-3.96875 3.796875,-4 c 0,-0.082031 -0.03125,-0.144531 -0.09375,-0.1875 C 3.648438,-4.226562 3.578125,-4.25 3.484375,-4.25 L 3.34375,-4.265625 V -4.40625 h 1.3125 v 0.140625 C 4.53125,-4.242188 4.429688,-4.195312 4.359375,-4.125 4.296875,-4.050781 4.238281,-3.945312 4.1875,-3.8125 l -1.5,4 C 2.425781,0.875 2.171875,1.375 1.921875,1.6875 1.679688,2 1.378906,2.15625 1.015625,2.15625 c -0.179687,0 -0.34375,-0.046875 -0.5,-0.140625 C 0.359375,1.921875 0.28125,1.78125 0.28125,1.59375 0.28125,1.457031 0.328125,1.347656 0.421875,1.265625 0.515625,1.191406 0.632812,1.15625 0.78125,1.15625 c 0.082031,0 0.203125,0.023438 0.359375,0.078125 0.164063,0.0625 0.285156,0.09375 0.359375,0.09375 0.175781,0 0.363281,-0.210937 0.5625,-0.625 0.195312,-0.40625 0.296875,-0.6835938 0.296875,-0.828125 0,-0.03125 -0.00781,-0.066406 -0.015625,-0.109375 0,-0.039063 -0.011719,-0.078125 -0.03125,-0.109375 L 0.78125,-3.65625 C 0.675781,-3.894531 0.582031,-4.050781 0.5,-4.125 0.414062,-4.207031 0.296875,-4.257812 0.140625,-4.28125 Z M 2.421875,-4.5 Z m 0,0"
           id="path33" />
      </g>
      <g
         id="use283"
         transform="translate(249.60947,111)">
        <path
           d="m 1.5625,-0.890625 c 0.082031,0.21875 0.207031,0.386719 0.375,0.5 0.164062,0.105469 0.363281,0.15625 0.59375,0.15625 0.34375,0 0.632812,-0.171875 0.875,-0.515625 0.25,-0.34375 0.375,-0.820312 0.375,-1.4375 0,-0.59375 -0.132812,-1.03125 -0.390625,-1.3125 -0.25,-0.289062 -0.542969,-0.4375 -0.875,-0.4375 -0.242187,0 -0.460937,0.074219 -0.65625,0.21875 C 1.660156,-3.582031 1.5625,-3.441406 1.5625,-3.296875 Z m -1.515625,2.875 c 0.300781,-0.023437 0.488281,-0.089844 0.5625,-0.203125 0.082031,-0.105469 0.125,-0.273438 0.125,-0.5 v -4.609375 c 0,-0.238281 -0.03125,-0.394531 -0.09375,-0.46875 C 0.585938,-3.867188 0.476562,-3.90625 0.3125,-3.90625 c -0.03125,0 -0.0625,0.00781 -0.09375,0.015625 -0.03125,0 -0.074219,0.00781 -0.125,0.015625 V -4.03125 L 0.546875,-4.1875 c 0.007813,0 0.328125,-0.109375 0.953125,-0.328125 0.019531,0 0.035156,0.011719 0.046875,0.03125 0.00781,0.011719 0.015625,0.027344 0.015625,0.046875 v 0.640625 C 1.769531,-4.003906 1.953125,-4.160156 2.109375,-4.265625 2.398438,-4.441406 2.695312,-4.53125 3,-4.53125 c 0.4375,0 0.8125,0.1875 1.125,0.5625 0.320312,0.375 0.484375,0.890625 0.484375,1.546875 0,0.636719 -0.195313,1.214844 -0.578125,1.734375 -0.375,0.523438 -0.855469,0.78125 -1.4375,0.78125 -0.179688,0 -0.328125,-0.0234375 -0.453125,-0.0625 C 1.929688,-0.0390625 1.738281,-0.164062 1.5625,-0.34375 v 1.578125 c 0,0.320313 0.050781,0.519531 0.15625,0.59375 0.113281,0.070313 0.347656,0.117187 0.703125,0.140625 v 0.171875 h -2.375 z m 0,0"
           id="path24" />
      </g>
      <g
         id="use284"
         transform="translate(254.52571,111)">
        <path
           d="m 2.5,-4.421875 v 0.34375 H 1.515625 V -1.3125 c 0,0.242188 0.019531,0.421875 0.0625,0.546875 0.070313,0.21875 0.222656,0.328125 0.453125,0.328125 0.113281,0 0.210938,-0.023438 0.296875,-0.078125 0.082031,-0.050781 0.175781,-0.132813 0.28125,-0.25 l 0.125,0.09375 -0.09375,0.15625 c -0.167969,0.21875 -0.34375,0.375 -0.53125,0.46875 -0.1875,0.09375 -0.371094,0.140625 -0.546875,0.140625 -0.375,0 -0.632812,-0.1640625 -0.765625,-0.5 C 0.722656,-0.59375 0.6875,-0.847656 0.6875,-1.171875 v -2.90625 H 0.171875 C 0.148438,-4.085938 0.132812,-4.097656 0.125,-4.109375 c 0,-0.00781 0,-0.019531 0,-0.03125 0,-0.03125 0.003906,-0.054687 0.015625,-0.078125 0.007813,-0.019531 0.054687,-0.0625 0.140625,-0.125 C 0.5,-4.519531 0.65625,-4.664062 0.75,-4.78125 0.851562,-4.894531 1.082031,-5.195312 1.4375,-5.6875 c 0.039062,0 0.066406,0.00781 0.078125,0.015625 0.00781,0 0.015625,0.023437 0.015625,0.0625 v 1.1875 z m 0,0"
           id="path22" />
      </g>
    </g>
    <g
       fill="#231f20"
       fill-opacity="1"
       id="g288"
       transform="matrix(0.35277777,0,0,0.35277777,-17.304025,102.86272)">
      <g
         id="use285"
         transform="translate(234.22501,88.724998)">
        <path
           d="m 2.921875,-0.359375 c 0.5,0 0.914063,-0.09375 1.25,-0.28125 0.34375,-0.195313 0.515625,-0.570313 0.515625,-1.125 0,-0.550781 -0.199219,-0.925781 -0.59375,-1.125 -0.398438,-0.207031 -0.902344,-0.3125 -1.515625,-0.3125 -0.148437,0 -0.242187,0 -0.28125,0 -0.042969,0 -0.105469,0 -0.1875,0 v 2.4375 c 0,0.179687 0.046875,0.292969 0.140625,0.34375 0.101562,0.042969 0.328125,0.0625 0.671875,0.0625 z m -2.75,0.1875 c 0.394531,-0.03125 0.648437,-0.09375 0.765625,-0.1875 0.113281,-0.101563 0.171875,-0.335937 0.171875,-0.703125 v -4.375 c 0,-0.363281 -0.058594,-0.597656 -0.171875,-0.703125 C 0.820312,-6.242188 0.566406,-6.300781 0.171875,-6.3125 V -6.5 h 2.75 c 0.789063,0 1.414063,0.125 1.875,0.375 0.457031,0.25 0.6875,0.6875 0.6875,1.3125 0,0.460938 -0.164063,0.808594 -0.484375,1.046875 -0.179688,0.136719 -0.449219,0.25 -0.8125,0.34375 0.445312,0.105469 0.832031,0.289063 1.15625,0.546875 0.320312,0.25 0.484375,0.605469 0.484375,1.0625 0,0.773438 -0.359375,1.304688 -1.078125,1.59375 C 4.375,-0.0703125 3.914062,0 3.375,0 H 0.171875 Z m 2.875,-3.421875 C 3.378906,-3.601562 3.65625,-3.65625 3.875,-3.75 c 0.40625,-0.195312 0.609375,-0.539062 0.609375,-1.03125 0,-0.582031 -0.242187,-0.976562 -0.71875,-1.1875 C 3.503906,-6.082031 3.101562,-6.140625 2.5625,-6.140625 c -0.210938,0 -0.339844,0.023437 -0.390625,0.0625 -0.042969,0.03125 -0.0625,0.125 -0.0625,0.28125 v 2.21875 z m 0,0"
           id="path73" />
      </g>
      <g
         id="use286"
         transform="translate(240.78328,88.724998)">
        <path
           d="M 0.25,-2.234375 C 0.25,-2.867188 0.453125,-3.40625 0.859375,-3.84375 1.265625,-4.28125 1.785156,-4.5 2.421875,-4.5 c 0.632813,0 1.15625,0.210938 1.5625,0.625 0.414063,0.417969 0.625,0.96875 0.625,1.65625 0,0.636719 -0.203125,1.195312 -0.609375,1.671875 -0.398438,0.46875 -0.914062,0.703125 -1.546875,0.703125 -0.617187,0 -1.136719,-0.2226562 -1.5625,-0.671875 C 0.460938,-0.972656 0.25,-1.546875 0.25,-2.234375 Z M 2.28125,-4.21875 c -0.25,0 -0.46875,0.085938 -0.65625,0.25 -0.324219,0.292969 -0.484375,0.796875 -0.484375,1.515625 0,0.5625 0.128906,1.09375 0.390625,1.59375 0.257812,0.492187 0.617188,0.734375 1.078125,0.734375 0.351563,0 0.625,-0.160156 0.8125,-0.484375 0.195313,-0.332031 0.296875,-0.769531 0.296875,-1.3125 0,-0.550781 -0.125,-1.070313 -0.375,-1.5625 C 3.101562,-3.972656 2.75,-4.21875 2.28125,-4.21875 Z M 2.46875,-4.5 Z m 0,0"
           id="path18" />
      </g>
      <g
         id="use287"
         transform="translate(245.69952,88.724998)">
        <path
           d="m 0.03125,-6.109375 v -0.15625 c 0.363281,-0.082031 0.691406,-0.175781 0.984375,-0.28125 0.289063,-0.101563 0.445313,-0.15625 0.46875,-0.15625 C 1.492188,-6.679688 1.5,-6.660156 1.5,-6.640625 v 2.921875 c 0.082031,-0.15625 0.207031,-0.300781 0.375,-0.4375 0.289062,-0.238281 0.628906,-0.359375 1.015625,-0.359375 0.46875,0 0.867187,0.199219 1.203125,0.59375 0.332031,0.398437 0.5,0.914063 0.5,1.546875 0,0.679688 -0.21875,1.261719 -0.65625,1.75 -0.429688,0.480469 -0.996094,0.71875 -1.703125,0.71875 -0.355469,0 -0.703125,-0.0703125 -1.046875,-0.203125 -0.335938,-0.144531 -0.5,-0.289063 -0.5,-0.4375 v -5.0625 C 0.6875,-5.796875 0.660156,-5.925781 0.609375,-6 0.554688,-6.082031 0.4375,-6.125 0.25,-6.125 Z m 1.453125,5.40625 c 0.019531,0.167969 0.140625,0.289063 0.359375,0.359375 0.226562,0.074219 0.425781,0.109375 0.59375,0.109375 0.445312,0 0.773438,-0.164063 0.984375,-0.5 C 3.640625,-1.078125 3.75,-1.484375 3.75,-1.953125 3.75,-2.429688 3.644531,-2.875 3.4375,-3.28125 3.238281,-3.6875 2.914062,-3.890625 2.46875,-3.890625 c -0.230469,0 -0.453125,0.074219 -0.671875,0.21875 -0.210937,0.136719 -0.3125,0.3125 -0.3125,0.53125 z m 0,0"
           id="path72" />
      </g>
      <g
         id="use288"
         transform="translate(250.61578,88.724998)" />
    </g>
    <g
       fill="#231f20"
       fill-opacity="1"
       id="g289"
       transform="matrix(0.35277777,0,0,0.35277777,-17.304025,102.86272)">
      <g
         id="use289"
         transform="translate(438.45093,88.724998)">
        <path
           d="M 4.390625,-2.53125 3.25,-5.234375 2.125,-2.53125 Z M 0.140625,0 v -0.171875 c 0.25,-0.03125 0.4375,-0.125 0.5625,-0.28125 0.132813,-0.164063 0.351563,-0.613281 0.65625,-1.34375 L 3.40625,-6.625 h 0.203125 l 2.4375,5.578125 c 0.164063,0.375 0.296875,0.609375 0.390625,0.703125 0.101562,0.085938 0.269531,0.140625 0.5,0.171875 V 0 h -2.5 v -0.171875 c 0.28125,-0.03125 0.460938,-0.0625 0.546875,-0.09375 0.082031,-0.039063 0.125,-0.132813 0.125,-0.28125 0,-0.039063 -0.015625,-0.125 -0.046875,-0.25 -0.03125,-0.125 -0.074219,-0.253906 -0.125,-0.390625 L 4.53125,-2.125 H 1.953125 c -0.261719,0.648438 -0.417969,1.042969 -0.46875,1.1875 -0.042969,0.136719 -0.0625,0.246094 -0.0625,0.328125 0,0.167969 0.066406,0.28125 0.203125,0.34375 0.082031,0.042969 0.238281,0.074219 0.46875,0.09375 V 0 Z m 3.375,-6.625 z m 0,0"
           id="path71" />
      </g>
    </g>
    <g
       fill="#231f20"
       fill-opacity="1"
       id="g290"
       transform="matrix(0.35277777,0,0,0.35277777,-17.304025,102.86272)">
      <g
         id="use290"
         transform="translate(445.55133,88.724998)">
        <path
           d="M 0.203125,-0.140625 C 0.492188,-0.160156 0.691406,-0.21875 0.796875,-0.3125 0.910156,-0.40625 0.96875,-0.582031 0.96875,-0.84375 v -4.6875 c 0,-0.21875 -0.023438,-0.363281 -0.0625,-0.4375 -0.0625,-0.132812 -0.195312,-0.203125 -0.390625,-0.203125 -0.042969,0 -0.089844,0.00781 -0.140625,0.015625 -0.054688,0.011719 -0.121094,0.023438 -0.203125,0.03125 v -0.15625 c 0.4375,-0.113281 0.957031,-0.265625 1.5625,-0.453125 0.019531,0 0.03125,0.011719 0.03125,0.03125 0.00781,0.011719 0.015625,0.054687 0.015625,0.125 v 5.75 c 0,0.28125 0.046875,0.464844 0.140625,0.546875 0.101563,0.074219 0.304687,0.121094 0.609375,0.140625 V 0 H 0.203125 Z m 0,0"
           id="path75" />
      </g>
    </g>
    <g
       fill="#231f20"
       fill-opacity="1"
       id="g291"
       transform="matrix(0.35277777,0,0,0.35277777,-17.304025,102.86272)">
      <g
         id="use291"
         transform="translate(448.28296,88.724998)">
        <path
           d="m 0.8125,-6.203125 c 0,-0.132813 0.046875,-0.25 0.140625,-0.34375 0.09375,-0.101563 0.210937,-0.15625 0.359375,-0.15625 0.132812,0 0.25,0.054687 0.34375,0.15625 0.09375,0.09375 0.140625,0.210937 0.140625,0.34375 C 1.796875,-6.054688 1.75,-5.9375 1.65625,-5.84375 1.5625,-5.75 1.445312,-5.703125 1.3125,-5.703125 1.164062,-5.703125 1.046875,-5.75 0.953125,-5.84375 0.859375,-5.9375 0.8125,-6.054688 0.8125,-6.203125 Z m -0.625,6.0625 C 0.53125,-0.171875 0.742188,-0.226562 0.828125,-0.3125 0.921875,-0.394531 0.96875,-0.625 0.96875,-1 v -2.28125 c 0,-0.207031 -0.011719,-0.351562 -0.03125,-0.4375 -0.054688,-0.132812 -0.15625,-0.203125 -0.3125,-0.203125 -0.03125,0 -0.070312,0.00781 -0.109375,0.015625 -0.03125,0.011719 -0.125,0.039062 -0.28125,0.078125 v -0.15625 l 0.203125,-0.0625 c 0.5625,-0.175781 0.953125,-0.3125 1.171875,-0.40625 0.09375,-0.039063 0.148437,-0.0625 0.171875,-0.0625 0.00781,0.023437 0.015625,0.046875 0.015625,0.078125 V -1 c 0,0.367188 0.039063,0.59375 0.125,0.6875 0.09375,0.09375 0.296875,0.152344 0.609375,0.171875 V 0 H 0.1875 Z m 0,0"
           id="path7" />
      </g>
    </g>
    <g
       fill="#231f20"
       fill-opacity="1"
       id="g292"
       transform="matrix(0.35277777,0,0,0.35277777,-17.304025,102.86272)">
      <g
         id="use292"
         transform="translate(451.01459,88.724998)">
        <path
           d="m 2.4375,-4.53125 c 0.40625,0 0.75,0.105469 1.03125,0.3125 0.289062,0.210938 0.4375,0.4375 0.4375,0.6875 0,0.105469 -0.039062,0.203125 -0.109375,0.296875 -0.074219,0.085937 -0.1875,0.125 -0.34375,0.125 C 3.347656,-3.109375 3.25,-3.144531 3.15625,-3.21875 3.070312,-3.289062 3.015625,-3.40625 2.984375,-3.5625 l -0.0625,-0.21875 C 2.878906,-3.957031 2.804688,-4.078125 2.703125,-4.140625 2.597656,-4.210938 2.460938,-4.25 2.296875,-4.25 c -0.375,0 -0.6875,0.164062 -0.9375,0.484375 -0.25,0.3125 -0.375,0.734375 -0.375,1.265625 0,0.480469 0.132813,0.914062 0.40625,1.296875 0.28125,0.386719 0.660156,0.578125 1.140625,0.578125 0.320312,0 0.613281,-0.109375 0.875,-0.328125 0.144531,-0.125 0.3125,-0.320313 0.5,-0.59375 L 4.046875,-1.46875 C 3.859375,-1.082031 3.664062,-0.773438 3.46875,-0.546875 3.082031,-0.117188 2.632812,0.09375 2.125,0.09375 1.625,0.09375 1.179688,-0.101562 0.796875,-0.5 0.410156,-0.894531 0.21875,-1.429688 0.21875,-2.109375 c 0,-0.65625 0.207031,-1.222656 0.625,-1.703125 0.425781,-0.476562 0.957031,-0.71875 1.59375,-0.71875 z m -0.203125,0 z m 0,0"
           id="path59" />
      </g>
    </g>
    <g
       fill="#231f20"
       fill-opacity="1"
       id="g293"
       transform="matrix(0.35277777,0,0,0.35277777,-17.304025,102.86272)">
      <g
         id="use293"
         transform="translate(455.37866,88.724998)">
        <path
           d="m 2.25,-4.5 c 0.445312,0 0.835938,0.15625 1.171875,0.46875 0.34375,0.3125 0.515625,0.757812 0.515625,1.328125 H 0.890625 c 0.039063,0.742187 0.210937,1.28125 0.515625,1.625 0.300781,0.335937 0.660156,0.5 1.078125,0.5 0.332031,0 0.613281,-0.085937 0.84375,-0.265625 0.226563,-0.175781 0.441406,-0.425781 0.640625,-0.75 l 0.171875,0.0625 c -0.136719,0.40625 -0.386719,0.78125 -0.75,1.125 -0.355469,0.34375 -0.792969,0.515625 -1.3125,0.515625 -0.605469,0 -1.074219,-0.222656 -1.40625,-0.671875 C 0.347656,-1.019531 0.1875,-1.546875 0.1875,-2.140625 c 0,-0.632813 0.1875,-1.1875 0.5625,-1.65625 C 1.132812,-4.265625 1.632812,-4.5 2.25,-4.5 Z m -0.28125,0.34375 c -0.367188,0 -0.640625,0.164062 -0.828125,0.484375 -0.105469,0.179687 -0.179687,0.398437 -0.21875,0.65625 H 2.9375 C 2.90625,-3.335938 2.847656,-3.578125 2.765625,-3.734375 2.609375,-4.015625 2.34375,-4.15625 1.96875,-4.15625 Z M 2.1875,-4.5 Z m 0,0"
           id="path63" />
      </g>
    </g>
    <path
       fill-rule="evenodd"
       fill="#231f20"
       fill-opacity="1"
       d="m 161.925,147.62967 -3.04271,0.89986 0.97841,-0.89986 -0.97841,-0.89848 3.04271,0.89848"
       id="path294"
       style="stroke-width:0.352778" />
    <path
       fill="none"
       stroke-width="0.144198"
       stroke-linecap="butt"
       stroke-linejoin="miter"
       stroke="#231f20"
       stroke-opacity="1"
       stroke-miterlimit="4"
       d="m 146.23467,147.62965 h 13.67978"
       id="path295" />
    <path
       fill-rule="evenodd"
       fill="#231f20"
       fill-opacity="1"
       d="m 135.9159,147.62967 -3.06889,0.89986 0.97841,-0.89986 -0.97841,-0.89848 3.06889,0.89848"
       id="path296"
       style="stroke-width:0.352778" />
    <path
       fill="none"
       stroke-width="0.144198"
       stroke-linecap="butt"
       stroke-linejoin="miter"
       stroke="#231f20"
       stroke-opacity="1"
       stroke-miterlimit="4"
       d="M 73.395698,147.62965 H 133.90536"
       id="path297" />
    <path
       fill-rule="nonzero"
       fill="#231f20"
       fill-opacity="1"
       d="m 118.69181,147.62967 c 0,0.52917 -0.44925,0.97978 -1.00597,0.97978 -0.55535,0 -1.00459,-0.45061 -1.00459,-0.97978 0,-0.52917 0.44924,-0.97841 1.00459,-0.97841 0.55672,0 1.00597,0.44924 1.00597,0.97841"
       id="path298"
       style="stroke-width:0.352778" />
    <path
       fill="none"
       stroke-width="0.144198"
       stroke-linecap="butt"
       stroke-linejoin="miter"
       stroke="#231f20"
       stroke-opacity="1"
       stroke-miterlimit="4"
       d="m 118.69182,147.62965 c 0,0.52916 -0.44924,0.97978 -1.00597,0.97978 -0.55535,0 -1.00459,-0.45062 -1.00459,-0.97978 0,-0.52917 0.44924,-0.97841 1.00459,-0.97841 0.55673,0 1.00597,0.44924 1.00597,0.97841 z m 0,0"
       id="path299" />
    <path
       fill="none"
       stroke-width="0.144198"
       stroke-linecap="square"
       stroke-linejoin="miter"
       stroke="#231f20"
       stroke-opacity="1"
       stroke-miterlimit="4"
       d="m 117.73959,147.62965 c 1.05834,0.60909 1.74598,1.29673 2.09049,2.01193 0.34313,0.76619 0.44924,1.71979 0.44924,2.98897 0,1.16444 -0.34451,2.17041 -0.95223,2.69957 -0.60909,0.6339 -1.11207,1.24299 -1.32291,1.90445 -0.21222,0.60909 -0.42306,1.05834 -0.42306,1.85209 0,0.21221 0.0786,0.92604 0.15847,1.37528 0.13229,0.42443 0.39688,0.84749 0.47543,0.97978 0.50298,0.55535 0.21221,0.29077 1.03215,1.03215"
       id="path300" />
    <path
       fill-rule="evenodd"
       fill="#231f20"
       fill-opacity="1"
       d="m 120.30549,163.24009 -2.98897,-1.243 1.37529,-0.0799 -0.21222,-1.32292 1.8259,2.64584"
       id="path301"
       style="stroke-width:0.352778" />
    <path
       fill-rule="nonzero"
       fill="#231f20"
       fill-opacity="1"
       d="m 118.63944,161.8648 h 0.13229 l 0.55535,0.4768 v 0.15848 h -0.13229 l -0.55535,-0.50299 v -0.13229"
       id="path302"
       style="stroke-width:0.352778" />
    <g
       fill="#231f20"
       fill-opacity="1"
       id="g302"
       transform="matrix(0.35277777,0,0,0.35277777,-17.304025,102.86272)">
      <g
         id="use302"
         transform="translate(326.92499,159)">
        <path
           d="m 2.25,-4.5 c 0.445312,0 0.835938,0.15625 1.171875,0.46875 0.34375,0.3125 0.515625,0.757812 0.515625,1.328125 H 0.890625 c 0.039063,0.742187 0.210937,1.28125 0.515625,1.625 0.300781,0.335937 0.660156,0.5 1.078125,0.5 0.332031,0 0.613281,-0.085937 0.84375,-0.265625 0.226563,-0.175781 0.441406,-0.425781 0.640625,-0.75 l 0.171875,0.0625 c -0.136719,0.40625 -0.386719,0.78125 -0.75,1.125 -0.355469,0.34375 -0.792969,0.515625 -1.3125,0.515625 -0.605469,0 -1.074219,-0.222656 -1.40625,-0.671875 C 0.347656,-1.019531 0.1875,-1.546875 0.1875,-2.140625 c 0,-0.632813 0.1875,-1.1875 0.5625,-1.65625 C 1.132812,-4.265625 1.632812,-4.5 2.25,-4.5 Z m -0.28125,0.34375 c -0.367188,0 -0.640625,0.164062 -0.828125,0.484375 -0.105469,0.179687 -0.179687,0.398437 -0.21875,0.65625 H 2.9375 C 2.90625,-3.335938 2.847656,-3.578125 2.765625,-3.734375 2.609375,-4.015625 2.34375,-4.15625 1.96875,-4.15625 Z M 2.1875,-4.5 Z m 0,0"
           id="path64" />
      </g>
    </g>
    <g
       fill="#231f20"
       fill-opacity="1"
       id="g303"
       transform="matrix(0.35277777,0,0,0.35277777,-17.304025,102.86272)">
      <g
         id="use303"
         transform="translate(331.28906,159)">
        <path
           d="m 2.8125,-2.65625 c -0.367188,0.125 -0.667969,0.261719 -0.90625,0.40625 -0.460938,0.28125 -0.6875,0.605469 -0.6875,0.96875 0,0.292969 0.09375,0.507812 0.28125,0.640625 0.125,0.085937 0.265625,0.125 0.421875,0.125 0.207031,0 0.40625,-0.054687 0.59375,-0.171875 C 2.710938,-0.800781 2.8125,-0.953125 2.8125,-1.140625 Z m -2.453125,1.703125 c 0,-0.46875 0.234375,-0.851563 0.703125,-1.15625 0.289062,-0.195313 0.875,-0.460937 1.75,-0.796875 V -3.3125 c 0,-0.320312 -0.03125,-0.546875 -0.09375,-0.671875 C 2.613281,-4.203125 2.390625,-4.3125 2.046875,-4.3125 c -0.167969,0 -0.324219,0.042969 -0.46875,0.125 -0.148437,0.085938 -0.21875,0.203125 -0.21875,0.359375 0,0.042969 0.00391,0.109375 0.015625,0.203125 0.019531,0.085938 0.03125,0.140625 0.03125,0.171875 0,0.179687 -0.058594,0.304687 -0.171875,0.375 -0.074219,0.042969 -0.15625,0.0625 -0.25,0.0625 -0.148437,0 -0.257813,-0.046875 -0.328125,-0.140625 -0.074219,-0.101562 -0.109375,-0.210938 -0.109375,-0.328125 0,-0.21875 0.132813,-0.445313 0.40625,-0.6875 0.28125,-0.25 0.6875,-0.375 1.21875,-0.375 0.625,0 1.046875,0.203125 1.265625,0.609375 0.113281,0.21875 0.171875,0.539062 0.171875,0.953125 V -1.0625 c 0,0.1875 0.015625,0.320312 0.046875,0.390625 0.039062,0.125 0.125,0.1875 0.25,0.1875 0.070312,0 0.132812,-0.007813 0.1875,-0.03125 0.050781,-0.019531 0.132812,-0.078125 0.25,-0.171875 v 0.25 C 4.238281,-0.3125 4.128906,-0.207031 4.015625,-0.125 3.835938,0 3.65625,0.0625 3.46875,0.0625 3.25,0.0625 3.085938,-0.00390625 2.984375,-0.140625 2.890625,-0.285156 2.835938,-0.457031 2.828125,-0.65625 2.585938,-0.445312 2.378906,-0.289062 2.203125,-0.1875 1.910156,-0.0078125 1.632812,0.078125 1.375,0.078125 1.101562,0.078125 0.863281,-0.0195312 0.65625,-0.21875 0.457031,-0.414062 0.359375,-0.660156 0.359375,-0.953125 Z M 2.1875,-4.546875 Z m 0,0"
           id="path4" />
      </g>
    </g>
    <g
       fill="#231f20"
       fill-opacity="1"
       id="g305"
       transform="matrix(0.35277777,0,0,0.35277777,-17.304025,102.86272)">
      <g
         id="use304"
         transform="translate(335.65274,159)">
        <path
           d="M 2.109375,-4.453125 V -4.3125 C 1.941406,-4.289062 1.820312,-4.265625 1.75,-4.234375 c -0.0625,0.03125 -0.09375,0.105469 -0.09375,0.21875 0,0.054687 0.00391,0.101563 0.015625,0.140625 0.019531,0.042969 0.046875,0.109375 0.078125,0.203125 l 1,2.484375 0.859375,-2.203125 C 3.648438,-3.492188 3.6875,-3.601562 3.71875,-3.71875 c 0.039062,-0.113281 0.0625,-0.203125 0.0625,-0.265625 0,-0.125 -0.058594,-0.210937 -0.171875,-0.265625 C 3.535156,-4.28125 3.441406,-4.300781 3.328125,-4.3125 V -4.453125 H 4.6875 V -4.3125 C 4.53125,-4.300781 4.414062,-4.25 4.34375,-4.15625 4.28125,-4.0625 4.179688,-3.847656 4.046875,-3.515625 L 2.65625,-0.0625 C 2.632812,0 2.613281,0.0390625 2.59375,0.0625 2.582031,0.0820312 2.5625,0.09375 2.53125,0.09375 2.5,0.09375 2.46875,0.0703125 2.4375,0.03125 2.414062,0 2.394531,-0.0390625 2.375,-0.09375 L 0.90625,-3.609375 C 0.789062,-3.898438 0.664062,-4.09375 0.53125,-4.1875 0.445312,-4.25 0.328125,-4.289062 0.171875,-4.3125 v -0.140625 z m 0,0"
           id="path70" />
      </g>
      <g
         id="use305"
         transform="translate(340.569,159)">
        <path
           d="m 2.25,-4.5 c 0.445312,0 0.835938,0.15625 1.171875,0.46875 0.34375,0.3125 0.515625,0.757812 0.515625,1.328125 H 0.890625 c 0.039063,0.742187 0.210937,1.28125 0.515625,1.625 0.300781,0.335937 0.660156,0.5 1.078125,0.5 0.332031,0 0.613281,-0.085937 0.84375,-0.265625 0.226563,-0.175781 0.441406,-0.425781 0.640625,-0.75 l 0.171875,0.0625 c -0.136719,0.40625 -0.386719,0.78125 -0.75,1.125 -0.355469,0.34375 -0.792969,0.515625 -1.3125,0.515625 -0.605469,0 -1.074219,-0.222656 -1.40625,-0.671875 C 0.347656,-1.019531 0.1875,-1.546875 0.1875,-2.140625 c 0,-0.632813 0.1875,-1.1875 0.5625,-1.65625 C 1.132812,-4.265625 1.632812,-4.5 2.25,-4.5 Z m -0.28125,0.34375 c -0.367188,0 -0.640625,0.164062 -0.828125,0.484375 -0.105469,0.179687 -0.179687,0.398437 -0.21875,0.65625 H 2.9375 C 2.90625,-3.335938 2.847656,-3.578125 2.765625,-3.734375 2.609375,-4.015625 2.34375,-4.15625 1.96875,-4.15625 Z M 2.1875,-4.5 Z m 0,0"
           id="path65" />
      </g>
    </g>
    <g
       fill="#231f20"
       fill-opacity="1"
       id="g306"
       transform="matrix(0.35277777,0,0,0.35277777,-17.304025,102.86272)">
      <g
         id="use306"
         transform="translate(344.93307,159)">
        <path
           d="m 0.515625,-1.515625 h 0.15625 c 0.070313,0.367187 0.171875,0.648437 0.296875,0.84375 0.21875,0.355469 0.546875,0.53125 0.984375,0.53125 0.238281,0 0.425781,-0.0625 0.5625,-0.1875 0.132813,-0.132813 0.203125,-0.304687 0.203125,-0.515625 0,-0.132812 -0.042969,-0.265625 -0.125,-0.390625 -0.074219,-0.125 -0.210938,-0.25 -0.40625,-0.375 L 1.640625,-1.90625 C 1.253906,-2.125 0.96875,-2.335938 0.78125,-2.546875 0.59375,-2.765625 0.5,-3.019531 0.5,-3.3125 c 0,-0.351562 0.125,-0.644531 0.375,-0.875 0.257812,-0.226562 0.582031,-0.34375 0.96875,-0.34375 0.175781,0 0.363281,0.03125 0.5625,0.09375 0.207031,0.0625 0.320312,0.09375 0.34375,0.09375 0.0625,0 0.101562,-0.00391 0.125,-0.015625 C 2.894531,-4.378906 2.914062,-4.40625 2.9375,-4.4375 h 0.125 l 0.03125,1.328125 H 2.9375 C 2.875,-3.421875 2.789062,-3.660156 2.6875,-3.828125 2.488281,-4.148438 2.203125,-4.3125 1.828125,-4.3125 c -0.230469,0 -0.40625,0.074219 -0.53125,0.21875 -0.125,0.136719 -0.1875,0.292969 -0.1875,0.46875 0,0.304688 0.21875,0.570312 0.65625,0.796875 l 0.640625,0.34375 C 3.082031,-2.117188 3.421875,-1.6875 3.421875,-1.1875 3.421875,-0.8125 3.28125,-0.503906 3,-0.265625 2.71875,-0.0234375 2.347656,0.09375 1.890625,0.09375 1.691406,0.09375 1.472656,0.0625 1.234375,0 0.992188,-0.0625 0.847656,-0.09375 0.796875,-0.09375 c -0.03125,0 -0.0625,0.015625 -0.09375,0.046875 C 0.671875,-0.0234375 0.648438,0 0.640625,0.03125 h -0.125 z m 1.40625,-3.015625 z m 0,0"
           id="path69" />
      </g>
    </g>
    <g
       fill="#231f20"
       fill-opacity="1"
       id="g312"
       transform="matrix(0.35277777,0,0,0.35277777,-17.304025,102.86272)">
      <g
         id="use307"
         transform="translate(348.75922,159)">
        <path
           d="m 2.328125,-4.53125 c 0.226563,0 0.441406,0.054688 0.640625,0.15625 0.125,0.0625 0.25,0.152344 0.375,0.265625 V -5.625 c 0,-0.195312 -0.027344,-0.332031 -0.078125,-0.40625 C 3.222656,-6.101562 3.125,-6.140625 2.96875,-6.140625 c -0.042969,0 -0.078125,0 -0.109375,0 -0.023437,0 -0.085937,0.00781 -0.1875,0.015625 V -6.28125 L 3.0625,-6.375 C 3.207031,-6.414062 3.351562,-6.457031 3.5,-6.5 3.644531,-6.539062 3.769531,-6.582031 3.875,-6.625 3.925781,-6.63281 4.007812,-6.660156 4.125,-6.703125 h 0.03125 v 0.5 c -0.011719,0.1875 -0.015625,0.382813 -0.015625,0.578125 0,0.1875 0,0.375 0,0.5625 L 4.125,-1.140625 c 0,0.210937 0.023438,0.355469 0.078125,0.4375 0.050781,0.085937 0.1875,0.125 0.40625,0.125 0.039063,0 0.078125,0 0.109375,0 0.03125,0 0.066406,-0.003906 0.109375,-0.015625 V -0.4375 C 4.804688,-0.425781 4.570312,-0.34375 4.125,-0.1875 L 3.375,0.09375 3.34375,0.046875 v -0.59375 C 3.164062,-0.347656 3.007812,-0.207031 2.875,-0.125 2.644531,0.0195312 2.375,0.09375 2.0625,0.09375 c -0.542969,0 -0.984375,-0.207031 -1.328125,-0.625 -0.335937,-0.425781 -0.5,-0.914062 -0.5,-1.46875 0,-0.695312 0.203125,-1.289062 0.609375,-1.78125 0.40625,-0.5 0.898438,-0.75 1.484375,-0.75 z M 2.5,-0.421875 c 0.25,0 0.453125,-0.070313 0.609375,-0.21875 C 3.265625,-0.796875 3.34375,-0.9375 3.34375,-1.0625 V -3.125 C 3.34375,-3.539062 3.226562,-3.832031 3,-4 2.78125,-4.175781 2.566406,-4.265625 2.359375,-4.265625 c -0.40625,0 -0.726563,0.183594 -0.953125,0.546875 -0.21875,0.355469 -0.328125,0.792969 -0.328125,1.3125 0,0.511719 0.117187,0.96875 0.359375,1.375 0.238281,0.40625 0.59375,0.609375 1.0625,0.609375 z m 0,0"
           id="path68" />
      </g>
      <g
         id="use308"
         transform="translate(353.67548,159)">
        <path
           d="M 0.046875,-0.15625 C 0.335938,-0.1875 0.53125,-0.238281 0.625,-0.3125 c 0.09375,-0.082031 0.140625,-0.25 0.140625,-0.5 v -2.171875 c 0,-0.3125 -0.03125,-0.535156 -0.09375,-0.671875 -0.054687,-0.132812 -0.15625,-0.203125 -0.3125,-0.203125 -0.03125,0 -0.074219,0.00781 -0.125,0.015625 -0.054687,0 -0.109375,0.011719 -0.171875,0.03125 v -0.171875 c 0.1875,-0.0625 0.375,-0.125 0.5625,-0.1875 0.195312,-0.070313 0.332031,-0.117187 0.40625,-0.140625 0.15625,-0.0625 0.316406,-0.132812 0.484375,-0.21875 0.03125,0 0.046875,0.011719 0.046875,0.03125 0,0.011719 0,0.042969 0,0.09375 v 0.796875 C 1.769531,-3.898438 1.96875,-4.125 2.15625,-4.28125 2.351562,-4.4375 2.550781,-4.515625 2.75,-4.515625 c 0.164062,0 0.300781,0.046875 0.40625,0.140625 0.101562,0.09375 0.15625,0.21875 0.15625,0.375 0,0.125 -0.042969,0.234375 -0.125,0.328125 -0.074219,0.085937 -0.171875,0.125 -0.296875,0.125 -0.117187,0 -0.234375,-0.050781 -0.359375,-0.15625 C 2.40625,-3.816406 2.304688,-3.875 2.234375,-3.875 c -0.117187,0 -0.257813,0.09375 -0.421875,0.28125 -0.15625,0.179688 -0.234375,0.359375 -0.234375,0.546875 v 2.15625 c 0,0.28125 0.0625,0.476563 0.1875,0.578125 0.132813,0.105469 0.347656,0.15625 0.640625,0.15625 V 0 H 0.046875 Z m 0,0"
           id="path36" />
      </g>
      <g
         id="use309"
         transform="translate(356.94971,159)">
        <path
           d="M 0.25,-2.234375 C 0.25,-2.867188 0.453125,-3.40625 0.859375,-3.84375 1.265625,-4.28125 1.785156,-4.5 2.421875,-4.5 c 0.632813,0 1.15625,0.210938 1.5625,0.625 0.414063,0.417969 0.625,0.96875 0.625,1.65625 0,0.636719 -0.203125,1.195312 -0.609375,1.671875 -0.398438,0.46875 -0.914062,0.703125 -1.546875,0.703125 -0.617187,0 -1.136719,-0.2226562 -1.5625,-0.671875 C 0.460938,-0.972656 0.25,-1.546875 0.25,-2.234375 Z M 2.28125,-4.21875 c -0.25,0 -0.46875,0.085938 -0.65625,0.25 -0.324219,0.292969 -0.484375,0.796875 -0.484375,1.515625 0,0.5625 0.128906,1.09375 0.390625,1.59375 0.257812,0.492187 0.617188,0.734375 1.078125,0.734375 0.351563,0 0.625,-0.160156 0.8125,-0.484375 0.195313,-0.332031 0.296875,-0.769531 0.296875,-1.3125 0,-0.550781 -0.125,-1.070313 -0.375,-1.5625 C 3.101562,-3.972656 2.75,-4.21875 2.28125,-4.21875 Z M 2.46875,-4.5 Z m 0,0"
           id="path19" />
      </g>
      <g
         id="use310"
         transform="translate(361.86594,159)">
        <path
           d="m 1.5625,-0.890625 c 0.082031,0.21875 0.207031,0.386719 0.375,0.5 0.164062,0.105469 0.363281,0.15625 0.59375,0.15625 0.34375,0 0.632812,-0.171875 0.875,-0.515625 0.25,-0.34375 0.375,-0.820312 0.375,-1.4375 0,-0.59375 -0.132812,-1.03125 -0.390625,-1.3125 -0.25,-0.289062 -0.542969,-0.4375 -0.875,-0.4375 -0.242187,0 -0.460937,0.074219 -0.65625,0.21875 C 1.660156,-3.582031 1.5625,-3.441406 1.5625,-3.296875 Z m -1.515625,2.875 c 0.300781,-0.023437 0.488281,-0.089844 0.5625,-0.203125 0.082031,-0.105469 0.125,-0.273438 0.125,-0.5 v -4.609375 c 0,-0.238281 -0.03125,-0.394531 -0.09375,-0.46875 C 0.585938,-3.867188 0.476562,-3.90625 0.3125,-3.90625 c -0.03125,0 -0.0625,0.00781 -0.09375,0.015625 -0.03125,0 -0.074219,0.00781 -0.125,0.015625 V -4.03125 L 0.546875,-4.1875 c 0.007813,0 0.328125,-0.109375 0.953125,-0.328125 0.019531,0 0.035156,0.011719 0.046875,0.03125 0.00781,0.011719 0.015625,0.027344 0.015625,0.046875 v 0.640625 C 1.769531,-4.003906 1.953125,-4.160156 2.109375,-4.265625 2.398438,-4.441406 2.695312,-4.53125 3,-4.53125 c 0.4375,0 0.8125,0.1875 1.125,0.5625 0.320312,0.375 0.484375,0.890625 0.484375,1.546875 0,0.636719 -0.195313,1.214844 -0.578125,1.734375 -0.375,0.523438 -0.855469,0.78125 -1.4375,0.78125 -0.179688,0 -0.328125,-0.0234375 -0.453125,-0.0625 C 1.929688,-0.0390625 1.738281,-0.164062 1.5625,-0.34375 v 1.578125 c 0,0.320313 0.050781,0.519531 0.15625,0.59375 0.113281,0.070313 0.347656,0.117187 0.703125,0.140625 v 0.171875 h -2.375 z m 0,0"
           id="path25" />
      </g>
      <g
         id="use311"
         transform="translate(366.7822,159)">
        <path
           d="m 1.5625,-0.890625 c 0.082031,0.21875 0.207031,0.386719 0.375,0.5 0.164062,0.105469 0.363281,0.15625 0.59375,0.15625 0.34375,0 0.632812,-0.171875 0.875,-0.515625 0.25,-0.34375 0.375,-0.820312 0.375,-1.4375 0,-0.59375 -0.132812,-1.03125 -0.390625,-1.3125 -0.25,-0.289062 -0.542969,-0.4375 -0.875,-0.4375 -0.242187,0 -0.460937,0.074219 -0.65625,0.21875 C 1.660156,-3.582031 1.5625,-3.441406 1.5625,-3.296875 Z m -1.515625,2.875 c 0.300781,-0.023437 0.488281,-0.089844 0.5625,-0.203125 0.082031,-0.105469 0.125,-0.273438 0.125,-0.5 v -4.609375 c 0,-0.238281 -0.03125,-0.394531 -0.09375,-0.46875 C 0.585938,-3.867188 0.476562,-3.90625 0.3125,-3.90625 c -0.03125,0 -0.0625,0.00781 -0.09375,0.015625 -0.03125,0 -0.074219,0.00781 -0.125,0.015625 V -4.03125 L 0.546875,-4.1875 c 0.007813,0 0.328125,-0.109375 0.953125,-0.328125 0.019531,0 0.035156,0.011719 0.046875,0.03125 0.00781,0.011719 0.015625,0.027344 0.015625,0.046875 v 0.640625 C 1.769531,-4.003906 1.953125,-4.160156 2.109375,-4.265625 2.398438,-4.441406 2.695312,-4.53125 3,-4.53125 c 0.4375,0 0.8125,0.1875 1.125,0.5625 0.320312,0.375 0.484375,0.890625 0.484375,1.546875 0,0.636719 -0.195313,1.214844 -0.578125,1.734375 -0.375,0.523438 -0.855469,0.78125 -1.4375,0.78125 -0.179688,0 -0.328125,-0.0234375 -0.453125,-0.0625 C 1.929688,-0.0390625 1.738281,-0.164062 1.5625,-0.34375 v 1.578125 c 0,0.320313 0.050781,0.519531 0.15625,0.59375 0.113281,0.070313 0.347656,0.117187 0.703125,0.140625 v 0.171875 h -2.375 z m 0,0"
           id="path26" />
      </g>
      <g
         id="use312"
         transform="translate(371.69846,159)">
        <path
           d="m 2.25,-4.5 c 0.445312,0 0.835938,0.15625 1.171875,0.46875 0.34375,0.3125 0.515625,0.757812 0.515625,1.328125 H 0.890625 c 0.039063,0.742187 0.210937,1.28125 0.515625,1.625 0.300781,0.335937 0.660156,0.5 1.078125,0.5 0.332031,0 0.613281,-0.085937 0.84375,-0.265625 0.226563,-0.175781 0.441406,-0.425781 0.640625,-0.75 l 0.171875,0.0625 c -0.136719,0.40625 -0.386719,0.78125 -0.75,1.125 -0.355469,0.34375 -0.792969,0.515625 -1.3125,0.515625 -0.605469,0 -1.074219,-0.222656 -1.40625,-0.671875 C 0.347656,-1.019531 0.1875,-1.546875 0.1875,-2.140625 c 0,-0.632813 0.1875,-1.1875 0.5625,-1.65625 C 1.132812,-4.265625 1.632812,-4.5 2.25,-4.5 Z m -0.28125,0.34375 c -0.367188,0 -0.640625,0.164062 -0.828125,0.484375 -0.105469,0.179687 -0.179687,0.398437 -0.21875,0.65625 H 2.9375 C 2.90625,-3.335938 2.847656,-3.578125 2.765625,-3.734375 2.609375,-4.015625 2.34375,-4.15625 1.96875,-4.15625 Z M 2.1875,-4.5 Z m 0,0"
           id="path66" />
      </g>
    </g>
    <g
       fill="#231f20"
       fill-opacity="1"
       id="g314"
       transform="matrix(0.35277777,0,0,0.35277777,-17.304025,102.86272)">
      <g
         id="use313"
         transform="translate(376.0625,159)">
        <path
           d="M 0.046875,-0.15625 C 0.335938,-0.1875 0.53125,-0.238281 0.625,-0.3125 c 0.09375,-0.082031 0.140625,-0.25 0.140625,-0.5 v -2.171875 c 0,-0.3125 -0.03125,-0.535156 -0.09375,-0.671875 -0.054687,-0.132812 -0.15625,-0.203125 -0.3125,-0.203125 -0.03125,0 -0.074219,0.00781 -0.125,0.015625 -0.054687,0 -0.109375,0.011719 -0.171875,0.03125 v -0.171875 c 0.1875,-0.0625 0.375,-0.125 0.5625,-0.1875 0.195312,-0.070313 0.332031,-0.117187 0.40625,-0.140625 0.15625,-0.0625 0.316406,-0.132812 0.484375,-0.21875 0.03125,0 0.046875,0.011719 0.046875,0.03125 0,0.011719 0,0.042969 0,0.09375 v 0.796875 C 1.769531,-3.898438 1.96875,-4.125 2.15625,-4.28125 2.351562,-4.4375 2.550781,-4.515625 2.75,-4.515625 c 0.164062,0 0.300781,0.046875 0.40625,0.140625 0.101562,0.09375 0.15625,0.21875 0.15625,0.375 0,0.125 -0.042969,0.234375 -0.125,0.328125 -0.074219,0.085937 -0.171875,0.125 -0.296875,0.125 -0.117187,0 -0.234375,-0.050781 -0.359375,-0.15625 C 2.40625,-3.816406 2.304688,-3.875 2.234375,-3.875 c -0.117187,0 -0.257813,0.09375 -0.421875,0.28125 -0.15625,0.179688 -0.234375,0.359375 -0.234375,0.546875 v 2.15625 c 0,0.28125 0.0625,0.476563 0.1875,0.578125 0.132813,0.105469 0.347656,0.15625 0.640625,0.15625 V 0 H 0.046875 Z m 0,0"
           id="path37" />
      </g>
      <g
         id="use314"
         transform="translate(379.33673,159)" />
    </g>
    <g
       fill="#231f20"
       fill-opacity="1"
       id="g315"
       transform="matrix(0.35277777,0,0,0.35277777,-17.304025,102.86272)">
      <g
         id="use315"
         transform="translate(509.85001,129.45)">
        <path
           d="M 9.84375,-6.675781 H 8.160156 L 4.589844,-1.492188 4.015625,-6.675781 H 2.105469 l -0.027344,0.167969 c 0.324219,0.019531 0.75,0.027343 0.75,0.472656 0,0.140625 -0.039063,0.296875 -0.136719,0.664062 L 1.523438,-1.175781 C 1.246094,-0.160156 0.910156,-0.167969 0.503906,-0.167969 L 0.476562,0 h 2.125 l 0.03125,-0.167969 c -0.277343,-0.011719 -0.753906,-0.03125 -0.753906,-0.476562 0,-0.097657 0.03125,-0.285157 0.128906,-0.632813 L 3.195312,-5.492188 3.828125,0 h 0.1875 l 3.75,-5.460938 -1.128906,4.292969 c -0.226563,0.851563 -0.453125,0.96875 -1.226563,1 L 5.382812,0 h 2.917969 l 0.027344,-0.167969 c -0.375,0 -0.75,0.007813 -0.75,-0.484375 0,-0.128906 0.019531,-0.289062 0.078125,-0.496094 L 8.863281,-5.519531 C 9.0625,-6.230469 9.359375,-6.507812 9.8125,-6.507812 l 0.03125,-0.167969"
           id="path77" />
      </g>
    </g>
    <g
       fill="#231f20"
       fill-opacity="1"
       id="g317"
       transform="matrix(0.35277777,0,0,0.35277777,-17.304025,102.86272)">
      <g
         id="use317"
         transform="translate(170.55025,129.45)">
        <path
           d="M 9.84375,-6.675781 H 8.160156 L 4.589844,-1.492188 4.015625,-6.675781 H 2.105469 l -0.027344,0.167969 c 0.324219,0.019531 0.75,0.027343 0.75,0.472656 0,0.140625 -0.039063,0.296875 -0.136719,0.664062 L 1.523438,-1.175781 C 1.246094,-0.160156 0.910156,-0.167969 0.503906,-0.167969 L 0.476562,0 h 2.125 l 0.03125,-0.167969 c -0.277343,-0.011719 -0.753906,-0.03125 -0.753906,-0.476562 0,-0.097657 0.03125,-0.285157 0.128906,-0.632813 L 3.195312,-5.492188 3.828125,0 h 0.1875 l 3.75,-5.460938 -1.128906,4.292969 c -0.226563,0.851563 -0.453125,0.96875 -1.226563,1 L 5.382812,0 h 2.917969 l 0.027344,-0.167969 c -0.375,0 -0.75,0.007813 -0.75,-0.484375 0,-0.128906 0.019531,-0.289062 0.078125,-0.496094 L 8.863281,-5.519531 C 9.0625,-6.230469 9.359375,-6.507812 9.8125,-6.507812 l 0.03125,-0.167969"
           id="path78" />
      </g>
    </g>
    <g
       fill="#231f20"
       fill-opacity="1"
       id="g319"
       transform="matrix(0.35277777,0,0,0.35277777,-17.304025,102.86272)">
      <g
         id="use319"
         transform="translate(236.77528,128.47501)">
        <path
           d="m 7.074219,-5.113281 c 0,-0.742188 -0.496094,-1.5625 -2.285157,-1.5625 H 2.503906 l -0.019531,0.167969 c 0.324219,0.019531 0.742187,0.027343 0.742187,0.472656 0,0.140625 -0.03125,0.296875 -0.140624,0.664062 L 1.917969,-1.15625 C 1.640625,-0.160156 1.335938,-0.207031 0.890625,-0.167969 L 0.871094,0 h 2.679687 l 0.019531,-0.167969 c -0.257812,0 -0.742187,-0.039062 -0.742187,-0.523437 0,-0.089844 0.011719,-0.199219 0.050781,-0.328125 l 0.582032,-2.144531 c 0.386718,0 0.773437,0 0.773437,0 2.125,0 2.839844,-1.050782 2.839844,-1.949219 z M 6.054688,-5.203125 c 0,1.207031 -0.871094,1.722656 -1.898438,1.722656 H 3.5625 l 0.808594,-2.910156 h 0.328125 c 0.96875,0 1.355469,0.40625 1.355469,1.1875"
           id="path89" />
      </g>
    </g>
    <g
       fill="#231f20"
       fill-opacity="1"
       id="g321"
       transform="matrix(0.35277777,0,0,0.35277777,-17.304025,102.86272)">
      <g
         id="use321"
         transform="translate(242.8503,129.97501)">
        <path
           d="m 4.660156,-0.195312 c -0.460937,0 -0.5,-0.195313 -0.523437,-0.621094 L 3.96875,-4.660156 H 3.769531 l -2.71875,3.945312 c -0.3125,0.441406 -0.476562,0.519532 -0.695312,0.519532 L 0.324219,0 h 1.359375 l 0.03125,-0.195312 c -0.246094,0 -0.394532,-0.046876 -0.394532,-0.214844 0,-0.101563 0.050782,-0.242188 0.171876,-0.417969 l 0.460937,-0.675781 h 1.402344 l 0.039062,0.800781 C 3.40625,-0.242188 3.199219,-0.195312 2.820312,-0.195312 L 2.777344,0 h 1.839844 z m -1.308594,-1.625 H 2.179688 l 1.09375,-1.585938 z m 0,0"
           id="path82" />
      </g>
    </g>
    <g
       fill="#231f20"
       fill-opacity="1"
       id="g323"
       transform="matrix(0.35277777,0,0,0.35277777,-17.304025,102.86272)">
      <g
         id="use323"
         transform="translate(443.70007,128.47501)">
        <path
           d="M 5.984375,-6.824219 H 5.777344 c -0.117188,0.226563 -0.257813,0.335938 -0.476563,0.335938 -0.316406,0 -0.730469,-0.335938 -1.492187,-0.335938 -0.988282,0 -1.917969,0.632813 -1.917969,1.699219 0,1.515625 2.3125,2.238281 2.3125,3.613281 0,0.621094 -0.492187,1.3125 -1.375,1.3125 -0.761719,0 -1.5625,-0.601562 -1.5625,-1.671875 0,-0.15625 0.011719,-0.265625 0.03125,-0.363281 H 1.097656 L 0.671875,0.128906 h 0.179687 c 0.089844,-0.1992185 0.207032,-0.386718 0.464844,-0.386718 0.296875,0 0.910156,0.40625 1.671875,0.40625 1.433594,0 2.15625,-1.027344 2.15625,-1.96875 0,-1.621094 -2.355469,-2.402344 -2.355469,-3.640626 0,-0.613281 0.484376,-1.019531 1.136719,-1.019531 0.8125,0 1.425781,0.546875 1.445313,1.355469 0.011718,0.160156 0,0.277344 -0.019532,0.40625 h 0.1875 l 0.445313,-2.105469"
           id="path88" />
      </g>
    </g>
    <g
       fill="#231f20"
       fill-opacity="1"
       id="g325"
       transform="matrix(0.35277777,0,0,0.35277777,-17.304025,102.86272)">
      <g
         id="use325"
         transform="translate(448.95007,129.97501)">
        <path
           d="m 4.660156,-0.195312 c -0.460937,0 -0.5,-0.195313 -0.523437,-0.621094 L 3.96875,-4.660156 H 3.769531 l -2.71875,3.945312 c -0.3125,0.441406 -0.476562,0.519532 -0.695312,0.519532 L 0.324219,0 h 1.359375 l 0.03125,-0.195312 c -0.246094,0 -0.394532,-0.046876 -0.394532,-0.214844 0,-0.101563 0.050782,-0.242188 0.171876,-0.417969 l 0.460937,-0.675781 h 1.402344 l 0.039062,0.800781 C 3.40625,-0.242188 3.199219,-0.195312 2.820312,-0.195312 L 2.777344,0 h 1.839844 z m -1.308594,-1.625 H 2.179688 l 1.09375,-1.585938 z m 0,0"
           id="path83" />
      </g>
    </g>
    <g
       fill="#231f20"
       fill-opacity="1"
       id="g327"
       transform="matrix(0.35277777,0,0,0.35277777,-17.304025,102.86272)">
      <g
         id="use327"
         transform="translate(393.07501,177)">
        <path
           d="M 7.460938,-6.324219 7.253906,-6.339844 c -0.078125,0.113282 -0.1875,0.253906 -0.425781,0.238282 -0.226563,-0.015626 -0.851563,-0.339844 -1.535156,-0.386719 -2.164063,-0.152344 -4.347657,1.8125 -4.5,3.949219 C 0.671875,-0.808594 1.886719,0.28125 3.304688,0.378906 4.558594,0.46875 5.710938,-0.226562 6.277344,-1.0625 L 6,-1.089844 C 5.484375,-0.53125 4.6875,0.0390625 3.679688,-0.03125 2.582031,-0.109375 1.914062,-0.917969 2.011719,-2.34375 c 0.121093,-1.742188 1.449219,-3.933594 3.347656,-3.800781 1.039063,0.074219 1.417969,0.792969 1.34375,1.851562 l 0.175781,0.011719 0.582032,-2.042969"
           id="path81" />
      </g>
    </g>
    <g
       fill="#231f20"
       fill-opacity="1"
       id="g329"
       transform="matrix(0.35277777,0,0,0.35277777,-17.304025,102.86272)">
      <g
         id="use329"
         transform="translate(319.95001,121.2)">
        <path
           d="M 6.984375,-6.816406 H 6.777344 c -0.070313,0.121094 -0.167969,0.265625 -0.40625,0.265625 -0.226563,0 -0.871094,-0.273438 -1.554688,-0.273438 -2.164062,0 -4.203125,2.105469 -4.203125,4.242188 0,1.730469 1.285157,2.730469 2.699219,2.730469 1.257812,0 2.355469,-0.773438 2.859375,-1.640626 L 5.894531,-1.503906 c -0.472656,0.59375 -1.226562,1.21875 -2.234375,1.21875 -1.097656,0 -1.820312,-0.761719 -1.820312,-2.1875 0,-1.742188 1.167968,-4.015625 3.066406,-4.015625 1.039062,0 1.464844,0.691406 1.464844,1.75 h 0.179687 l 0.433594,-2.078125"
           id="path87" />
      </g>
    </g>
    <g
       fill="#231f20"
       fill-opacity="1"
       id="g331"
       transform="matrix(0.35277777,0,0,0.35277777,-17.304025,102.86272)">
      <g
         id="use331"
         transform="translate(330.82501,121.2)">
        <path
           d="M 7.4375,-3.214844 V -3.769531 H 0.832031 v 0.554687 z m 0,2 V -1.769531 H 0.832031 v 0.554687 H 7.4375"
           id="path80" />
      </g>
    </g>
    <g
       fill="#231f20"
       fill-opacity="1"
       id="g333"
       transform="matrix(0.35277777,0,0,0.35277777,-17.304025,102.86272)">
      <g
         id="use333"
         transform="translate(341.92499,121.2)">
        <path
           d="m 7.074219,-5.113281 c 0,-0.742188 -0.496094,-1.5625 -2.285157,-1.5625 H 2.503906 l -0.019531,0.167969 c 0.324219,0.019531 0.742187,0.027343 0.742187,0.472656 0,0.140625 -0.03125,0.296875 -0.140624,0.664062 L 1.917969,-1.15625 C 1.640625,-0.160156 1.335938,-0.207031 0.890625,-0.167969 L 0.871094,0 h 2.679687 l 0.019531,-0.167969 c -0.257812,0 -0.742187,-0.039062 -0.742187,-0.523437 0,-0.089844 0.011719,-0.199219 0.050781,-0.328125 l 0.582032,-2.144531 c 0.386718,0 0.773437,0 0.773437,0 2.125,0 2.839844,-1.050782 2.839844,-1.949219 z M 6.054688,-5.203125 c 0,1.207031 -0.871094,1.722656 -1.898438,1.722656 H 3.5625 l 0.808594,-2.910156 h 0.328125 c 0.96875,0 1.355469,0.40625 1.355469,1.1875"
           id="path90" />
      </g>
    </g>
    <g
       fill="#231f20"
       fill-opacity="1"
       id="g335"
       transform="matrix(0.35277777,0,0,0.35277777,-17.304025,102.86272)">
      <g
         id="use335"
         transform="translate(348,122.7)">
        <path
           d="m 4.660156,-0.195312 c -0.460937,0 -0.5,-0.195313 -0.523437,-0.621094 L 3.96875,-4.660156 H 3.769531 l -2.71875,3.945312 c -0.3125,0.441406 -0.476562,0.519532 -0.695312,0.519532 L 0.324219,0 h 1.359375 l 0.03125,-0.195312 c -0.246094,0 -0.394532,-0.046876 -0.394532,-0.214844 0,-0.101563 0.050782,-0.242188 0.171876,-0.417969 l 0.460937,-0.675781 h 1.402344 l 0.039062,0.800781 C 3.40625,-0.242188 3.199219,-0.195312 2.820312,-0.195312 L 2.777344,0 h 1.839844 z m -1.308594,-1.625 H 2.179688 l 1.09375,-1.585938 z m 0,0"
           id="path84" />
      </g>
    </g>
    <g
       fill="#231f20"
       fill-opacity="1"
       id="g337"
       transform="matrix(0.35277777,0,0,0.35277777,-17.304025,102.86272)">
      <g
         id="use337"
         transform="translate(353.47501,121.2)">
        <path
           d="M 3.542969,2.117188 V 1.9375 C 2.335938,1.246094 1.78125,-0.148438 1.78125,-2.503906 c 0,-2.3125 0.542969,-3.6875 1.761719,-4.421875 V -7.09375 c -1.710938,0.871094 -2.710938,2.5625 -2.710938,4.601562 0,2.066407 0.96875,3.660157 2.710938,4.609376"
           id="path86" />
      </g>
    </g>
    <g
       fill="#231f20"
       fill-opacity="1"
       id="g338"
       transform="matrix(0.35277777,0,0,0.35277777,-17.304025,102.86272)">
      <g
         id="use338"
         transform="translate(357.16409,121.2)">
        <path
           d="M 9.84375,-6.675781 H 8.160156 L 4.589844,-1.492188 4.015625,-6.675781 H 2.105469 l -0.027344,0.167969 c 0.324219,0.019531 0.75,0.027343 0.75,0.472656 0,0.140625 -0.039063,0.296875 -0.136719,0.664062 L 1.523438,-1.175781 C 1.246094,-0.160156 0.910156,-0.167969 0.503906,-0.167969 L 0.476562,0 h 2.125 l 0.03125,-0.167969 c -0.277343,-0.011719 -0.753906,-0.03125 -0.753906,-0.476562 0,-0.097657 0.03125,-0.285157 0.128906,-0.632813 L 3.195312,-5.492188 3.828125,0 h 0.1875 l 3.75,-5.460938 -1.128906,4.292969 c -0.226563,0.851563 -0.453125,0.96875 -1.226563,1 L 5.382812,0 h 2.917969 l 0.027344,-0.167969 c -0.375,0 -0.75,0.007813 -0.75,-0.484375 0,-0.128906 0.019531,-0.289062 0.078125,-0.496094 L 8.863281,-5.519531 C 9.0625,-6.230469 9.359375,-6.507812 9.8125,-6.507812 l 0.03125,-0.167969"
           id="path79" />
      </g>
    </g>
    <g
       fill="#231f20"
       fill-opacity="1"
       id="g339"
       transform="matrix(0.35277777,0,0,0.35277777,-17.304025,102.86272)">
      <g
         id="use339"
         transform="translate(367.94574,121.2)">
        <path
           d="m 2.859375,-2.484375 c 0,-2.054687 -0.96875,-3.648437 -2.710937,-4.609375 v 0.179688 c 1.207031,0.703124 1.761718,2.097656 1.761718,4.441406 0,2.324218 -0.546875,3.699218 -1.761718,4.421875 V 2.117188 C 1.859375,1.257812 2.859375,-0.433594 2.859375,-2.484375"
           id="path85" />
      </g>
    </g>
  </g>
</svg>
