<?xml version="1.0" encoding="UTF-8" standalone="no"?>
<!-- Created with Inkscape (http://www.inkscape.org/) -->

<svg
   width="127.5398mm"
   height="37.620441mm"
   viewBox="0 0 127.5398 37.620441"
   version="1.1"
   id="svg1"
   inkscape:version="1.3.2 (091e20e, 2023-11-25)"
   sodipodi:docname="rsa_signature.svg"
   xmlns:inkscape="http://www.inkscape.org/namespaces/inkscape"
   xmlns:sodipodi="http://sodipodi.sourceforge.net/DTD/sodipodi-0.dtd"
   xmlns="http://www.w3.org/2000/svg"
   xmlns:svg="http://www.w3.org/2000/svg">
  <sodipodi:namedview
     id="namedview1"
     pagecolor="#ffffff"
     bordercolor="#000000"
     borderopacity="0.25"
     inkscape:showpageshadow="2"
     inkscape:pageopacity="0.0"
     inkscape:pagecheckerboard="0"
     inkscape:deskcolor="#d1d1d1"
     inkscape:document-units="mm"
     inkscape:zoom="0.2102413"
     inkscape:cx="242.57841"
     inkscape:cy="71.34659"
     inkscape:window-width="1312"
     inkscape:window-height="449"
     inkscape:window-x="0"
     inkscape:window-y="38"
     inkscape:window-maximized="0"
     inkscape:current-layer="layer1" />
  <defs
     id="defs1" />
  <g
     inkscape:label="Layer 1"
     inkscape:groupmode="layer"
     id="layer1"
     transform="translate(-40.570194,-129.66998)">
    <path
       fill-rule="nonzero"
       fill="#fee4b3"
       fill-opacity="1"
       d="m 145.52083,155.91169 h 7.75284 v -5.21312 h -7.75284 v 5.21312"
       id="path276"
       style="stroke-width:0.352778" />
    <path
       fill="none"
       stroke-width="0.144198"
       stroke-linecap="butt"
       stroke-linejoin="miter"
       stroke="#f58220"
       stroke-opacity="1"
       stroke-miterlimit="4"
       d="m 145.52085,155.91166 h 7.75284 v -5.21311 h -7.75284 z m 0,0"
       id="path277" />
    <path
       fill-rule="nonzero"
       fill="#fee4b3"
       fill-opacity="1"
       d="m 58.366809,149.40184 h 10.398675 v -7.77765 H 58.366809 v 7.77765"
       id="path278"
       style="stroke-width:0.352778" />
    <path
       fill="none"
       stroke-width="0.144198"
       stroke-linecap="butt"
       stroke-linejoin="miter"
       stroke="#f58220"
       stroke-opacity="1"
       stroke-miterlimit="4"
       d="m 58.366816,149.40181 h 10.398676 v -7.77765 H 58.366816 Z m 0,0"
       id="path279" />
    <path
       fill="none"
       stroke-width="0.144198"
       stroke-linecap="butt"
       stroke-linejoin="miter"
       stroke="#231f20"
       stroke-opacity="1"
       stroke-miterlimit="4"
       d="M 45.243757,161.12341 H 148.16668 M 53.155074,146.75598 v 14.44735"
       id="path280" />
    <path
       fill-rule="evenodd"
       fill="#231f20"
       fill-opacity="1"
       d="m 58.366809,145.51301 -3.121258,0.89986 1.03215,-0.89986 -1.03215,-0.89986 3.121258,0.89986"
       id="path281"
       style="stroke-width:0.352778" />
    <path
       fill="none"
       stroke-width="0.144198"
       stroke-linecap="butt"
       stroke-linejoin="miter"
       stroke="#231f20"
       stroke-opacity="1"
       stroke-miterlimit="4"
       d="m 54.345699,145.51299 h 2.010558 m 12.329309,0 h 17.01326"
       id="path282" />
    <path
       fill-rule="evenodd"
       fill="#231f20"
       fill-opacity="1"
       d="m 86.941808,161.12343 -0.898482,-3.06889 0.898482,0.9784 0.899859,-0.9784 -0.899859,3.06889"
       id="path283"
       style="stroke-width:0.352778" />
    <path
       fill="none"
       stroke-width="0.144198"
       stroke-linecap="butt"
       stroke-linejoin="miter"
       stroke="#231f20"
       stroke-opacity="1"
       stroke-miterlimit="4"
       d="m 86.941817,146.75598 v 12.35687"
       id="path284" />
    <g
       fill="#231f20"
       fill-opacity="1"
       id="g284"
       transform="matrix(0.35277777,0,0,0.35277777,-18.943889,100.93072)">
      <g
         id="use284"
         transform="translate(225.60001,110.4)">
        <path
           d="m 0.515625,-1.515625 h 0.15625 c 0.070313,0.367187 0.171875,0.648437 0.296875,0.84375 0.21875,0.355469 0.546875,0.53125 0.984375,0.53125 0.238281,0 0.425781,-0.0625 0.5625,-0.1875 0.132813,-0.132813 0.203125,-0.304687 0.203125,-0.515625 0,-0.132812 -0.042969,-0.265625 -0.125,-0.390625 -0.074219,-0.125 -0.210938,-0.25 -0.40625,-0.375 L 1.640625,-1.90625 C 1.253906,-2.125 0.96875,-2.335938 0.78125,-2.546875 0.59375,-2.765625 0.5,-3.019531 0.5,-3.3125 c 0,-0.351562 0.125,-0.644531 0.375,-0.875 0.257812,-0.226562 0.582031,-0.34375 0.96875,-0.34375 0.175781,0 0.363281,0.03125 0.5625,0.09375 0.207031,0.0625 0.320312,0.09375 0.34375,0.09375 0.0625,0 0.101562,-0.00391 0.125,-0.015625 C 2.894531,-4.378906 2.914062,-4.40625 2.9375,-4.4375 h 0.125 l 0.03125,1.328125 H 2.9375 C 2.875,-3.421875 2.789062,-3.660156 2.6875,-3.828125 2.488281,-4.148438 2.203125,-4.3125 1.828125,-4.3125 c -0.230469,0 -0.40625,0.074219 -0.53125,0.21875 -0.125,0.136719 -0.1875,0.292969 -0.1875,0.46875 0,0.304688 0.21875,0.570312 0.65625,0.796875 l 0.640625,0.34375 C 3.082031,-2.117188 3.421875,-1.6875 3.421875,-1.1875 3.421875,-0.8125 3.28125,-0.503906 3,-0.265625 2.71875,-0.0234375 2.347656,0.09375 1.890625,0.09375 1.691406,0.09375 1.472656,0.0625 1.234375,0 0.992188,-0.0625 0.847656,-0.09375 0.796875,-0.09375 c -0.03125,0 -0.0625,0.015625 -0.09375,0.046875 C 0.671875,-0.0234375 0.648438,0 0.640625,0.03125 h -0.125 z m 1.40625,-3.015625 z m 0,0"
           id="path14" />
      </g>
    </g>
    <g
       fill="#231f20"
       fill-opacity="1"
       id="g285"
       transform="matrix(0.35277777,0,0,0.35277777,-18.943889,100.93072)">
      <g
         id="use285"
         transform="translate(229.42616,110.4)">
        <path
           d="m 0.8125,-6.203125 c 0,-0.132813 0.046875,-0.25 0.140625,-0.34375 0.09375,-0.101563 0.210937,-0.15625 0.359375,-0.15625 0.132812,0 0.25,0.054687 0.34375,0.15625 0.09375,0.09375 0.140625,0.210937 0.140625,0.34375 C 1.796875,-6.054688 1.75,-5.9375 1.65625,-5.84375 1.5625,-5.75 1.445312,-5.703125 1.3125,-5.703125 1.164062,-5.703125 1.046875,-5.75 0.953125,-5.84375 0.859375,-5.9375 0.8125,-6.054688 0.8125,-6.203125 Z m -0.625,6.0625 C 0.53125,-0.171875 0.742188,-0.226562 0.828125,-0.3125 0.921875,-0.394531 0.96875,-0.625 0.96875,-1 v -2.28125 c 0,-0.207031 -0.011719,-0.351562 -0.03125,-0.4375 -0.054688,-0.132812 -0.15625,-0.203125 -0.3125,-0.203125 -0.03125,0 -0.070312,0.00781 -0.109375,0.015625 -0.03125,0.011719 -0.125,0.039062 -0.28125,0.078125 v -0.15625 l 0.203125,-0.0625 c 0.5625,-0.175781 0.953125,-0.3125 1.171875,-0.40625 0.09375,-0.039063 0.148437,-0.0625 0.171875,-0.0625 0.00781,0.023437 0.015625,0.046875 0.015625,0.078125 V -1 c 0,0.367188 0.039063,0.59375 0.125,0.6875 0.09375,0.09375 0.296875,0.152344 0.609375,0.171875 V 0 H 0.1875 Z m 0,0"
           id="path9" />
      </g>
    </g>
    <g
       fill="#231f20"
       fill-opacity="1"
       id="g288"
       transform="matrix(0.35277777,0,0,0.35277777,-18.943889,100.93072)">
      <g
         id="use286"
         transform="translate(232.15781,110.4)">
        <path
           d="m 0.96875,0.890625 c 0,0.269531 0.148438,0.453125 0.453125,0.546875 0.300781,0.101562 0.644531,0.15625 1.03125,0.15625 C 2.984375,1.59375 3.414062,1.5 3.75,1.3125 4.082031,1.132812 4.25,0.910156 4.25,0.640625 4.25,0.429688 4.113281,0.289062 3.84375,0.21875 3.675781,0.175781 3.363281,0.148438 2.90625,0.140625 c -0.125,0 -0.257812,-0.007813 -0.390625,-0.015625 -0.125,0 -0.242187,-0.007812 -0.34375,-0.015625 -0.074219,0 -0.1875,-0.0117188 -0.34375,-0.03125 -0.15625,-0.0234375 -0.273437,-0.0429688 -0.34375,-0.0625 -0.042969,0 -0.140625,0.101563 -0.296875,0.3125 -0.148438,0.195313 -0.21875,0.382813 -0.21875,0.5625 z m 0.625,-2.5 C 1.300781,-1.703125 1.070312,-1.875 0.90625,-2.125 0.75,-2.375 0.671875,-2.648438 0.671875,-2.953125 c 0,-0.375 0.144531,-0.726563 0.4375,-1.0625 0.300781,-0.34375 0.722656,-0.515625 1.265625,-0.515625 0.226562,0 0.484375,0.058594 0.765625,0.171875 0.289063,0.117187 0.5625,0.171875 0.8125,0.171875 0.070313,0 0.175781,0 0.3125,0 C 4.398438,-4.195312 4.5,-4.203125 4.5625,-4.203125 H 4.609375 V -3.8125 H 3.78125 c 0.0625,0.125 0.109375,0.242188 0.140625,0.34375 C 3.972656,-3.28125 4,-3.101562 4,-2.9375 c 0,0.367188 -0.152344,0.699219 -0.453125,1 -0.304687,0.304688 -0.710937,0.453125 -1.21875,0.453125 -0.085937,0 -0.230469,-0.00781 -0.4375,-0.03125 -0.09375,0 -0.21875,0.078125 -0.375,0.234375 -0.148437,0.15625 -0.21875,0.28125 -0.21875,0.375 0,0.105469 0.113281,0.183594 0.34375,0.234375 C 1.785156,-0.640625 1.945312,-0.625 2.125,-0.625 c 0.820312,0 1.378906,0.046875 1.671875,0.140625 0.488281,0.148437 0.734375,0.46875 0.734375,0.96875 0,0.5 -0.289062,0.898437 -0.859375,1.203125 -0.5625,0.300781 -1.132813,0.453125 -1.703125,0.453125 -0.523438,0 -0.9375,-0.109375 -1.25,-0.328125 C 0.414062,1.601562 0.265625,1.382812 0.265625,1.15625 0.265625,1.039062 0.300781,0.925781 0.375,0.8125 0.457031,0.695312 0.617188,0.535156 0.859375,0.328125 L 1.1875,0.03125 1.234375,-0.015625 C 1.085938,-0.078125 0.976562,-0.132812 0.90625,-0.1875 c -0.125,-0.09375 -0.1875,-0.207031 -0.1875,-0.34375 0,-0.113281 0.050781,-0.238281 0.15625,-0.375 0.113281,-0.144531 0.351562,-0.378906 0.71875,-0.703125 z M 2.5,-1.703125 c 0.175781,0 0.320312,-0.050781 0.4375,-0.15625 C 3.132812,-2.003906 3.234375,-2.269531 3.234375,-2.65625 3.234375,-2.957031 3.15625,-3.296875 3,-3.671875 2.84375,-4.054688 2.582031,-4.25 2.21875,-4.25 c -0.3125,0 -0.527344,0.148438 -0.640625,0.4375 -0.0625,0.15625 -0.09375,0.355469 -0.09375,0.59375 0,0.386719 0.09375,0.734375 0.28125,1.046875 0.1875,0.3125 0.429687,0.46875 0.734375,0.46875 z M 2.46875,-4.53125 Z m 0,0"
           id="path8" />
      </g>
      <g
         id="use287"
         transform="translate(237.07407,110.4)">
        <path
           d="M 0.171875,-0.140625 C 0.398438,-0.160156 0.5625,-0.210938 0.65625,-0.296875 0.75,-0.390625 0.796875,-0.582031 0.796875,-0.875 v -2.4375 c 0,-0.195312 -0.023437,-0.335938 -0.0625,-0.421875 -0.0625,-0.125 -0.1875,-0.1875 -0.375,-0.1875 -0.03125,0 -0.0625,0.00781 -0.09375,0.015625 -0.03125,0 -0.070313,0 -0.109375,0 V -4.0625 c 0.132812,-0.039062 0.445312,-0.140625 0.9375,-0.296875 l 0.453125,-0.15625 c 0.019531,0 0.03125,0.011719 0.03125,0.03125 0.00781,0.011719 0.015625,0.03125 0.015625,0.0625 v 0.703125 c 0.289062,-0.269531 0.519531,-0.457031 0.6875,-0.5625 0.25,-0.15625 0.507812,-0.234375 0.78125,-0.234375 0.21875,0 0.414062,0.0625 0.59375,0.1875 C 4,-4.085938 4.171875,-3.65625 4.171875,-3.03125 v 2.234375 c 0,0.230469 0.046875,0.398437 0.140625,0.5 0.09375,0.105469 0.25,0.15625 0.46875,0.15625 V 0 h -2.0625 v -0.140625 c 0.238281,-0.03125 0.40625,-0.09375 0.5,-0.1875 0.09375,-0.09375 0.140625,-0.304687 0.140625,-0.640625 v -2.046875 c 0,-0.269531 -0.054687,-0.492187 -0.15625,-0.671875 -0.105469,-0.1875 -0.292969,-0.28125 -0.5625,-0.28125 -0.199219,0 -0.390625,0.0625 -0.578125,0.1875 -0.117188,0.074219 -0.257812,0.199219 -0.421875,0.375 v 2.6875 c 0,0.230469 0.046875,0.386719 0.140625,0.46875 0.101562,0.074219 0.269531,0.109375 0.5,0.109375 V 0 H 0.171875 Z m 2.296875,-4.375 z m 0,0"
           id="path3" />
      </g>
      <g
         id="use288"
         transform="translate(241.99031,110.4)" />
    </g>
    <g
       fill="#231f20"
       fill-opacity="1"
       id="g289"
       transform="matrix(0.35277777,0,0,0.35277777,-18.943889,100.93072)">
      <g
         id="use289"
         transform="translate(312,187.95)">
        <path
           d="m 2.4375,-4.53125 c 0.40625,0 0.75,0.105469 1.03125,0.3125 0.289062,0.210938 0.4375,0.4375 0.4375,0.6875 0,0.105469 -0.039062,0.203125 -0.109375,0.296875 -0.074219,0.085937 -0.1875,0.125 -0.34375,0.125 C 3.347656,-3.109375 3.25,-3.144531 3.15625,-3.21875 3.070312,-3.289062 3.015625,-3.40625 2.984375,-3.5625 l -0.0625,-0.21875 C 2.878906,-3.957031 2.804688,-4.078125 2.703125,-4.140625 2.597656,-4.210938 2.460938,-4.25 2.296875,-4.25 c -0.375,0 -0.6875,0.164062 -0.9375,0.484375 -0.25,0.3125 -0.375,0.734375 -0.375,1.265625 0,0.480469 0.132813,0.914062 0.40625,1.296875 0.28125,0.386719 0.660156,0.578125 1.140625,0.578125 0.320312,0 0.613281,-0.109375 0.875,-0.328125 0.144531,-0.125 0.3125,-0.320313 0.5,-0.59375 L 4.046875,-1.46875 C 3.859375,-1.082031 3.664062,-0.773438 3.46875,-0.546875 3.082031,-0.117188 2.632812,0.09375 2.125,0.09375 1.625,0.09375 1.179688,-0.101562 0.796875,-0.5 0.410156,-0.894531 0.21875,-1.429688 0.21875,-2.109375 c 0,-0.65625 0.207031,-1.222656 0.625,-1.703125 0.425781,-0.476562 0.957031,-0.71875 1.59375,-0.71875 z m -0.203125,0 z m 0,0"
           id="path15" />
      </g>
    </g>
    <g
       fill="#231f20"
       fill-opacity="1"
       id="g291"
       transform="matrix(0.35277777,0,0,0.35277777,-18.943889,100.93072)">
      <g
         id="use290"
         transform="translate(316.36407,187.95)">
        <path
           d="M 0.25,-2.234375 C 0.25,-2.867188 0.453125,-3.40625 0.859375,-3.84375 1.265625,-4.28125 1.785156,-4.5 2.421875,-4.5 c 0.632813,0 1.15625,0.210938 1.5625,0.625 0.414063,0.417969 0.625,0.96875 0.625,1.65625 0,0.636719 -0.203125,1.195312 -0.609375,1.671875 -0.398438,0.46875 -0.914062,0.703125 -1.546875,0.703125 -0.617187,0 -1.136719,-0.2226562 -1.5625,-0.671875 C 0.460938,-0.972656 0.25,-1.546875 0.25,-2.234375 Z M 2.28125,-4.21875 c -0.25,0 -0.46875,0.085938 -0.65625,0.25 -0.324219,0.292969 -0.484375,0.796875 -0.484375,1.515625 0,0.5625 0.128906,1.09375 0.390625,1.59375 0.257812,0.492187 0.617188,0.734375 1.078125,0.734375 0.351563,0 0.625,-0.160156 0.8125,-0.484375 0.195313,-0.332031 0.296875,-0.769531 0.296875,-1.3125 0,-0.550781 -0.125,-1.070313 -0.375,-1.5625 C 3.101562,-3.972656 2.75,-4.21875 2.28125,-4.21875 Z M 2.46875,-4.5 Z m 0,0"
           id="path93" />
      </g>
      <g
         id="use291"
         transform="translate(321.2803,187.95)">
        <path
           d="m 0.15625,-0.125 c 0.25,-0.019531 0.414062,-0.0625 0.5,-0.125 0.125,-0.09375 0.1875,-0.28125 0.1875,-0.5625 V -3.28125 C 0.84375,-3.519531 0.8125,-3.675781 0.75,-3.75 0.6875,-3.820312 0.585938,-3.859375 0.453125,-3.859375 c -0.074219,0 -0.125,0.00781 -0.15625,0.015625 -0.03125,0 -0.074219,0.011719 -0.125,0.03125 v -0.171875 l 0.34375,-0.125 c 0.125,-0.039063 0.328125,-0.113281 0.609375,-0.21875 0.289062,-0.101563 0.445312,-0.15625 0.46875,-0.15625 0.00781,0 0.015625,0.011719 0.015625,0.03125 C 1.617188,-4.441406 1.625,-4.414062 1.625,-4.375 v 0.640625 c 0.3125,-0.28125 0.582031,-0.472656 0.8125,-0.578125 0.226562,-0.113281 0.46875,-0.171875 0.71875,-0.171875 0.320312,0 0.582031,0.109375 0.78125,0.328125 0.101562,0.125 0.1875,0.292969 0.25,0.5 0.238281,-0.238281 0.445312,-0.414062 0.625,-0.53125 0.300781,-0.195312 0.613281,-0.296875 0.9375,-0.296875 0.507812,0 0.851562,0.210937 1.03125,0.625 0.09375,0.230469 0.140625,0.605469 0.140625,1.125 V -0.75 c 0,0.230469 0.050781,0.386719 0.15625,0.46875 C 7.179688,-0.195312 7.363281,-0.144531 7.625,-0.125 V 0 H 5.453125 V -0.140625 C 5.734375,-0.160156 5.914062,-0.210938 6,-0.296875 6.09375,-0.390625 6.140625,-0.566406 6.140625,-0.828125 V -2.90625 c 0,-0.300781 -0.039063,-0.523438 -0.109375,-0.671875 -0.117188,-0.269531 -0.34375,-0.40625 -0.6875,-0.40625 -0.210938,0 -0.417969,0.074219 -0.625,0.21875 -0.117188,0.074219 -0.261719,0.199219 -0.4375,0.375 V -0.9375 c 0,0.261719 0.046875,0.460938 0.140625,0.59375 C 4.515625,-0.207031 4.707031,-0.132812 5,-0.125 V 0 H 2.796875 V -0.125 C 3.097656,-0.164062 3.289062,-0.238281 3.375,-0.34375 3.457031,-0.457031 3.5,-0.722656 3.5,-1.140625 v -1.34375 c 0,-0.5 -0.03125,-0.84375 -0.09375,-1.03125 -0.105469,-0.3125 -0.328125,-0.46875 -0.671875,-0.46875 -0.199219,0 -0.390625,0.058594 -0.578125,0.171875 -0.1875,0.105469 -0.355469,0.246094 -0.5,0.421875 v 2.625 c 0,0.242187 0.039062,0.40625 0.125,0.5 C 1.875,-0.171875 2.0625,-0.125 2.34375,-0.125 V 0 h -2.1875 z m 0,0"
           id="path91" />
      </g>
    </g>
    <g
       fill="#231f20"
       fill-opacity="1"
       id="g292"
       transform="matrix(0.35277777,0,0,0.35277777,-18.943889,100.93072)">
      <g
         id="use292"
         transform="translate(328.92798,187.95)">
        <path
           d="m 0.15625,-0.125 c 0.25,-0.019531 0.414062,-0.0625 0.5,-0.125 0.125,-0.09375 0.1875,-0.28125 0.1875,-0.5625 V -3.28125 C 0.84375,-3.519531 0.8125,-3.675781 0.75,-3.75 0.6875,-3.820312 0.585938,-3.859375 0.453125,-3.859375 c -0.074219,0 -0.125,0.00781 -0.15625,0.015625 -0.03125,0 -0.074219,0.011719 -0.125,0.03125 v -0.171875 l 0.34375,-0.125 c 0.125,-0.039063 0.328125,-0.113281 0.609375,-0.21875 0.289062,-0.101563 0.445312,-0.15625 0.46875,-0.15625 0.00781,0 0.015625,0.011719 0.015625,0.03125 C 1.617188,-4.441406 1.625,-4.414062 1.625,-4.375 v 0.640625 c 0.3125,-0.28125 0.582031,-0.472656 0.8125,-0.578125 0.226562,-0.113281 0.46875,-0.171875 0.71875,-0.171875 0.320312,0 0.582031,0.109375 0.78125,0.328125 0.101562,0.125 0.1875,0.292969 0.25,0.5 0.238281,-0.238281 0.445312,-0.414062 0.625,-0.53125 0.300781,-0.195312 0.613281,-0.296875 0.9375,-0.296875 0.507812,0 0.851562,0.210937 1.03125,0.625 0.09375,0.230469 0.140625,0.605469 0.140625,1.125 V -0.75 c 0,0.230469 0.050781,0.386719 0.15625,0.46875 C 7.179688,-0.195312 7.363281,-0.144531 7.625,-0.125 V 0 H 5.453125 V -0.140625 C 5.734375,-0.160156 5.914062,-0.210938 6,-0.296875 6.09375,-0.390625 6.140625,-0.566406 6.140625,-0.828125 V -2.90625 c 0,-0.300781 -0.039063,-0.523438 -0.109375,-0.671875 -0.117188,-0.269531 -0.34375,-0.40625 -0.6875,-0.40625 -0.210938,0 -0.417969,0.074219 -0.625,0.21875 -0.117188,0.074219 -0.261719,0.199219 -0.4375,0.375 V -0.9375 c 0,0.261719 0.046875,0.460938 0.140625,0.59375 C 4.515625,-0.207031 4.707031,-0.132812 5,-0.125 V 0 H 2.796875 V -0.125 C 3.097656,-0.164062 3.289062,-0.238281 3.375,-0.34375 3.457031,-0.457031 3.5,-0.722656 3.5,-1.140625 v -1.34375 c 0,-0.5 -0.03125,-0.84375 -0.09375,-1.03125 -0.105469,-0.3125 -0.328125,-0.46875 -0.671875,-0.46875 -0.199219,0 -0.390625,0.058594 -0.578125,0.171875 -0.1875,0.105469 -0.355469,0.246094 -0.5,0.421875 v 2.625 c 0,0.242187 0.039062,0.40625 0.125,0.5 C 1.875,-0.171875 2.0625,-0.125 2.34375,-0.125 V 0 h -2.1875 z m 0,0"
           id="path92" />
      </g>
    </g>
    <g
       fill="#231f20"
       fill-opacity="1"
       id="g295"
       transform="matrix(0.35277777,0,0,0.35277777,-18.943889,100.93072)">
      <g
         id="use293"
         transform="translate(336.57562,187.95)">
        <path
           d="m 1.515625,-4.4375 v 3.0625 c 0,0.21875 0.03125,0.398438 0.09375,0.53125 0.125,0.242188 0.34375,0.359375 0.65625,0.359375 0.21875,0 0.429687,-0.070313 0.640625,-0.21875 0.113281,-0.082031 0.234375,-0.191406 0.359375,-0.328125 v -2.625 c 0,-0.25 -0.054687,-0.410156 -0.15625,-0.484375 -0.09375,-0.082031 -0.28125,-0.128906 -0.5625,-0.140625 V -4.4375 H 4.09375 v 3.375 c 0,0.21875 0.035156,0.371094 0.109375,0.453125 0.082031,0.074219 0.25,0.105469 0.5,0.09375 V -0.375 c -0.179687,0.054688 -0.308594,0.089844 -0.390625,0.109375 -0.085938,0.023437 -0.21875,0.0625 -0.40625,0.125 -0.085938,0.03125 -0.265625,0.1054688 -0.546875,0.21875 -0.023437,0 -0.03125,-0.0117188 -0.03125,-0.03125 0,-0.0117188 0,-0.0273438 0,-0.046875 v -0.765625 c -0.21875,0.25 -0.421875,0.4375 -0.609375,0.5625 -0.273438,0.19921875 -0.558594,0.296875 -0.859375,0.296875 -0.28125,0 -0.542969,-0.09765625 -0.78125,-0.296875 -0.25,-0.195313 -0.375,-0.523437 -0.375,-0.984375 v -2.5 c 0,-0.25 -0.058594,-0.414062 -0.171875,-0.5 -0.0625,-0.0625 -0.210938,-0.101562 -0.4375,-0.125 v -0.125 z M 2.46875,-4.5 Z m 0,0"
           id="path90" />
      </g>
      <g
         id="use294"
         transform="translate(341.49188,187.95)">
        <path
           d="M 0.171875,-0.140625 C 0.398438,-0.160156 0.5625,-0.210938 0.65625,-0.296875 0.75,-0.390625 0.796875,-0.582031 0.796875,-0.875 v -2.4375 c 0,-0.195312 -0.023437,-0.335938 -0.0625,-0.421875 -0.0625,-0.125 -0.1875,-0.1875 -0.375,-0.1875 -0.03125,0 -0.0625,0.00781 -0.09375,0.015625 -0.03125,0 -0.070313,0 -0.109375,0 V -4.0625 c 0.132812,-0.039062 0.445312,-0.140625 0.9375,-0.296875 l 0.453125,-0.15625 c 0.019531,0 0.03125,0.011719 0.03125,0.03125 0.00781,0.011719 0.015625,0.03125 0.015625,0.0625 v 0.703125 c 0.289062,-0.269531 0.519531,-0.457031 0.6875,-0.5625 0.25,-0.15625 0.507812,-0.234375 0.78125,-0.234375 0.21875,0 0.414062,0.0625 0.59375,0.1875 C 4,-4.085938 4.171875,-3.65625 4.171875,-3.03125 v 2.234375 c 0,0.230469 0.046875,0.398437 0.140625,0.5 0.09375,0.105469 0.25,0.15625 0.46875,0.15625 V 0 h -2.0625 v -0.140625 c 0.238281,-0.03125 0.40625,-0.09375 0.5,-0.1875 0.09375,-0.09375 0.140625,-0.304687 0.140625,-0.640625 v -2.046875 c 0,-0.269531 -0.054687,-0.492187 -0.15625,-0.671875 -0.105469,-0.1875 -0.292969,-0.28125 -0.5625,-0.28125 -0.199219,0 -0.390625,0.0625 -0.578125,0.1875 -0.117188,0.074219 -0.257812,0.199219 -0.421875,0.375 v 2.6875 c 0,0.230469 0.046875,0.386719 0.140625,0.46875 0.101562,0.074219 0.269531,0.109375 0.5,0.109375 V 0 H 0.171875 Z m 2.296875,-4.375 z m 0,0"
           id="path4" />
      </g>
      <g
         id="use295"
         transform="translate(346.40814,187.95)">
        <path
           d="m 0.8125,-6.203125 c 0,-0.132813 0.046875,-0.25 0.140625,-0.34375 0.09375,-0.101563 0.210937,-0.15625 0.359375,-0.15625 0.132812,0 0.25,0.054687 0.34375,0.15625 0.09375,0.09375 0.140625,0.210937 0.140625,0.34375 C 1.796875,-6.054688 1.75,-5.9375 1.65625,-5.84375 1.5625,-5.75 1.445312,-5.703125 1.3125,-5.703125 1.164062,-5.703125 1.046875,-5.75 0.953125,-5.84375 0.859375,-5.9375 0.8125,-6.054688 0.8125,-6.203125 Z m -0.625,6.0625 C 0.53125,-0.171875 0.742188,-0.226562 0.828125,-0.3125 0.921875,-0.394531 0.96875,-0.625 0.96875,-1 v -2.28125 c 0,-0.207031 -0.011719,-0.351562 -0.03125,-0.4375 -0.054688,-0.132812 -0.15625,-0.203125 -0.3125,-0.203125 -0.03125,0 -0.070312,0.00781 -0.109375,0.015625 -0.03125,0.011719 -0.125,0.039062 -0.28125,0.078125 v -0.15625 l 0.203125,-0.0625 c 0.5625,-0.175781 0.953125,-0.3125 1.171875,-0.40625 0.09375,-0.039063 0.148437,-0.0625 0.171875,-0.0625 0.00781,0.023437 0.015625,0.046875 0.015625,0.078125 V -1 c 0,0.367188 0.039063,0.59375 0.125,0.6875 0.09375,0.09375 0.296875,0.152344 0.609375,0.171875 V 0 H 0.1875 Z m 0,0"
           id="path10" />
      </g>
    </g>
    <g
       fill="#231f20"
       fill-opacity="1"
       id="g296"
       transform="matrix(0.35277777,0,0,0.35277777,-18.943889,100.93072)">
      <g
         id="use296"
         transform="translate(349.1398,187.95)">
        <path
           d="m 2.4375,-4.53125 c 0.40625,0 0.75,0.105469 1.03125,0.3125 0.289062,0.210938 0.4375,0.4375 0.4375,0.6875 0,0.105469 -0.039062,0.203125 -0.109375,0.296875 -0.074219,0.085937 -0.1875,0.125 -0.34375,0.125 C 3.347656,-3.109375 3.25,-3.144531 3.15625,-3.21875 3.070312,-3.289062 3.015625,-3.40625 2.984375,-3.5625 l -0.0625,-0.21875 C 2.878906,-3.957031 2.804688,-4.078125 2.703125,-4.140625 2.597656,-4.210938 2.460938,-4.25 2.296875,-4.25 c -0.375,0 -0.6875,0.164062 -0.9375,0.484375 -0.25,0.3125 -0.375,0.734375 -0.375,1.265625 0,0.480469 0.132813,0.914062 0.40625,1.296875 0.28125,0.386719 0.660156,0.578125 1.140625,0.578125 0.320312,0 0.613281,-0.109375 0.875,-0.328125 0.144531,-0.125 0.3125,-0.320313 0.5,-0.59375 L 4.046875,-1.46875 C 3.859375,-1.082031 3.664062,-0.773438 3.46875,-0.546875 3.082031,-0.117188 2.632812,0.09375 2.125,0.09375 1.625,0.09375 1.179688,-0.101562 0.796875,-0.5 0.410156,-0.894531 0.21875,-1.429688 0.21875,-2.109375 c 0,-0.65625 0.207031,-1.222656 0.625,-1.703125 0.425781,-0.476562 0.957031,-0.71875 1.59375,-0.71875 z m -0.203125,0 z m 0,0"
           id="path16" />
      </g>
    </g>
    <g
       fill="#231f20"
       fill-opacity="1"
       id="g297"
       transform="matrix(0.35277777,0,0,0.35277777,-18.943889,100.93072)">
      <g
         id="use297"
         transform="translate(353.50348,187.95)">
        <path
           d="m 2.8125,-2.65625 c -0.367188,0.125 -0.667969,0.261719 -0.90625,0.40625 -0.460938,0.28125 -0.6875,0.605469 -0.6875,0.96875 0,0.292969 0.09375,0.507812 0.28125,0.640625 0.125,0.085937 0.265625,0.125 0.421875,0.125 0.207031,0 0.40625,-0.054687 0.59375,-0.171875 C 2.710938,-0.800781 2.8125,-0.953125 2.8125,-1.140625 Z m -2.453125,1.703125 c 0,-0.46875 0.234375,-0.851563 0.703125,-1.15625 0.289062,-0.195313 0.875,-0.460937 1.75,-0.796875 V -3.3125 c 0,-0.320312 -0.03125,-0.546875 -0.09375,-0.671875 C 2.613281,-4.203125 2.390625,-4.3125 2.046875,-4.3125 c -0.167969,0 -0.324219,0.042969 -0.46875,0.125 -0.148437,0.085938 -0.21875,0.203125 -0.21875,0.359375 0,0.042969 0.00391,0.109375 0.015625,0.203125 0.019531,0.085938 0.03125,0.140625 0.03125,0.171875 0,0.179687 -0.058594,0.304687 -0.171875,0.375 -0.074219,0.042969 -0.15625,0.0625 -0.25,0.0625 -0.148437,0 -0.257813,-0.046875 -0.328125,-0.140625 -0.074219,-0.101562 -0.109375,-0.210938 -0.109375,-0.328125 0,-0.21875 0.132813,-0.445313 0.40625,-0.6875 0.28125,-0.25 0.6875,-0.375 1.21875,-0.375 0.625,0 1.046875,0.203125 1.265625,0.609375 0.113281,0.21875 0.171875,0.539062 0.171875,0.953125 V -1.0625 c 0,0.1875 0.015625,0.320312 0.046875,0.390625 0.039062,0.125 0.125,0.1875 0.25,0.1875 0.070312,0 0.132812,-0.007813 0.1875,-0.03125 0.050781,-0.019531 0.132812,-0.078125 0.25,-0.171875 v 0.25 C 4.238281,-0.3125 4.128906,-0.207031 4.015625,-0.125 3.835938,0 3.65625,0.0625 3.46875,0.0625 3.25,0.0625 3.085938,-0.00390625 2.984375,-0.140625 2.890625,-0.285156 2.835938,-0.457031 2.828125,-0.65625 2.585938,-0.445312 2.378906,-0.289062 2.203125,-0.1875 1.910156,-0.0078125 1.632812,0.078125 1.375,0.078125 1.101562,0.078125 0.863281,-0.0195312 0.65625,-0.21875 0.457031,-0.414062 0.359375,-0.660156 0.359375,-0.953125 Z M 2.1875,-4.546875 Z m 0,0"
           id="path87" />
      </g>
    </g>
    <g
       fill="#231f20"
       fill-opacity="1"
       id="g298"
       transform="matrix(0.35277777,0,0,0.35277777,-18.943889,100.93072)">
      <g
         id="use298"
         transform="translate(357.86752,187.95)">
        <path
           d="m 2.5,-4.421875 v 0.34375 H 1.515625 V -1.3125 c 0,0.242188 0.019531,0.421875 0.0625,0.546875 0.070313,0.21875 0.222656,0.328125 0.453125,0.328125 0.113281,0 0.210938,-0.023438 0.296875,-0.078125 0.082031,-0.050781 0.175781,-0.132813 0.28125,-0.25 l 0.125,0.09375 -0.09375,0.15625 c -0.167969,0.21875 -0.34375,0.375 -0.53125,0.46875 -0.1875,0.09375 -0.371094,0.140625 -0.546875,0.140625 -0.375,0 -0.632812,-0.1640625 -0.765625,-0.5 C 0.722656,-0.59375 0.6875,-0.847656 0.6875,-1.171875 v -2.90625 H 0.171875 C 0.148438,-4.085938 0.132812,-4.097656 0.125,-4.109375 c 0,-0.00781 0,-0.019531 0,-0.03125 0,-0.03125 0.003906,-0.054687 0.015625,-0.078125 0.007813,-0.019531 0.054687,-0.0625 0.140625,-0.125 C 0.5,-4.519531 0.65625,-4.664062 0.75,-4.78125 0.851562,-4.894531 1.082031,-5.195312 1.4375,-5.6875 c 0.039062,0 0.066406,0.00781 0.078125,0.015625 0.00781,0 0.015625,0.023437 0.015625,0.0625 v 1.1875 z m 0,0"
           id="path85" />
      </g>
    </g>
    <g
       fill="#231f20"
       fill-opacity="1"
       id="g299"
       transform="matrix(0.35277777,0,0,0.35277777,-18.943889,100.93072)">
      <g
         id="use299"
         transform="translate(360.59918,187.95)">
        <path
           d="m 0.8125,-6.203125 c 0,-0.132813 0.046875,-0.25 0.140625,-0.34375 0.09375,-0.101563 0.210937,-0.15625 0.359375,-0.15625 0.132812,0 0.25,0.054687 0.34375,0.15625 0.09375,0.09375 0.140625,0.210937 0.140625,0.34375 C 1.796875,-6.054688 1.75,-5.9375 1.65625,-5.84375 1.5625,-5.75 1.445312,-5.703125 1.3125,-5.703125 1.164062,-5.703125 1.046875,-5.75 0.953125,-5.84375 0.859375,-5.9375 0.8125,-6.054688 0.8125,-6.203125 Z m -0.625,6.0625 C 0.53125,-0.171875 0.742188,-0.226562 0.828125,-0.3125 0.921875,-0.394531 0.96875,-0.625 0.96875,-1 v -2.28125 c 0,-0.207031 -0.011719,-0.351562 -0.03125,-0.4375 -0.054688,-0.132812 -0.15625,-0.203125 -0.3125,-0.203125 -0.03125,0 -0.070312,0.00781 -0.109375,0.015625 -0.03125,0.011719 -0.125,0.039062 -0.28125,0.078125 v -0.15625 l 0.203125,-0.0625 c 0.5625,-0.175781 0.953125,-0.3125 1.171875,-0.40625 0.09375,-0.039063 0.148437,-0.0625 0.171875,-0.0625 0.00781,0.023437 0.015625,0.046875 0.015625,0.078125 V -1 c 0,0.367188 0.039063,0.59375 0.125,0.6875 0.09375,0.09375 0.296875,0.152344 0.609375,0.171875 V 0 H 0.1875 Z m 0,0"
           id="path11" />
      </g>
    </g>
    <g
       fill="#231f20"
       fill-opacity="1"
       id="g303"
       transform="matrix(0.35277777,0,0,0.35277777,-18.943889,100.93072)">
      <g
         id="use300"
         transform="translate(363.33084,187.95)">
        <path
           d="M 0.25,-2.234375 C 0.25,-2.867188 0.453125,-3.40625 0.859375,-3.84375 1.265625,-4.28125 1.785156,-4.5 2.421875,-4.5 c 0.632813,0 1.15625,0.210938 1.5625,0.625 0.414063,0.417969 0.625,0.96875 0.625,1.65625 0,0.636719 -0.203125,1.195312 -0.609375,1.671875 -0.398438,0.46875 -0.914062,0.703125 -1.546875,0.703125 -0.617187,0 -1.136719,-0.2226562 -1.5625,-0.671875 C 0.460938,-0.972656 0.25,-1.546875 0.25,-2.234375 Z M 2.28125,-4.21875 c -0.25,0 -0.46875,0.085938 -0.65625,0.25 -0.324219,0.292969 -0.484375,0.796875 -0.484375,1.515625 0,0.5625 0.128906,1.09375 0.390625,1.59375 0.257812,0.492187 0.617188,0.734375 1.078125,0.734375 0.351563,0 0.625,-0.160156 0.8125,-0.484375 0.195313,-0.332031 0.296875,-0.769531 0.296875,-1.3125 0,-0.550781 -0.125,-1.070313 -0.375,-1.5625 C 3.101562,-3.972656 2.75,-4.21875 2.28125,-4.21875 Z M 2.46875,-4.5 Z m 0,0"
           id="path94" />
      </g>
      <g
         id="use301"
         transform="translate(368.2471,187.95)">
        <path
           d="M 0.171875,-0.140625 C 0.398438,-0.160156 0.5625,-0.210938 0.65625,-0.296875 0.75,-0.390625 0.796875,-0.582031 0.796875,-0.875 v -2.4375 c 0,-0.195312 -0.023437,-0.335938 -0.0625,-0.421875 -0.0625,-0.125 -0.1875,-0.1875 -0.375,-0.1875 -0.03125,0 -0.0625,0.00781 -0.09375,0.015625 -0.03125,0 -0.070313,0 -0.109375,0 V -4.0625 c 0.132812,-0.039062 0.445312,-0.140625 0.9375,-0.296875 l 0.453125,-0.15625 c 0.019531,0 0.03125,0.011719 0.03125,0.03125 0.00781,0.011719 0.015625,0.03125 0.015625,0.0625 v 0.703125 c 0.289062,-0.269531 0.519531,-0.457031 0.6875,-0.5625 0.25,-0.15625 0.507812,-0.234375 0.78125,-0.234375 0.21875,0 0.414062,0.0625 0.59375,0.1875 C 4,-4.085938 4.171875,-3.65625 4.171875,-3.03125 v 2.234375 c 0,0.230469 0.046875,0.398437 0.140625,0.5 0.09375,0.105469 0.25,0.15625 0.46875,0.15625 V 0 h -2.0625 v -0.140625 c 0.238281,-0.03125 0.40625,-0.09375 0.5,-0.1875 0.09375,-0.09375 0.140625,-0.304687 0.140625,-0.640625 v -2.046875 c 0,-0.269531 -0.054687,-0.492187 -0.15625,-0.671875 -0.105469,-0.1875 -0.292969,-0.28125 -0.5625,-0.28125 -0.199219,0 -0.390625,0.0625 -0.578125,0.1875 -0.117188,0.074219 -0.257812,0.199219 -0.421875,0.375 v 2.6875 c 0,0.230469 0.046875,0.386719 0.140625,0.46875 0.101562,0.074219 0.269531,0.109375 0.5,0.109375 V 0 H 0.171875 Z m 2.296875,-4.375 z m 0,0"
           id="path5" />
      </g>
      <g
         id="use302"
         transform="translate(373.16333,187.95)" />
      <g
         id="use303"
         transform="translate(375.62146,187.95)">
        <path
           d="m 2.4375,-4.53125 c 0.40625,0 0.75,0.105469 1.03125,0.3125 0.289062,0.210938 0.4375,0.4375 0.4375,0.6875 0,0.105469 -0.039062,0.203125 -0.109375,0.296875 -0.074219,0.085937 -0.1875,0.125 -0.34375,0.125 C 3.347656,-3.109375 3.25,-3.144531 3.15625,-3.21875 3.070312,-3.289062 3.015625,-3.40625 2.984375,-3.5625 l -0.0625,-0.21875 C 2.878906,-3.957031 2.804688,-4.078125 2.703125,-4.140625 2.597656,-4.210938 2.460938,-4.25 2.296875,-4.25 c -0.375,0 -0.6875,0.164062 -0.9375,0.484375 -0.25,0.3125 -0.375,0.734375 -0.375,1.265625 0,0.480469 0.132813,0.914062 0.40625,1.296875 0.28125,0.386719 0.660156,0.578125 1.140625,0.578125 0.320312,0 0.613281,-0.109375 0.875,-0.328125 0.144531,-0.125 0.3125,-0.320313 0.5,-0.59375 L 4.046875,-1.46875 C 3.859375,-1.082031 3.664062,-0.773438 3.46875,-0.546875 3.082031,-0.117188 2.632812,0.09375 2.125,0.09375 1.625,0.09375 1.179688,-0.101562 0.796875,-0.5 0.410156,-0.894531 0.21875,-1.429688 0.21875,-2.109375 c 0,-0.65625 0.207031,-1.222656 0.625,-1.703125 0.425781,-0.476562 0.957031,-0.71875 1.59375,-0.71875 z m -0.203125,0 z m 0,0"
           id="path17" />
      </g>
    </g>
    <g
       fill="#231f20"
       fill-opacity="1"
       id="g305"
       transform="matrix(0.35277777,0,0,0.35277777,-18.943889,100.93072)">
      <g
         id="use304"
         transform="translate(379.98514,187.95)">
        <path
           d="m 0.09375,-0.140625 c 0.257812,-0.03125 0.425781,-0.09375 0.5,-0.1875 C 0.675781,-0.421875 0.71875,-0.644531 0.71875,-1 V -5.609375 C 0.71875,-5.785156 0.691406,-5.914062 0.640625,-6 0.597656,-6.082031 0.488281,-6.125 0.3125,-6.125 c -0.03125,0 -0.070312,0.00781 -0.109375,0.015625 -0.03125,0 -0.070313,0 -0.109375,0 V -6.28125 C 0.238281,-6.320312 0.414062,-6.367188 0.625,-6.421875 0.832031,-6.484375 0.972656,-6.53125 1.046875,-6.5625 l 0.46875,-0.140625 V -3.71875 C 1.722656,-3.945312 1.90625,-4.117188 2.0625,-4.234375 c 0.28125,-0.1875 0.582031,-0.28125 0.90625,-0.28125 0.519531,0 0.875,0.21875 1.0625,0.65625 0.101562,0.230469 0.15625,0.53125 0.15625,0.90625 V -1 c 0,0.34375 0.035156,0.570312 0.109375,0.671875 0.082031,0.09375 0.242187,0.15625 0.484375,0.1875 V 0 H 2.703125 v -0.140625 c 0.28125,-0.03125 0.457031,-0.09375 0.53125,-0.1875 0.082031,-0.09375 0.125,-0.316406 0.125,-0.671875 v -1.9375 c 0,-0.3125 -0.054687,-0.5625 -0.15625,-0.75 C 3.097656,-3.882812 2.90625,-3.984375 2.625,-3.984375 c -0.25,0 -0.496094,0.089844 -0.734375,0.265625 -0.230469,0.179688 -0.34375,0.296875 -0.34375,0.359375 V -1 c 0,0.367188 0.039063,0.59375 0.125,0.6875 0.082031,0.085938 0.257813,0.140625 0.53125,0.171875 V 0 H 0.09375 Z m 0,0"
           id="path84" />
      </g>
      <g
         id="use305"
         transform="translate(384.9014,187.95)">
        <path
           d="m 2.8125,-2.65625 c -0.367188,0.125 -0.667969,0.261719 -0.90625,0.40625 -0.460938,0.28125 -0.6875,0.605469 -0.6875,0.96875 0,0.292969 0.09375,0.507812 0.28125,0.640625 0.125,0.085937 0.265625,0.125 0.421875,0.125 0.207031,0 0.40625,-0.054687 0.59375,-0.171875 C 2.710938,-0.800781 2.8125,-0.953125 2.8125,-1.140625 Z m -2.453125,1.703125 c 0,-0.46875 0.234375,-0.851563 0.703125,-1.15625 0.289062,-0.195313 0.875,-0.460937 1.75,-0.796875 V -3.3125 c 0,-0.320312 -0.03125,-0.546875 -0.09375,-0.671875 C 2.613281,-4.203125 2.390625,-4.3125 2.046875,-4.3125 c -0.167969,0 -0.324219,0.042969 -0.46875,0.125 -0.148437,0.085938 -0.21875,0.203125 -0.21875,0.359375 0,0.042969 0.00391,0.109375 0.015625,0.203125 0.019531,0.085938 0.03125,0.140625 0.03125,0.171875 0,0.179687 -0.058594,0.304687 -0.171875,0.375 -0.074219,0.042969 -0.15625,0.0625 -0.25,0.0625 -0.148437,0 -0.257813,-0.046875 -0.328125,-0.140625 -0.074219,-0.101562 -0.109375,-0.210938 -0.109375,-0.328125 0,-0.21875 0.132813,-0.445313 0.40625,-0.6875 0.28125,-0.25 0.6875,-0.375 1.21875,-0.375 0.625,0 1.046875,0.203125 1.265625,0.609375 0.113281,0.21875 0.171875,0.539062 0.171875,0.953125 V -1.0625 c 0,0.1875 0.015625,0.320312 0.046875,0.390625 0.039062,0.125 0.125,0.1875 0.25,0.1875 0.070312,0 0.132812,-0.007813 0.1875,-0.03125 0.050781,-0.019531 0.132812,-0.078125 0.25,-0.171875 v 0.25 C 4.238281,-0.3125 4.128906,-0.207031 4.015625,-0.125 3.835938,0 3.65625,0.0625 3.46875,0.0625 3.25,0.0625 3.085938,-0.00390625 2.984375,-0.140625 2.890625,-0.285156 2.835938,-0.457031 2.828125,-0.65625 2.585938,-0.445312 2.378906,-0.289062 2.203125,-0.1875 1.910156,-0.0078125 1.632812,0.078125 1.375,0.078125 1.101562,0.078125 0.863281,-0.0195312 0.65625,-0.21875 0.457031,-0.414062 0.359375,-0.660156 0.359375,-0.953125 Z M 2.1875,-4.546875 Z m 0,0"
           id="path88" />
      </g>
    </g>
    <g
       fill="#231f20"
       fill-opacity="1"
       id="g308"
       transform="matrix(0.35277777,0,0,0.35277777,-18.943889,100.93072)">
      <g
         id="use306"
         transform="translate(389.26544,187.95)">
        <path
           d="M 0.171875,-0.140625 C 0.398438,-0.160156 0.5625,-0.210938 0.65625,-0.296875 0.75,-0.390625 0.796875,-0.582031 0.796875,-0.875 v -2.4375 c 0,-0.195312 -0.023437,-0.335938 -0.0625,-0.421875 -0.0625,-0.125 -0.1875,-0.1875 -0.375,-0.1875 -0.03125,0 -0.0625,0.00781 -0.09375,0.015625 -0.03125,0 -0.070313,0 -0.109375,0 V -4.0625 c 0.132812,-0.039062 0.445312,-0.140625 0.9375,-0.296875 l 0.453125,-0.15625 c 0.019531,0 0.03125,0.011719 0.03125,0.03125 0.00781,0.011719 0.015625,0.03125 0.015625,0.0625 v 0.703125 c 0.289062,-0.269531 0.519531,-0.457031 0.6875,-0.5625 0.25,-0.15625 0.507812,-0.234375 0.78125,-0.234375 0.21875,0 0.414062,0.0625 0.59375,0.1875 C 4,-4.085938 4.171875,-3.65625 4.171875,-3.03125 v 2.234375 c 0,0.230469 0.046875,0.398437 0.140625,0.5 0.09375,0.105469 0.25,0.15625 0.46875,0.15625 V 0 h -2.0625 v -0.140625 c 0.238281,-0.03125 0.40625,-0.09375 0.5,-0.1875 0.09375,-0.09375 0.140625,-0.304687 0.140625,-0.640625 v -2.046875 c 0,-0.269531 -0.054687,-0.492187 -0.15625,-0.671875 -0.105469,-0.1875 -0.292969,-0.28125 -0.5625,-0.28125 -0.199219,0 -0.390625,0.0625 -0.578125,0.1875 -0.117188,0.074219 -0.257812,0.199219 -0.421875,0.375 v 2.6875 c 0,0.230469 0.046875,0.386719 0.140625,0.46875 0.101562,0.074219 0.269531,0.109375 0.5,0.109375 V 0 H 0.171875 Z m 2.296875,-4.375 z m 0,0"
           id="path6" />
      </g>
      <g
         id="use307"
         transform="translate(394.1817,187.95)">
        <path
           d="M 0.171875,-0.140625 C 0.398438,-0.160156 0.5625,-0.210938 0.65625,-0.296875 0.75,-0.390625 0.796875,-0.582031 0.796875,-0.875 v -2.4375 c 0,-0.195312 -0.023437,-0.335938 -0.0625,-0.421875 -0.0625,-0.125 -0.1875,-0.1875 -0.375,-0.1875 -0.03125,0 -0.0625,0.00781 -0.09375,0.015625 -0.03125,0 -0.070313,0 -0.109375,0 V -4.0625 c 0.132812,-0.039062 0.445312,-0.140625 0.9375,-0.296875 l 0.453125,-0.15625 c 0.019531,0 0.03125,0.011719 0.03125,0.03125 0.00781,0.011719 0.015625,0.03125 0.015625,0.0625 v 0.703125 c 0.289062,-0.269531 0.519531,-0.457031 0.6875,-0.5625 0.25,-0.15625 0.507812,-0.234375 0.78125,-0.234375 0.21875,0 0.414062,0.0625 0.59375,0.1875 C 4,-4.085938 4.171875,-3.65625 4.171875,-3.03125 v 2.234375 c 0,0.230469 0.046875,0.398437 0.140625,0.5 0.09375,0.105469 0.25,0.15625 0.46875,0.15625 V 0 h -2.0625 v -0.140625 c 0.238281,-0.03125 0.40625,-0.09375 0.5,-0.1875 0.09375,-0.09375 0.140625,-0.304687 0.140625,-0.640625 v -2.046875 c 0,-0.269531 -0.054687,-0.492187 -0.15625,-0.671875 -0.105469,-0.1875 -0.292969,-0.28125 -0.5625,-0.28125 -0.199219,0 -0.390625,0.0625 -0.578125,0.1875 -0.117188,0.074219 -0.257812,0.199219 -0.421875,0.375 v 2.6875 c 0,0.230469 0.046875,0.386719 0.140625,0.46875 0.101562,0.074219 0.269531,0.109375 0.5,0.109375 V 0 H 0.171875 Z m 2.296875,-4.375 z m 0,0"
           id="path7" />
      </g>
      <g
         id="use308"
         transform="translate(399.09796,187.95)">
        <path
           d="m 2.25,-4.5 c 0.445312,0 0.835938,0.15625 1.171875,0.46875 0.34375,0.3125 0.515625,0.757812 0.515625,1.328125 H 0.890625 c 0.039063,0.742187 0.210937,1.28125 0.515625,1.625 0.300781,0.335937 0.660156,0.5 1.078125,0.5 0.332031,0 0.613281,-0.085937 0.84375,-0.265625 0.226563,-0.175781 0.441406,-0.425781 0.640625,-0.75 l 0.171875,0.0625 c -0.136719,0.40625 -0.386719,0.78125 -0.75,1.125 -0.355469,0.34375 -0.792969,0.515625 -1.3125,0.515625 -0.605469,0 -1.074219,-0.222656 -1.40625,-0.671875 C 0.347656,-1.019531 0.1875,-1.546875 0.1875,-2.140625 c 0,-0.632813 0.1875,-1.1875 0.5625,-1.65625 C 1.132812,-4.265625 1.632812,-4.5 2.25,-4.5 Z m -0.28125,0.34375 c -0.367188,0 -0.640625,0.164062 -0.828125,0.484375 -0.105469,0.179687 -0.179687,0.398437 -0.21875,0.65625 H 2.9375 C 2.90625,-3.335938 2.847656,-3.578125 2.765625,-3.734375 2.609375,-4.015625 2.34375,-4.15625 1.96875,-4.15625 Z M 2.1875,-4.5 Z m 0,0"
           id="path80" />
      </g>
    </g>
    <g
       fill="#231f20"
       fill-opacity="1"
       id="g309"
       transform="matrix(0.35277777,0,0,0.35277777,-18.943889,100.93072)">
      <g
         id="use309"
         transform="translate(403.46204,187.95)">
        <path
           d="M 0.203125,-0.140625 C 0.492188,-0.160156 0.691406,-0.21875 0.796875,-0.3125 0.910156,-0.40625 0.96875,-0.582031 0.96875,-0.84375 v -4.6875 c 0,-0.21875 -0.023438,-0.363281 -0.0625,-0.4375 -0.0625,-0.132812 -0.195312,-0.203125 -0.390625,-0.203125 -0.042969,0 -0.089844,0.00781 -0.140625,0.015625 -0.054688,0.011719 -0.121094,0.023438 -0.203125,0.03125 v -0.15625 c 0.4375,-0.113281 0.957031,-0.265625 1.5625,-0.453125 0.019531,0 0.03125,0.011719 0.03125,0.03125 0.00781,0.011719 0.015625,0.054687 0.015625,0.125 v 5.75 c 0,0.28125 0.046875,0.464844 0.140625,0.546875 0.101563,0.074219 0.304687,0.121094 0.609375,0.140625 V 0 H 0.203125 Z m 0,0"
           id="path78" />
      </g>
    </g>
    <path
       fill-rule="nonzero"
       fill="#fee4b3"
       fill-opacity="1"
       d="m 133.80062,149.40184 h 10.3973 v -7.77765 h -10.3973 v 7.77765"
       id="path310"
       style="stroke-width:0.352778" />
    <path
       fill="none"
       stroke-width="0.144198"
       stroke-linecap="butt"
       stroke-linejoin="miter"
       stroke="#f58220"
       stroke-opacity="1"
       stroke-miterlimit="4"
       d="m 133.80063,149.40181 h 10.3973 v -7.77765 h -10.3973 z m 0,0"
       id="path311" />
    <path
       fill="none"
       stroke-width="0.144198"
       stroke-linecap="butt"
       stroke-linejoin="miter"
       stroke="#231f20"
       stroke-opacity="1"
       stroke-miterlimit="4"
       d="m 128.58751,146.75598 v 14.44735"
       id="path312" />
    <path
       fill-rule="evenodd"
       fill="#231f20"
       fill-opacity="1"
       d="m 133.80062,145.51301 -3.07027,0.89986 0.97978,-0.89986 -0.97978,-0.89986 3.07027,0.89986"
       id="path313"
       style="stroke-width:0.352778" />
    <path
       fill="none"
       stroke-width="0.144198"
       stroke-linecap="butt"
       stroke-linejoin="miter"
       stroke="#231f20"
       stroke-opacity="1"
       stroke-miterlimit="4"
       d="m 129.83188,145.51299 h 1.95682"
       id="path314" />
    <g
       fill="#231f20"
       fill-opacity="1"
       id="g315"
       transform="matrix(0.35277777,0,0,0.35277777,-18.943889,100.93072)">
      <g
         id="use314"
         transform="translate(435.89999,110.4)">
        <path
           d="M 2.109375,-4.453125 V -4.3125 C 1.941406,-4.289062 1.820312,-4.265625 1.75,-4.234375 c -0.0625,0.03125 -0.09375,0.105469 -0.09375,0.21875 0,0.054687 0.00391,0.101563 0.015625,0.140625 0.019531,0.042969 0.046875,0.109375 0.078125,0.203125 l 1,2.484375 0.859375,-2.203125 C 3.648438,-3.492188 3.6875,-3.601562 3.71875,-3.71875 c 0.039062,-0.113281 0.0625,-0.203125 0.0625,-0.265625 0,-0.125 -0.058594,-0.210937 -0.171875,-0.265625 C 3.535156,-4.28125 3.441406,-4.300781 3.328125,-4.3125 V -4.453125 H 4.6875 V -4.3125 C 4.53125,-4.300781 4.414062,-4.25 4.34375,-4.15625 4.28125,-4.0625 4.179688,-3.847656 4.046875,-3.515625 L 2.65625,-0.0625 C 2.632812,0 2.613281,0.0390625 2.59375,0.0625 2.582031,0.0820312 2.5625,0.09375 2.53125,0.09375 2.5,0.09375 2.46875,0.0703125 2.4375,0.03125 2.414062,0 2.394531,-0.0390625 2.375,-0.09375 L 0.90625,-3.609375 C 0.789062,-3.898438 0.664062,-4.09375 0.53125,-4.1875 0.445312,-4.25 0.328125,-4.289062 0.171875,-4.3125 v -0.140625 z m 0,0"
           id="path77" />
      </g>
      <g
         id="use315"
         transform="translate(440.81625,110.4)">
        <path
           d="m 2.25,-4.5 c 0.445312,0 0.835938,0.15625 1.171875,0.46875 0.34375,0.3125 0.515625,0.757812 0.515625,1.328125 H 0.890625 c 0.039063,0.742187 0.210937,1.28125 0.515625,1.625 0.300781,0.335937 0.660156,0.5 1.078125,0.5 0.332031,0 0.613281,-0.085937 0.84375,-0.265625 0.226563,-0.175781 0.441406,-0.425781 0.640625,-0.75 l 0.171875,0.0625 c -0.136719,0.40625 -0.386719,0.78125 -0.75,1.125 -0.355469,0.34375 -0.792969,0.515625 -1.3125,0.515625 -0.605469,0 -1.074219,-0.222656 -1.40625,-0.671875 C 0.347656,-1.019531 0.1875,-1.546875 0.1875,-2.140625 c 0,-0.632813 0.1875,-1.1875 0.5625,-1.65625 C 1.132812,-4.265625 1.632812,-4.5 2.25,-4.5 Z m -0.28125,0.34375 c -0.367188,0 -0.640625,0.164062 -0.828125,0.484375 -0.105469,0.179687 -0.179687,0.398437 -0.21875,0.65625 H 2.9375 C 2.90625,-3.335938 2.847656,-3.578125 2.765625,-3.734375 2.609375,-4.015625 2.34375,-4.15625 1.96875,-4.15625 Z M 2.1875,-4.5 Z m 0,0"
           id="path81" />
      </g>
    </g>
    <g
       fill="#231f20"
       fill-opacity="1"
       id="g317"
       transform="matrix(0.35277777,0,0,0.35277777,-18.943889,100.93072)">
      <g
         id="use316"
         transform="translate(445.18033,110.4)">
        <path
           d="M 0.046875,-0.15625 C 0.335938,-0.1875 0.53125,-0.238281 0.625,-0.3125 c 0.09375,-0.082031 0.140625,-0.25 0.140625,-0.5 v -2.171875 c 0,-0.3125 -0.03125,-0.535156 -0.09375,-0.671875 -0.054687,-0.132812 -0.15625,-0.203125 -0.3125,-0.203125 -0.03125,0 -0.074219,0.00781 -0.125,0.015625 -0.054687,0 -0.109375,0.011719 -0.171875,0.03125 v -0.171875 c 0.1875,-0.0625 0.375,-0.125 0.5625,-0.1875 0.195312,-0.070313 0.332031,-0.117187 0.40625,-0.140625 0.15625,-0.0625 0.316406,-0.132812 0.484375,-0.21875 0.03125,0 0.046875,0.011719 0.046875,0.03125 0,0.011719 0,0.042969 0,0.09375 v 0.796875 C 1.769531,-3.898438 1.96875,-4.125 2.15625,-4.28125 2.351562,-4.4375 2.550781,-4.515625 2.75,-4.515625 c 0.164062,0 0.300781,0.046875 0.40625,0.140625 0.101562,0.09375 0.15625,0.21875 0.15625,0.375 0,0.125 -0.042969,0.234375 -0.125,0.328125 -0.074219,0.085937 -0.171875,0.125 -0.296875,0.125 -0.117187,0 -0.234375,-0.050781 -0.359375,-0.15625 C 2.40625,-3.816406 2.304688,-3.875 2.234375,-3.875 c -0.117187,0 -0.257813,0.09375 -0.421875,0.28125 -0.15625,0.179688 -0.234375,0.359375 -0.234375,0.546875 v 2.15625 c 0,0.28125 0.0625,0.476563 0.1875,0.578125 0.132813,0.105469 0.347656,0.15625 0.640625,0.15625 V 0 H 0.046875 Z m 0,0"
           id="path76" />
      </g>
      <g
         id="use317"
         transform="translate(448.45453,110.4)">
        <path
           d="m 0.8125,-6.203125 c 0,-0.132813 0.046875,-0.25 0.140625,-0.34375 0.09375,-0.101563 0.210937,-0.15625 0.359375,-0.15625 0.132812,0 0.25,0.054687 0.34375,0.15625 0.09375,0.09375 0.140625,0.210937 0.140625,0.34375 C 1.796875,-6.054688 1.75,-5.9375 1.65625,-5.84375 1.5625,-5.75 1.445312,-5.703125 1.3125,-5.703125 1.164062,-5.703125 1.046875,-5.75 0.953125,-5.84375 0.859375,-5.9375 0.8125,-6.054688 0.8125,-6.203125 Z m -0.625,6.0625 C 0.53125,-0.171875 0.742188,-0.226562 0.828125,-0.3125 0.921875,-0.394531 0.96875,-0.625 0.96875,-1 v -2.28125 c 0,-0.207031 -0.011719,-0.351562 -0.03125,-0.4375 -0.054688,-0.132812 -0.15625,-0.203125 -0.3125,-0.203125 -0.03125,0 -0.070312,0.00781 -0.109375,0.015625 -0.03125,0.011719 -0.125,0.039062 -0.28125,0.078125 v -0.15625 l 0.203125,-0.0625 c 0.5625,-0.175781 0.953125,-0.3125 1.171875,-0.40625 0.09375,-0.039063 0.148437,-0.0625 0.171875,-0.0625 0.00781,0.023437 0.015625,0.046875 0.015625,0.078125 V -1 c 0,0.367188 0.039063,0.59375 0.125,0.6875 0.09375,0.09375 0.296875,0.152344 0.609375,0.171875 V 0 H 0.1875 Z m 0,0"
           id="path12" />
      </g>
    </g>
    <g
       fill="#231f20"
       fill-opacity="1"
       id="g320"
       transform="matrix(0.35277777,0,0,0.35277777,-18.943889,100.93072)">
      <g
         id="use318"
         transform="translate(451.18616,110.4)">
        <path
           d="m 0.1875,-0.140625 c 0.34375,-0.007813 0.566406,-0.066406 0.671875,-0.171875 0.101563,-0.113281 0.15625,-0.347656 0.15625,-0.703125 v -3.09375 h -0.8125 v -0.3125 h 0.8125 c 0,-0.507813 0.070313,-0.9375 0.21875,-1.28125 0.257813,-0.664063 0.738281,-1 1.4375,-1 0.28125,0 0.53125,0.058594 0.75,0.171875 0.226563,0.105469 0.34375,0.25 0.34375,0.4375 0,0.105469 -0.042969,0.199219 -0.125,0.28125 -0.074219,0.085938 -0.164063,0.125 -0.265625,0.125 -0.09375,0 -0.179688,-0.023438 -0.25,-0.078125 C 3.0625,-5.816406 2.984375,-5.914062 2.890625,-6.0625 L 2.8125,-6.1875 C 2.757812,-6.25 2.703125,-6.300781 2.640625,-6.34375 c -0.054687,-0.050781 -0.136719,-0.078125 -0.25,-0.078125 -0.242187,0 -0.402344,0.121094 -0.484375,0.359375 -0.054688,0.125 -0.078125,0.292969 -0.078125,0.5 v 1.140625 H 3.03125 v 0.3125 h -1.1875 v 3.09375 c 0,0.355469 0.046875,0.585937 0.140625,0.6875 0.09375,0.105469 0.347656,0.167969 0.765625,0.1875 V 0 H 0.1875 Z m 0,0"
           id="path75" />
      </g>
      <g
         id="use319"
         transform="translate(454.46039,110.4)">
        <path
           d="M 0.140625,-4.40625 H 2.15625 v 0.140625 C 2,-4.253906 1.878906,-4.238281 1.796875,-4.21875 c -0.148437,0.042969 -0.21875,0.125 -0.21875,0.25 0,0.042969 0.00391,0.089844 0.015625,0.140625 0.019531,0.042969 0.050781,0.109375 0.09375,0.203125 l 1.125,2.484375 0.90625,-2.5 C 3.726562,-3.671875 3.742188,-3.726562 3.765625,-3.8125 3.785156,-3.90625 3.796875,-3.96875 3.796875,-4 c 0,-0.082031 -0.03125,-0.144531 -0.09375,-0.1875 C 3.648438,-4.226562 3.578125,-4.25 3.484375,-4.25 L 3.34375,-4.265625 V -4.40625 h 1.3125 v 0.140625 C 4.53125,-4.242188 4.429688,-4.195312 4.359375,-4.125 4.296875,-4.050781 4.238281,-3.945312 4.1875,-3.8125 l -1.5,4 C 2.425781,0.875 2.171875,1.375 1.921875,1.6875 1.679688,2 1.378906,2.15625 1.015625,2.15625 c -0.179687,0 -0.34375,-0.046875 -0.5,-0.140625 C 0.359375,1.921875 0.28125,1.78125 0.28125,1.59375 0.28125,1.457031 0.328125,1.347656 0.421875,1.265625 0.515625,1.191406 0.632812,1.15625 0.78125,1.15625 c 0.082031,0 0.203125,0.023438 0.359375,0.078125 0.164063,0.0625 0.285156,0.09375 0.359375,0.09375 0.175781,0 0.363281,-0.210937 0.5625,-0.625 0.195312,-0.40625 0.296875,-0.6835938 0.296875,-0.828125 0,-0.03125 -0.00781,-0.066406 -0.015625,-0.109375 0,-0.039063 -0.011719,-0.078125 -0.03125,-0.109375 L 0.78125,-3.65625 C 0.675781,-3.894531 0.582031,-4.050781 0.5,-4.125 0.414062,-4.207031 0.296875,-4.257812 0.140625,-4.28125 Z M 2.421875,-4.5 Z m 0,0"
           id="path74" />
      </g>
      <g
         id="use320"
         transform="translate(459.37665,110.4)" />
    </g>
    <g
       fill="#231f20"
       fill-opacity="1"
       id="g321"
       transform="matrix(0.35277777,0,0,0.35277777,-18.943889,100.93072)">
      <g
         id="use321"
         transform="translate(472.27499,150.97501)">
        <path
           d="M 5.25,-1.828125 V -1.15625 H 0.296875 v -0.671875 z m 0,-1.984375 v 0.671875 H 0.296875 V -3.8125 Z m 0,0"
           id="path69" />
      </g>
    </g>
    <g
       fill="#231f20"
       fill-opacity="1"
       id="g322"
       transform="matrix(0.35277777,0,0,0.35277777,-18.943889,100.93072)">
      <g
         id="use322"
         transform="translate(477.81995,150.97501)">
        <path
           d="m 2.84375,-0.4375 c 0,0.148438 -0.054688,0.273438 -0.15625,0.375 -0.105469,0.1015625 -0.230469,0.15625 -0.375,0.15625 -0.148438,0 -0.273438,-0.0546875 -0.375,-0.15625 -0.105469,-0.101562 -0.15625,-0.226562 -0.15625,-0.375 0,-0.144531 0.050781,-0.265625 0.15625,-0.359375 0.113281,-0.101563 0.238281,-0.15625 0.375,-0.15625 0.144531,0 0.269531,0.054687 0.375,0.15625 0.101562,0.105469 0.15625,0.226563 0.15625,0.359375 z M 2.359375,-6.640625 c 0.488281,0 0.894531,0.140625 1.21875,0.421875 0.332031,0.273438 0.5,0.652344 0.5,1.140625 0,0.417969 -0.246094,0.933594 -0.734375,1.546875 -0.542969,0.679688 -0.855469,1.320312 -0.9375,1.921875 H 2.234375 c 0,-0.125 0.015625,-0.289063 0.046875,-0.5 0.03125,-0.21875 0.070312,-0.410156 0.125,-0.578125 0.050781,-0.15625 0.179688,-0.472656 0.390625,-0.953125 0.101563,-0.238281 0.191406,-0.476563 0.265625,-0.71875 0.070312,-0.238281 0.109375,-0.460937 0.109375,-0.671875 0,-0.332031 -0.089844,-0.632812 -0.265625,-0.90625 -0.179688,-0.269531 -0.453125,-0.40625 -0.828125,-0.40625 -0.261719,0 -0.480469,0.074219 -0.65625,0.21875 -0.179687,0.136719 -0.265625,0.265625 -0.265625,0.390625 0,0.0625 0.0625,0.171875 0.1875,0.328125 C 1.476562,-5.257812 1.546875,-5.125 1.546875,-5 c 0,0.105469 -0.042969,0.199219 -0.125,0.28125 -0.074219,0.085938 -0.167969,0.125 -0.28125,0.125 -0.125,0 -0.242187,-0.050781 -0.34375,-0.15625 -0.105469,-0.113281 -0.15625,-0.28125 -0.15625,-0.5 0,-0.332031 0.140625,-0.644531 0.421875,-0.9375 0.289062,-0.300781 0.722656,-0.453125 1.296875,-0.453125 z m 0,0"
           id="path68" />
      </g>
    </g>
    <path
       fill="none"
       stroke-width="0.144198"
       stroke-linecap="butt"
       stroke-linejoin="miter"
       stroke="#231f20"
       stroke-opacity="1"
       stroke-miterlimit="4"
       d="m 144.11938,145.51299 h 4.0473"
       id="path323" />
    <path
       fill-rule="evenodd"
       fill="#231f20"
       fill-opacity="1"
       d="m 149.41103,150.69857 -0.89986,-3.04271 0.89986,0.97978 0.89849,-0.97978 -0.89849,3.04271"
       id="path324"
       style="stroke-width:0.352778" />
    <path
       fill="none"
       stroke-width="0.144198"
       stroke-linecap="butt"
       stroke-linejoin="miter"
       stroke="#231f20"
       stroke-opacity="1"
       stroke-miterlimit="4"
       d="m 149.41105,146.75598 v 1.95819"
       id="path325" />
    <path
       fill-rule="evenodd"
       fill="#231f20"
       fill-opacity="1"
       d="m 149.41103,155.91169 0.89849,3.06889 -0.89849,-0.97979 -0.89986,0.97979 0.89986,-3.06889"
       id="path326"
       style="stroke-width:0.352778" />
    <path
       fill="none"
       stroke-width="0.144198"
       stroke-linecap="butt"
       stroke-linejoin="miter"
       stroke="#231f20"
       stroke-opacity="1"
       stroke-miterlimit="4"
       d="m 149.41105,157.92222 v 1.95819"
       id="path327" />
    <path
       fill-rule="evenodd"
       fill="#231f20"
       fill-opacity="1"
       d="m 158.48542,153.3444 -3.04271,0.89986 1.03215,-0.89986 -1.03215,-0.97841 3.04271,0.97841"
       id="path328"
       style="stroke-width:0.352778" />
    <path
       fill="none"
       stroke-width="0.144198"
       stroke-linecap="butt"
       stroke-linejoin="miter"
       stroke="#231f20"
       stroke-opacity="1"
       stroke-miterlimit="4"
       d="m 153.21995,153.34438 h 3.33485"
       id="path329" />
    <g
       fill="#231f20"
       fill-opacity="1"
       id="g329"
       transform="matrix(0.35277777,0,0,0.35277777,-18.943889,100.93072)">
      <g
         id="use329"
         transform="translate(505.125,150.97501)">
        <path
           d="m 2.8125,-2.65625 c -0.367188,0.125 -0.667969,0.261719 -0.90625,0.40625 -0.460938,0.28125 -0.6875,0.605469 -0.6875,0.96875 0,0.292969 0.09375,0.507812 0.28125,0.640625 0.125,0.085937 0.265625,0.125 0.421875,0.125 0.207031,0 0.40625,-0.054687 0.59375,-0.171875 C 2.710938,-0.800781 2.8125,-0.953125 2.8125,-1.140625 Z m -2.453125,1.703125 c 0,-0.46875 0.234375,-0.851563 0.703125,-1.15625 0.289062,-0.195313 0.875,-0.460937 1.75,-0.796875 V -3.3125 c 0,-0.320312 -0.03125,-0.546875 -0.09375,-0.671875 C 2.613281,-4.203125 2.390625,-4.3125 2.046875,-4.3125 c -0.167969,0 -0.324219,0.042969 -0.46875,0.125 -0.148437,0.085938 -0.21875,0.203125 -0.21875,0.359375 0,0.042969 0.00391,0.109375 0.015625,0.203125 0.019531,0.085938 0.03125,0.140625 0.03125,0.171875 0,0.179687 -0.058594,0.304687 -0.171875,0.375 -0.074219,0.042969 -0.15625,0.0625 -0.25,0.0625 -0.148437,0 -0.257813,-0.046875 -0.328125,-0.140625 -0.074219,-0.101562 -0.109375,-0.210938 -0.109375,-0.328125 0,-0.21875 0.132813,-0.445313 0.40625,-0.6875 0.28125,-0.25 0.6875,-0.375 1.21875,-0.375 0.625,0 1.046875,0.203125 1.265625,0.609375 0.113281,0.21875 0.171875,0.539062 0.171875,0.953125 V -1.0625 c 0,0.1875 0.015625,0.320312 0.046875,0.390625 0.039062,0.125 0.125,0.1875 0.25,0.1875 0.070312,0 0.132812,-0.007813 0.1875,-0.03125 0.050781,-0.019531 0.132812,-0.078125 0.25,-0.171875 v 0.25 C 4.238281,-0.3125 4.128906,-0.207031 4.015625,-0.125 3.835938,0 3.65625,0.0625 3.46875,0.0625 3.25,0.0625 3.085938,-0.00390625 2.984375,-0.140625 2.890625,-0.285156 2.835938,-0.457031 2.828125,-0.65625 2.585938,-0.445312 2.378906,-0.289062 2.203125,-0.1875 1.910156,-0.0078125 1.632812,0.078125 1.375,0.078125 1.101562,0.078125 0.863281,-0.0195312 0.65625,-0.21875 0.457031,-0.414062 0.359375,-0.660156 0.359375,-0.953125 Z M 2.1875,-4.546875 Z m 0,0"
           id="path89" />
      </g>
    </g>
    <g
       fill="#231f20"
       fill-opacity="1"
       id="g330"
       transform="matrix(0.35277777,0,0,0.35277777,-18.943889,100.93072)">
      <g
         id="use330"
         transform="translate(509.48907,150.97501)">
        <path
           d="m 2.4375,-4.53125 c 0.40625,0 0.75,0.105469 1.03125,0.3125 0.289062,0.210938 0.4375,0.4375 0.4375,0.6875 0,0.105469 -0.039062,0.203125 -0.109375,0.296875 -0.074219,0.085937 -0.1875,0.125 -0.34375,0.125 C 3.347656,-3.109375 3.25,-3.144531 3.15625,-3.21875 3.070312,-3.289062 3.015625,-3.40625 2.984375,-3.5625 l -0.0625,-0.21875 C 2.878906,-3.957031 2.804688,-4.078125 2.703125,-4.140625 2.597656,-4.210938 2.460938,-4.25 2.296875,-4.25 c -0.375,0 -0.6875,0.164062 -0.9375,0.484375 -0.25,0.3125 -0.375,0.734375 -0.375,1.265625 0,0.480469 0.132813,0.914062 0.40625,1.296875 0.28125,0.386719 0.660156,0.578125 1.140625,0.578125 0.320312,0 0.613281,-0.109375 0.875,-0.328125 0.144531,-0.125 0.3125,-0.320313 0.5,-0.59375 L 4.046875,-1.46875 C 3.859375,-1.082031 3.664062,-0.773438 3.46875,-0.546875 3.082031,-0.117188 2.632812,0.09375 2.125,0.09375 1.625,0.09375 1.179688,-0.101562 0.796875,-0.5 0.410156,-0.894531 0.21875,-1.429688 0.21875,-2.109375 c 0,-0.65625 0.207031,-1.222656 0.625,-1.703125 0.425781,-0.476562 0.957031,-0.71875 1.59375,-0.71875 z m -0.203125,0 z m 0,0"
           id="path18" />
      </g>
    </g>
    <g
       fill="#231f20"
       fill-opacity="1"
       id="g331"
       transform="matrix(0.35277777,0,0,0.35277777,-18.943889,100.93072)">
      <g
         id="use331"
         transform="translate(513.85272,150.97501)">
        <path
           d="m 2.4375,-4.53125 c 0.40625,0 0.75,0.105469 1.03125,0.3125 0.289062,0.210938 0.4375,0.4375 0.4375,0.6875 0,0.105469 -0.039062,0.203125 -0.109375,0.296875 -0.074219,0.085937 -0.1875,0.125 -0.34375,0.125 C 3.347656,-3.109375 3.25,-3.144531 3.15625,-3.21875 3.070312,-3.289062 3.015625,-3.40625 2.984375,-3.5625 l -0.0625,-0.21875 C 2.878906,-3.957031 2.804688,-4.078125 2.703125,-4.140625 2.597656,-4.210938 2.460938,-4.25 2.296875,-4.25 c -0.375,0 -0.6875,0.164062 -0.9375,0.484375 -0.25,0.3125 -0.375,0.734375 -0.375,1.265625 0,0.480469 0.132813,0.914062 0.40625,1.296875 0.28125,0.386719 0.660156,0.578125 1.140625,0.578125 0.320312,0 0.613281,-0.109375 0.875,-0.328125 0.144531,-0.125 0.3125,-0.320313 0.5,-0.59375 L 4.046875,-1.46875 C 3.859375,-1.082031 3.664062,-0.773438 3.46875,-0.546875 3.082031,-0.117188 2.632812,0.09375 2.125,0.09375 1.625,0.09375 1.179688,-0.101562 0.796875,-0.5 0.410156,-0.894531 0.21875,-1.429688 0.21875,-2.109375 c 0,-0.65625 0.207031,-1.222656 0.625,-1.703125 0.425781,-0.476562 0.957031,-0.71875 1.59375,-0.71875 z m -0.203125,0 z m 0,0"
           id="path19" />
      </g>
    </g>
    <g
       fill="#231f20"
       fill-opacity="1"
       id="g332"
       transform="matrix(0.35277777,0,0,0.35277777,-18.943889,100.93072)">
      <g
         id="use332"
         transform="translate(518.2168,150.97501)">
        <path
           d="m 2.25,-4.5 c 0.445312,0 0.835938,0.15625 1.171875,0.46875 0.34375,0.3125 0.515625,0.757812 0.515625,1.328125 H 0.890625 c 0.039063,0.742187 0.210937,1.28125 0.515625,1.625 0.300781,0.335937 0.660156,0.5 1.078125,0.5 0.332031,0 0.613281,-0.085937 0.84375,-0.265625 0.226563,-0.175781 0.441406,-0.425781 0.640625,-0.75 l 0.171875,0.0625 c -0.136719,0.40625 -0.386719,0.78125 -0.75,1.125 -0.355469,0.34375 -0.792969,0.515625 -1.3125,0.515625 -0.605469,0 -1.074219,-0.222656 -1.40625,-0.671875 C 0.347656,-1.019531 0.1875,-1.546875 0.1875,-2.140625 c 0,-0.632813 0.1875,-1.1875 0.5625,-1.65625 C 1.132812,-4.265625 1.632812,-4.5 2.25,-4.5 Z m -0.28125,0.34375 c -0.367188,0 -0.640625,0.164062 -0.828125,0.484375 -0.105469,0.179687 -0.179687,0.398437 -0.21875,0.65625 H 2.9375 C 2.90625,-3.335938 2.847656,-3.578125 2.765625,-3.734375 2.609375,-4.015625 2.34375,-4.15625 1.96875,-4.15625 Z M 2.1875,-4.5 Z m 0,0"
           id="path82" />
      </g>
    </g>
    <g
       fill="#231f20"
       fill-opacity="1"
       id="g334"
       transform="matrix(0.35277777,0,0,0.35277777,-18.943889,100.93072)">
      <g
         id="use333"
         transform="translate(522.58087,150.97501)">
        <path
           d="m 1.5625,-0.890625 c 0.082031,0.21875 0.207031,0.386719 0.375,0.5 0.164062,0.105469 0.363281,0.15625 0.59375,0.15625 0.34375,0 0.632812,-0.171875 0.875,-0.515625 0.25,-0.34375 0.375,-0.820312 0.375,-1.4375 0,-0.59375 -0.132812,-1.03125 -0.390625,-1.3125 -0.25,-0.289062 -0.542969,-0.4375 -0.875,-0.4375 -0.242187,0 -0.460937,0.074219 -0.65625,0.21875 C 1.660156,-3.582031 1.5625,-3.441406 1.5625,-3.296875 Z m -1.515625,2.875 c 0.300781,-0.023437 0.488281,-0.089844 0.5625,-0.203125 0.082031,-0.105469 0.125,-0.273438 0.125,-0.5 v -4.609375 c 0,-0.238281 -0.03125,-0.394531 -0.09375,-0.46875 C 0.585938,-3.867188 0.476562,-3.90625 0.3125,-3.90625 c -0.03125,0 -0.0625,0.00781 -0.09375,0.015625 -0.03125,0 -0.074219,0.00781 -0.125,0.015625 V -4.03125 L 0.546875,-4.1875 c 0.007813,0 0.328125,-0.109375 0.953125,-0.328125 0.019531,0 0.035156,0.011719 0.046875,0.03125 0.00781,0.011719 0.015625,0.027344 0.015625,0.046875 v 0.640625 C 1.769531,-4.003906 1.953125,-4.160156 2.109375,-4.265625 2.398438,-4.441406 2.695312,-4.53125 3,-4.53125 c 0.4375,0 0.8125,0.1875 1.125,0.5625 0.320312,0.375 0.484375,0.890625 0.484375,1.546875 0,0.636719 -0.195313,1.214844 -0.578125,1.734375 -0.375,0.523438 -0.855469,0.78125 -1.4375,0.78125 -0.179688,0 -0.328125,-0.0234375 -0.453125,-0.0625 C 1.929688,-0.0390625 1.738281,-0.164062 1.5625,-0.34375 v 1.578125 c 0,0.320313 0.050781,0.519531 0.15625,0.59375 0.113281,0.070313 0.347656,0.117187 0.703125,0.140625 v 0.171875 h -2.375 z m 0,0"
           id="path73" />
      </g>
      <g
         id="use334"
         transform="translate(527.49713,150.97501)">
        <path
           d="m 2.5,-4.421875 v 0.34375 H 1.515625 V -1.3125 c 0,0.242188 0.019531,0.421875 0.0625,0.546875 0.070313,0.21875 0.222656,0.328125 0.453125,0.328125 0.113281,0 0.210938,-0.023438 0.296875,-0.078125 0.082031,-0.050781 0.175781,-0.132813 0.28125,-0.25 l 0.125,0.09375 -0.09375,0.15625 c -0.167969,0.21875 -0.34375,0.375 -0.53125,0.46875 -0.1875,0.09375 -0.371094,0.140625 -0.546875,0.140625 -0.375,0 -0.632812,-0.1640625 -0.765625,-0.5 C 0.722656,-0.59375 0.6875,-0.847656 0.6875,-1.171875 v -2.90625 H 0.171875 C 0.148438,-4.085938 0.132812,-4.097656 0.125,-4.109375 c 0,-0.00781 0,-0.019531 0,-0.03125 0,-0.03125 0.003906,-0.054687 0.015625,-0.078125 0.007813,-0.019531 0.054687,-0.0625 0.140625,-0.125 C 0.5,-4.519531 0.65625,-4.664062 0.75,-4.78125 0.851562,-4.894531 1.082031,-5.195312 1.4375,-5.6875 c 0.039062,0 0.066406,0.00781 0.078125,0.015625 0.00781,0 0.015625,0.023437 0.015625,0.0625 v 1.1875 z m 0,0"
           id="path86" />
      </g>
    </g>
    <g
       fill="#231f20"
       fill-opacity="1"
       id="g339"
       transform="matrix(0.35277777,0,0,0.35277777,-18.943889,100.93072)">
      <g
         id="use336"
         transform="translate(439.42499,88.199997)">
        <path
           d="m 2.921875,-0.359375 c 0.5,0 0.914063,-0.09375 1.25,-0.28125 0.34375,-0.195313 0.515625,-0.570313 0.515625,-1.125 0,-0.550781 -0.199219,-0.925781 -0.59375,-1.125 -0.398438,-0.207031 -0.902344,-0.3125 -1.515625,-0.3125 -0.148437,0 -0.242187,0 -0.28125,0 -0.042969,0 -0.105469,0 -0.1875,0 v 2.4375 c 0,0.179687 0.046875,0.292969 0.140625,0.34375 0.101562,0.042969 0.328125,0.0625 0.671875,0.0625 z m -2.75,0.1875 c 0.394531,-0.03125 0.648437,-0.09375 0.765625,-0.1875 0.113281,-0.101563 0.171875,-0.335937 0.171875,-0.703125 v -4.375 c 0,-0.363281 -0.058594,-0.597656 -0.171875,-0.703125 C 0.820312,-6.242188 0.566406,-6.300781 0.171875,-6.3125 V -6.5 h 2.75 c 0.789063,0 1.414063,0.125 1.875,0.375 0.457031,0.25 0.6875,0.6875 0.6875,1.3125 0,0.460938 -0.164063,0.808594 -0.484375,1.046875 -0.179688,0.136719 -0.449219,0.25 -0.8125,0.34375 0.445312,0.105469 0.832031,0.289063 1.15625,0.546875 0.320312,0.25 0.484375,0.605469 0.484375,1.0625 0,0.773438 -0.359375,1.304688 -1.078125,1.59375 C 4.375,-0.0703125 3.914062,0 3.375,0 H 0.171875 Z m 2.875,-3.421875 C 3.378906,-3.601562 3.65625,-3.65625 3.875,-3.75 c 0.40625,-0.195312 0.609375,-0.539062 0.609375,-1.03125 0,-0.582031 -0.242187,-0.976562 -0.71875,-1.1875 C 3.503906,-6.082031 3.101562,-6.140625 2.5625,-6.140625 c -0.210938,0 -0.339844,0.023437 -0.390625,0.0625 -0.042969,0.03125 -0.0625,0.125 -0.0625,0.28125 v 2.21875 z m 0,0"
           id="path72" />
      </g>
      <g
         id="use337"
         transform="translate(445.98328,88.199997)">
        <path
           d="M 0.25,-2.234375 C 0.25,-2.867188 0.453125,-3.40625 0.859375,-3.84375 1.265625,-4.28125 1.785156,-4.5 2.421875,-4.5 c 0.632813,0 1.15625,0.210938 1.5625,0.625 0.414063,0.417969 0.625,0.96875 0.625,1.65625 0,0.636719 -0.203125,1.195312 -0.609375,1.671875 -0.398438,0.46875 -0.914062,0.703125 -1.546875,0.703125 -0.617187,0 -1.136719,-0.2226562 -1.5625,-0.671875 C 0.460938,-0.972656 0.25,-1.546875 0.25,-2.234375 Z M 2.28125,-4.21875 c -0.25,0 -0.46875,0.085938 -0.65625,0.25 -0.324219,0.292969 -0.484375,0.796875 -0.484375,1.515625 0,0.5625 0.128906,1.09375 0.390625,1.59375 0.257812,0.492187 0.617188,0.734375 1.078125,0.734375 0.351563,0 0.625,-0.160156 0.8125,-0.484375 0.195313,-0.332031 0.296875,-0.769531 0.296875,-1.3125 0,-0.550781 -0.125,-1.070313 -0.375,-1.5625 C 3.101562,-3.972656 2.75,-4.21875 2.28125,-4.21875 Z M 2.46875,-4.5 Z m 0,0"
           id="path95" />
      </g>
      <g
         id="use338"
         transform="translate(450.89954,88.199997)">
        <path
           d="m 0.03125,-6.109375 v -0.15625 c 0.363281,-0.082031 0.691406,-0.175781 0.984375,-0.28125 0.289063,-0.101563 0.445313,-0.15625 0.46875,-0.15625 C 1.492188,-6.679688 1.5,-6.660156 1.5,-6.640625 v 2.921875 c 0.082031,-0.15625 0.207031,-0.300781 0.375,-0.4375 0.289062,-0.238281 0.628906,-0.359375 1.015625,-0.359375 0.46875,0 0.867187,0.199219 1.203125,0.59375 0.332031,0.398437 0.5,0.914063 0.5,1.546875 0,0.679688 -0.21875,1.261719 -0.65625,1.75 -0.429688,0.480469 -0.996094,0.71875 -1.703125,0.71875 -0.355469,0 -0.703125,-0.0703125 -1.046875,-0.203125 -0.335938,-0.144531 -0.5,-0.289063 -0.5,-0.4375 v -5.0625 C 0.6875,-5.796875 0.660156,-5.925781 0.609375,-6 0.554688,-6.082031 0.4375,-6.125 0.25,-6.125 Z m 1.453125,5.40625 c 0.019531,0.167969 0.140625,0.289063 0.359375,0.359375 0.226562,0.074219 0.425781,0.109375 0.59375,0.109375 0.445312,0 0.773438,-0.164063 0.984375,-0.5 C 3.640625,-1.078125 3.75,-1.484375 3.75,-1.953125 3.75,-2.429688 3.644531,-2.875 3.4375,-3.28125 3.238281,-3.6875 2.914062,-3.890625 2.46875,-3.890625 c -0.230469,0 -0.453125,0.074219 -0.671875,0.21875 -0.210937,0.136719 -0.3125,0.3125 -0.3125,0.53125 z m 0,0"
           id="path71" />
      </g>
      <g
         id="use339"
         transform="translate(455.81577,88.199997)" />
    </g>
    <g
       fill="#231f20"
       fill-opacity="1"
       id="g340"
       transform="matrix(0.35277777,0,0,0.35277777,-18.943889,100.93072)">
      <g
         id="use340"
         transform="translate(223.05101,88.199997)">
        <path
           d="M 4.390625,-2.53125 3.25,-5.234375 2.125,-2.53125 Z M 0.140625,0 v -0.171875 c 0.25,-0.03125 0.4375,-0.125 0.5625,-0.28125 0.132813,-0.164063 0.351563,-0.613281 0.65625,-1.34375 L 3.40625,-6.625 h 0.203125 l 2.4375,5.578125 c 0.164063,0.375 0.296875,0.609375 0.390625,0.703125 0.101562,0.085938 0.269531,0.140625 0.5,0.171875 V 0 h -2.5 v -0.171875 c 0.28125,-0.03125 0.460938,-0.0625 0.546875,-0.09375 0.082031,-0.039063 0.125,-0.132813 0.125,-0.28125 0,-0.039063 -0.015625,-0.125 -0.046875,-0.25 -0.03125,-0.125 -0.074219,-0.253906 -0.125,-0.390625 L 4.53125,-2.125 H 1.953125 c -0.261719,0.648438 -0.417969,1.042969 -0.46875,1.1875 -0.042969,0.136719 -0.0625,0.246094 -0.0625,0.328125 0,0.167969 0.066406,0.28125 0.203125,0.34375 0.082031,0.042969 0.238281,0.074219 0.46875,0.09375 V 0 Z m 3.375,-6.625 z m 0,0"
           id="path70" />
      </g>
    </g>
    <g
       fill="#231f20"
       fill-opacity="1"
       id="g341"
       transform="matrix(0.35277777,0,0,0.35277777,-18.943889,100.93072)">
      <g
         id="use341"
         transform="translate(230.15138,88.199997)">
        <path
           d="M 0.203125,-0.140625 C 0.492188,-0.160156 0.691406,-0.21875 0.796875,-0.3125 0.910156,-0.40625 0.96875,-0.582031 0.96875,-0.84375 v -4.6875 c 0,-0.21875 -0.023438,-0.363281 -0.0625,-0.4375 -0.0625,-0.132812 -0.195312,-0.203125 -0.390625,-0.203125 -0.042969,0 -0.089844,0.00781 -0.140625,0.015625 -0.054688,0.011719 -0.121094,0.023438 -0.203125,0.03125 v -0.15625 c 0.4375,-0.113281 0.957031,-0.265625 1.5625,-0.453125 0.019531,0 0.03125,0.011719 0.03125,0.03125 0.00781,0.011719 0.015625,0.054687 0.015625,0.125 v 5.75 c 0,0.28125 0.046875,0.464844 0.140625,0.546875 0.101563,0.074219 0.304687,0.121094 0.609375,0.140625 V 0 H 0.203125 Z m 0,0"
           id="path79" />
      </g>
    </g>
    <g
       fill="#231f20"
       fill-opacity="1"
       id="g342"
       transform="matrix(0.35277777,0,0,0.35277777,-18.943889,100.93072)">
      <g
         id="use342"
         transform="translate(232.88304,88.199997)">
        <path
           d="m 0.8125,-6.203125 c 0,-0.132813 0.046875,-0.25 0.140625,-0.34375 0.09375,-0.101563 0.210937,-0.15625 0.359375,-0.15625 0.132812,0 0.25,0.054687 0.34375,0.15625 0.09375,0.09375 0.140625,0.210937 0.140625,0.34375 C 1.796875,-6.054688 1.75,-5.9375 1.65625,-5.84375 1.5625,-5.75 1.445312,-5.703125 1.3125,-5.703125 1.164062,-5.703125 1.046875,-5.75 0.953125,-5.84375 0.859375,-5.9375 0.8125,-6.054688 0.8125,-6.203125 Z m -0.625,6.0625 C 0.53125,-0.171875 0.742188,-0.226562 0.828125,-0.3125 0.921875,-0.394531 0.96875,-0.625 0.96875,-1 v -2.28125 c 0,-0.207031 -0.011719,-0.351562 -0.03125,-0.4375 -0.054688,-0.132812 -0.15625,-0.203125 -0.3125,-0.203125 -0.03125,0 -0.070312,0.00781 -0.109375,0.015625 -0.03125,0.011719 -0.125,0.039062 -0.28125,0.078125 v -0.15625 l 0.203125,-0.0625 c 0.5625,-0.175781 0.953125,-0.3125 1.171875,-0.40625 0.09375,-0.039063 0.148437,-0.0625 0.171875,-0.0625 0.00781,0.023437 0.015625,0.046875 0.015625,0.078125 V -1 c 0,0.367188 0.039063,0.59375 0.125,0.6875 0.09375,0.09375 0.296875,0.152344 0.609375,0.171875 V 0 H 0.1875 Z m 0,0"
           id="path13" />
      </g>
    </g>
    <g
       fill="#231f20"
       fill-opacity="1"
       id="g343"
       transform="matrix(0.35277777,0,0,0.35277777,-18.943889,100.93072)">
      <g
         id="use343"
         transform="translate(235.6147,88.199997)">
        <path
           d="m 2.4375,-4.53125 c 0.40625,0 0.75,0.105469 1.03125,0.3125 0.289062,0.210938 0.4375,0.4375 0.4375,0.6875 0,0.105469 -0.039062,0.203125 -0.109375,0.296875 -0.074219,0.085937 -0.1875,0.125 -0.34375,0.125 C 3.347656,-3.109375 3.25,-3.144531 3.15625,-3.21875 3.070312,-3.289062 3.015625,-3.40625 2.984375,-3.5625 l -0.0625,-0.21875 C 2.878906,-3.957031 2.804688,-4.078125 2.703125,-4.140625 2.597656,-4.210938 2.460938,-4.25 2.296875,-4.25 c -0.375,0 -0.6875,0.164062 -0.9375,0.484375 -0.25,0.3125 -0.375,0.734375 -0.375,1.265625 0,0.480469 0.132813,0.914062 0.40625,1.296875 0.28125,0.386719 0.660156,0.578125 1.140625,0.578125 0.320312,0 0.613281,-0.109375 0.875,-0.328125 0.144531,-0.125 0.3125,-0.320313 0.5,-0.59375 L 4.046875,-1.46875 C 3.859375,-1.082031 3.664062,-0.773438 3.46875,-0.546875 3.082031,-0.117188 2.632812,0.09375 2.125,0.09375 1.625,0.09375 1.179688,-0.101562 0.796875,-0.5 0.410156,-0.894531 0.21875,-1.429688 0.21875,-2.109375 c 0,-0.65625 0.207031,-1.222656 0.625,-1.703125 0.425781,-0.476562 0.957031,-0.71875 1.59375,-0.71875 z m -0.203125,0 z m 0,0"
           id="path20" />
      </g>
    </g>
    <g
       fill="#231f20"
       fill-opacity="1"
       id="g344"
       transform="matrix(0.35277777,0,0,0.35277777,-18.943889,100.93072)">
      <g
         id="use344"
         transform="translate(239.97876,88.199997)">
        <path
           d="m 2.25,-4.5 c 0.445312,0 0.835938,0.15625 1.171875,0.46875 0.34375,0.3125 0.515625,0.757812 0.515625,1.328125 H 0.890625 c 0.039063,0.742187 0.210937,1.28125 0.515625,1.625 0.300781,0.335937 0.660156,0.5 1.078125,0.5 0.332031,0 0.613281,-0.085937 0.84375,-0.265625 0.226563,-0.175781 0.441406,-0.425781 0.640625,-0.75 l 0.171875,0.0625 c -0.136719,0.40625 -0.386719,0.78125 -0.75,1.125 -0.355469,0.34375 -0.792969,0.515625 -1.3125,0.515625 -0.605469,0 -1.074219,-0.222656 -1.40625,-0.671875 C 0.347656,-1.019531 0.1875,-1.546875 0.1875,-2.140625 c 0,-0.632813 0.1875,-1.1875 0.5625,-1.65625 C 1.132812,-4.265625 1.632812,-4.5 2.25,-4.5 Z m -0.28125,0.34375 c -0.367188,0 -0.640625,0.164062 -0.828125,0.484375 -0.105469,0.179687 -0.179687,0.398437 -0.21875,0.65625 H 2.9375 C 2.90625,-3.335938 2.847656,-3.578125 2.765625,-3.734375 2.609375,-4.015625 2.34375,-4.15625 1.96875,-4.15625 Z M 2.1875,-4.5 Z m 0,0"
           id="path83" />
      </g>
    </g>
    <path
       fill="none"
       stroke-width="0.144198"
       stroke-linecap="butt"
       stroke-linejoin="miter"
       stroke="#231f20"
       stroke-opacity="1"
       stroke-miterlimit="4"
       d="m 53.155074,146.8359 c 0,-0.74138 0.581533,-1.32291 1.296733,-1.32291 m 31.220836,0 c 0.713824,0 1.269174,0.58153 1.269174,1.32291 m 41.645693,0 c 0,-0.74138 0.58291,-1.32291 1.32292,-1.32291 m 18.20388,0 c 0.71383,0 1.29674,0.58153 1.29674,1.32291 m 0,12.99077 c 0,0.7152 -0.58291,1.29674 -1.29674,1.29674"
       id="path345" />
    <g
       fill="#231f20"
       fill-opacity="1"
       id="g346"
       transform="matrix(0.35277777,0,0,0.35277777,-18.943889,100.93072)">
      <g
         id="use346"
         transform="translate(441.07501,167.10001)">
        <path
           d="M 9.84375,-6.675781 H 8.160156 L 4.589844,-1.492188 4.015625,-6.675781 H 2.105469 l -0.027344,0.167969 c 0.324219,0.019531 0.75,0.027343 0.75,0.472656 0,0.140625 -0.039063,0.296875 -0.136719,0.664062 L 1.523438,-1.175781 C 1.246094,-0.160156 0.910156,-0.167969 0.503906,-0.167969 L 0.476562,0 h 2.125 l 0.03125,-0.167969 c -0.277343,-0.011719 -0.753906,-0.03125 -0.753906,-0.476562 0,-0.097657 0.03125,-0.285157 0.128906,-0.632813 L 3.195312,-5.492188 3.828125,0 h 0.1875 l 3.75,-5.460938 -1.128906,4.292969 c -0.226563,0.851563 -0.453125,0.96875 -1.226563,1 L 5.382812,0 h 2.917969 l 0.027344,-0.167969 c -0.375,0 -0.75,0.007813 -0.75,-0.484375 0,-0.128906 0.019531,-0.289062 0.078125,-0.496094 L 8.863281,-5.519531 C 9.0625,-6.230469 9.359375,-6.507812 9.8125,-6.507812 l 0.03125,-0.167969"
           id="path64" />
      </g>
    </g>
    <g
       fill="#231f20"
       fill-opacity="1"
       id="g348"
       transform="matrix(0.35277777,0,0,0.35277777,-18.943889,100.93072)">
      <g
         id="use348"
         transform="translate(451.79999,163.5)">
        <path
           d="m 1.78125,-3.160156 c 0,-0.195313 -0.199219,-0.34375 -0.402344,-0.34375 -0.140625,0 -0.273437,0.070312 -0.328125,0.273437 l -0.855469,2.890625 0.191407,0.074219 1.351562,-2.742187 C 1.757812,-3.058594 1.78125,-3.109375 1.78125,-3.160156"
           id="path28" />
      </g>
    </g>
    <g
       fill="#231f20"
       fill-opacity="1"
       id="g350"
       transform="matrix(0.35277777,0,0,0.35277777,-18.943889,100.93072)">
      <g
         id="use350"
         transform="translate(168.22478,172.575)">
        <path
           d="M 9.84375,-6.675781 H 8.160156 L 4.589844,-1.492188 4.015625,-6.675781 H 2.105469 l -0.027344,0.167969 c 0.324219,0.019531 0.75,0.027343 0.75,0.472656 0,0.140625 -0.039063,0.296875 -0.136719,0.664062 L 1.523438,-1.175781 C 1.246094,-0.160156 0.910156,-0.167969 0.503906,-0.167969 L 0.476562,0 h 2.125 l 0.03125,-0.167969 c -0.277343,-0.011719 -0.753906,-0.03125 -0.753906,-0.476562 0,-0.097657 0.03125,-0.285157 0.128906,-0.632813 L 3.195312,-5.492188 3.828125,0 h 0.1875 l 3.75,-5.460938 -1.128906,4.292969 c -0.226563,0.851563 -0.453125,0.96875 -1.226563,1 L 5.382812,0 h 2.917969 l 0.027344,-0.167969 c -0.375,0 -0.75,0.007813 -0.75,-0.484375 0,-0.128906 0.019531,-0.289062 0.078125,-0.496094 L 8.863281,-5.519531 C 9.0625,-6.230469 9.359375,-6.507812 9.8125,-6.507812 l 0.03125,-0.167969"
           id="path65" />
      </g>
    </g>
    <g
       fill="#231f20"
       fill-opacity="1"
       id="g352"
       transform="matrix(0.35277777,0,0,0.35277777,-18.943889,100.93072)">
      <g
         id="use352"
         transform="translate(179.02478,168.97501)">
        <path
           d="m 1.78125,-3.160156 c 0,-0.195313 -0.199219,-0.34375 -0.402344,-0.34375 -0.140625,0 -0.273437,0.070312 -0.328125,0.273437 l -0.855469,2.890625 0.191407,0.074219 1.351562,-2.742187 C 1.757812,-3.058594 1.78125,-3.109375 1.78125,-3.160156"
           id="path29" />
      </g>
    </g>
    <g
       fill="#231f20"
       fill-opacity="1"
       id="g354"
       transform="matrix(0.35277777,0,0,0.35277777,-18.943889,100.93072)">
      <g
         id="use354"
         transform="translate(441.89957,127.95)">
        <path
           d="m 7.074219,-5.113281 c 0,-0.742188 -0.496094,-1.5625 -2.285157,-1.5625 H 2.503906 l -0.019531,0.167969 c 0.324219,0.019531 0.742187,0.027343 0.742187,0.472656 0,0.140625 -0.03125,0.296875 -0.140624,0.664062 L 1.917969,-1.15625 C 1.640625,-0.160156 1.335938,-0.207031 0.890625,-0.167969 L 0.871094,0 h 2.679687 l 0.019531,-0.167969 c -0.257812,0 -0.742187,-0.039062 -0.742187,-0.523437 0,-0.089844 0.011719,-0.199219 0.050781,-0.328125 l 0.582032,-2.144531 c 0.386718,0 0.773437,0 0.773437,0 2.125,0 2.839844,-1.050782 2.839844,-1.949219 z M 6.054688,-5.203125 c 0,1.207031 -0.871094,1.722656 -1.898438,1.722656 H 3.5625 l 0.808594,-2.910156 h 0.328125 c 0.96875,0 1.355469,0.40625 1.355469,1.1875"
           id="path63" />
      </g>
    </g>
    <g
       fill="#231f20"
       fill-opacity="1"
       id="g356"
       transform="matrix(0.35277777,0,0,0.35277777,-18.943889,100.93072)">
      <g
         id="use356"
         transform="translate(448.04956,129.45)">
        <path
           d="m 4.660156,-0.195312 c -0.460937,0 -0.5,-0.195313 -0.523437,-0.621094 L 3.96875,-4.660156 H 3.769531 l -2.71875,3.945312 c -0.3125,0.441406 -0.476562,0.519532 -0.695312,0.519532 L 0.324219,0 h 1.359375 l 0.03125,-0.195312 c -0.246094,0 -0.394532,-0.046876 -0.394532,-0.214844 0,-0.101563 0.050782,-0.242188 0.171876,-0.417969 l 0.460937,-0.675781 h 1.402344 l 0.039062,0.800781 C 3.40625,-0.242188 3.199219,-0.195312 2.820312,-0.195312 L 2.777344,0 h 1.839844 z m -1.308594,-1.625 H 2.179688 l 1.09375,-1.585938 z m 0,0"
           id="path25" />
      </g>
    </g>
    <g
       fill="#231f20"
       fill-opacity="1"
       id="g358"
       transform="matrix(0.35277777,0,0,0.35277777,-18.943889,100.93072)">
      <g
         id="use358"
         transform="translate(228.37473,127.95)">
        <path
           d="M 5.984375,-6.824219 H 5.777344 c -0.117188,0.226563 -0.257813,0.335938 -0.476563,0.335938 -0.316406,0 -0.730469,-0.335938 -1.492187,-0.335938 -0.988282,0 -1.917969,0.632813 -1.917969,1.699219 0,1.515625 2.3125,2.238281 2.3125,3.613281 0,0.621094 -0.492187,1.3125 -1.375,1.3125 -0.761719,0 -1.5625,-0.601562 -1.5625,-1.671875 0,-0.15625 0.011719,-0.265625 0.03125,-0.363281 H 1.097656 L 0.671875,0.128906 h 0.179687 c 0.089844,-0.1992185 0.207032,-0.386718 0.464844,-0.386718 0.296875,0 0.910156,0.40625 1.671875,0.40625 1.433594,0 2.15625,-1.027344 2.15625,-1.96875 0,-1.621094 -2.355469,-2.402344 -2.355469,-3.640626 0,-0.613281 0.484376,-1.019531 1.136719,-1.019531 0.8125,0 1.425781,0.546875 1.445313,1.355469 0.011718,0.160156 0,0.277344 -0.019532,0.40625 h 0.1875 l 0.445313,-2.105469"
           id="path61" />
      </g>
    </g>
    <g
       fill="#231f20"
       fill-opacity="1"
       id="g360"
       transform="matrix(0.35277777,0,0,0.35277777,-18.943889,100.93072)">
      <g
         id="use360"
         transform="translate(233.54973,129.45)">
        <path
           d="m 4.660156,-0.195312 c -0.460937,0 -0.5,-0.195313 -0.523437,-0.621094 L 3.96875,-4.660156 H 3.769531 l -2.71875,3.945312 c -0.3125,0.441406 -0.476562,0.519532 -0.695312,0.519532 L 0.324219,0 h 1.359375 l 0.03125,-0.195312 c -0.246094,0 -0.394532,-0.046876 -0.394532,-0.214844 0,-0.101563 0.050782,-0.242188 0.171876,-0.417969 l 0.460937,-0.675781 h 1.402344 l 0.039062,0.800781 C 3.40625,-0.242188 3.199219,-0.195312 2.820312,-0.195312 L 2.777344,0 h 1.839844 z m -1.308594,-1.625 H 2.179688 l 1.09375,-1.585938 z m 0,0"
           id="path26" />
      </g>
    </g>
    <g
       fill="#231f20"
       fill-opacity="1"
       id="g362"
       transform="matrix(0.35277777,0,0,0.35277777,-18.943889,100.93072)">
      <g
         id="use362"
         transform="translate(418.57489,122.4)">
        <path
           d="m 5.578125,-4.519531 c -0.554687,0.128906 -0.976563,0.167969 -1.316406,0.167969 -0.679688,0 -1.046875,-0.167969 -1.589844,-0.167969 -1.414063,0 -2.433594,1.582031 -2.433594,2.957031 0,0.960938 0.761719,1.679688 1.71875,1.679688 1.078125,0 2.386719,-0.742188 2.386719,-2.402344 0,-0.484375 -0.167969,-1.296875 -0.605469,-1.621094 0.011719,0 0.296875,0.058594 0.613281,0.058594 0.585938,0 1.226563,-0.226563 1.226563,-0.671875 z m -1.976563,2.046875 c 0,1.007812 -0.734374,2.363281 -1.613281,2.363281 -0.148437,0 -1.007812,-0.109375 -1.007812,-1.324219 0,-1.078125 0.671875,-2.503906 1.730469,-2.503906 0.601562,0 0.890624,0.753906 0.890624,1.464844"
           id="path22" />
      </g>
    </g>
    <g
       fill="#231f20"
       fill-opacity="1"
       id="g364"
       transform="matrix(0.35277777,0,0,0.35277777,-18.943889,100.93072)">
      <g
         id="use364"
         transform="translate(343.57492,167.10001)">
        <path
           d="M 3.542969,2.117188 V 1.9375 C 2.335938,1.246094 1.78125,-0.148438 1.78125,-2.503906 c 0,-2.3125 0.542969,-3.6875 1.761719,-4.421875 V -7.09375 c -1.710938,0.871094 -2.710938,2.5625 -2.710938,4.601562 0,2.066407 0.96875,3.660157 2.710938,4.609376"
           id="path59" />
      </g>
    </g>
    <g
       fill="#231f20"
       fill-opacity="1"
       id="g365"
       transform="matrix(0.35277777,0,0,0.35277777,-18.943889,100.93072)">
      <g
         id="use365"
         transform="translate(347.26401,167.10001)">
        <path
           d="M 9.84375,-6.675781 H 8.160156 L 4.589844,-1.492188 4.015625,-6.675781 H 2.105469 l -0.027344,0.167969 c 0.324219,0.019531 0.75,0.027343 0.75,0.472656 0,0.140625 -0.039063,0.296875 -0.136719,0.664062 L 1.523438,-1.175781 C 1.246094,-0.160156 0.910156,-0.167969 0.503906,-0.167969 L 0.476562,0 h 2.125 l 0.03125,-0.167969 c -0.277343,-0.011719 -0.753906,-0.03125 -0.753906,-0.476562 0,-0.097657 0.03125,-0.285157 0.128906,-0.632813 L 3.195312,-5.492188 3.828125,0 h 0.1875 l 3.75,-5.460938 -1.128906,4.292969 c -0.226563,0.851563 -0.453125,0.96875 -1.226563,1 L 5.382812,0 h 2.917969 l 0.027344,-0.167969 c -0.375,0 -0.75,0.007813 -0.75,-0.484375 0,-0.128906 0.019531,-0.289062 0.078125,-0.496094 L 8.863281,-5.519531 C 9.0625,-6.230469 9.359375,-6.507812 9.8125,-6.507812 l 0.03125,-0.167969"
           id="path66" />
      </g>
    </g>
    <g
       fill="#231f20"
       fill-opacity="1"
       id="g367"
       transform="matrix(0.35277777,0,0,0.35277777,-18.943889,100.93072)">
      <g
         id="use367"
         transform="translate(358.04993,163.5)">
        <path
           d="m 1.78125,-3.160156 c 0,-0.195313 -0.199219,-0.34375 -0.402344,-0.34375 -0.140625,0 -0.273437,0.070312 -0.328125,0.273437 l -0.855469,2.890625 0.191407,0.074219 1.351562,-2.742187 C 1.757812,-3.058594 1.78125,-3.109375 1.78125,-3.160156"
           id="path54" />
      </g>
    </g>
    <g
       fill="#231f20"
       fill-opacity="1"
       id="g369"
       transform="matrix(0.35277777,0,0,0.35277777,-18.943889,100.93072)">
      <g
         id="use369"
         transform="translate(360.29993,167.10001)">
        <path
           d="m 1.976562,-0.117188 c 0,-0.644531 -0.394531,-0.851562 -0.613281,-0.851562 -0.15625,0 -0.570312,0.097656 -0.570312,0.5625 0,0.3671875 0.316406,0.484375 0.484375,0.484375 0.078125,0 0.109375,-0.0390625 0.1875,-0.0390625 0.058594,0 0.15625,0.0703125 0.15625,0.2382815 0,0.128906 -0.039063,0.503906 -0.660156,0.949218 V 1.425781 C 1.472656,1.078125 1.976562,0.554688 1.976562,-0.117188"
           id="path21" />
      </g>
    </g>
    <g
       fill="#231f20"
       fill-opacity="1"
       id="g370"
       transform="matrix(0.35277777,0,0,0.35277777,-18.943889,100.93072)">
      <g
         id="use370"
         transform="translate(364.64447,167.10001)">
        <path
           d="m 5.578125,-4.519531 c -0.554687,0.128906 -0.976563,0.167969 -1.316406,0.167969 -0.679688,0 -1.046875,-0.167969 -1.589844,-0.167969 -1.414063,0 -2.433594,1.582031 -2.433594,2.957031 0,0.960938 0.761719,1.679688 1.71875,1.679688 1.078125,0 2.386719,-0.742188 2.386719,-2.402344 0,-0.484375 -0.167969,-1.296875 -0.605469,-1.621094 0.011719,0 0.296875,0.058594 0.613281,0.058594 0.585938,0 1.226563,-0.226563 1.226563,-0.671875 z m -1.976563,2.046875 c 0,1.007812 -0.734374,2.363281 -1.613281,2.363281 -0.148437,0 -1.007812,-0.109375 -1.007812,-1.324219 0,-1.078125 0.671875,-2.503906 1.730469,-2.503906 0.601562,0 0.890624,0.753906 0.890624,1.464844"
           id="path23" />
      </g>
    </g>
    <g
       fill="#231f20"
       fill-opacity="1"
       id="g371"
       transform="matrix(0.35277777,0,0,0.35277777,-18.943889,100.93072)">
      <g
         id="use371"
         transform="translate(370.97571,167.10001)">
        <path
           d="m 2.859375,-2.484375 c 0,-2.054687 -0.96875,-3.648437 -2.710937,-4.609375 v 0.179688 c 1.207031,0.703124 1.761718,2.097656 1.761718,4.441406 0,2.324218 -0.546875,3.699218 -1.761718,4.421875 V 2.117188 C 1.859375,1.257812 2.859375,-0.433594 2.859375,-2.484375"
           id="path97" />
      </g>
    </g>
    <g
       fill="#231f20"
       fill-opacity="1"
       id="g373"
       transform="matrix(0.35277777,0,0,0.35277777,-18.943889,100.93072)">
      <g
         id="use373"
         transform="translate(252.15013,122.4)">
        <path
           d="m 5.578125,-4.519531 c -0.554687,0.128906 -0.976563,0.167969 -1.316406,0.167969 -0.679688,0 -1.046875,-0.167969 -1.589844,-0.167969 -1.414063,0 -2.433594,1.582031 -2.433594,2.957031 0,0.960938 0.761719,1.679688 1.71875,1.679688 1.078125,0 2.386719,-0.742188 2.386719,-2.402344 0,-0.484375 -0.167969,-1.296875 -0.605469,-1.621094 0.011719,0 0.296875,0.058594 0.613281,0.058594 0.585938,0 1.226563,-0.226563 1.226563,-0.671875 z m -1.976563,2.046875 c 0,1.007812 -0.734374,2.363281 -1.613281,2.363281 -0.148437,0 -1.007812,-0.109375 -1.007812,-1.324219 0,-1.078125 0.671875,-2.503906 1.730469,-2.503906 0.601562,0 0.890624,0.753906 0.890624,1.464844"
           id="path24" />
      </g>
    </g>
    <g
       fill="#231f20"
       fill-opacity="1"
       id="g375"
       transform="matrix(0.35277777,0,0,0.35277777,-18.943889,100.93072)">
      <g
         id="use375"
         transform="translate(261.22513,122.4)">
        <path
           d="M 7.4375,-3.214844 V -3.769531 H 0.832031 v 0.554687 z m 0,2 V -1.769531 H 0.832031 v 0.554687 H 7.4375"
           id="path96" />
      </g>
    </g>
    <g
       fill="#231f20"
       fill-opacity="1"
       id="g377"
       transform="matrix(0.35277777,0,0,0.35277777,-18.943889,100.93072)">
      <g
         id="use377"
         transform="translate(272.17514,122.4)">
        <path
           d="M 5.984375,-6.824219 H 5.777344 c -0.117188,0.226563 -0.257813,0.335938 -0.476563,0.335938 -0.316406,0 -0.730469,-0.335938 -1.492187,-0.335938 -0.988282,0 -1.917969,0.632813 -1.917969,1.699219 0,1.515625 2.3125,2.238281 2.3125,3.613281 0,0.621094 -0.492187,1.3125 -1.375,1.3125 -0.761719,0 -1.5625,-0.601562 -1.5625,-1.671875 0,-0.15625 0.011719,-0.265625 0.03125,-0.363281 H 1.097656 L 0.671875,0.128906 h 0.179687 c 0.089844,-0.1992185 0.207032,-0.386718 0.464844,-0.386718 0.296875,0 0.910156,0.40625 1.671875,0.40625 1.433594,0 2.15625,-1.027344 2.15625,-1.96875 0,-1.621094 -2.355469,-2.402344 -2.355469,-3.640626 0,-0.613281 0.484376,-1.019531 1.136719,-1.019531 0.8125,0 1.425781,0.546875 1.445313,1.355469 0.011718,0.160156 0,0.277344 -0.019532,0.40625 h 0.1875 l 0.445313,-2.105469"
           id="path62" />
      </g>
    </g>
    <g
       fill="#231f20"
       fill-opacity="1"
       id="g379"
       transform="matrix(0.35277777,0,0,0.35277777,-18.943889,100.93072)">
      <g
         id="use379"
         transform="translate(277.42514,123.975)">
        <path
           d="m 4.660156,-0.195312 c -0.460937,0 -0.5,-0.195313 -0.523437,-0.621094 L 3.96875,-4.660156 H 3.769531 l -2.71875,3.945312 c -0.3125,0.441406 -0.476562,0.519532 -0.695312,0.519532 L 0.324219,0 h 1.359375 l 0.03125,-0.195312 c -0.246094,0 -0.394532,-0.046876 -0.394532,-0.214844 0,-0.101563 0.050782,-0.242188 0.171876,-0.417969 l 0.460937,-0.675781 h 1.402344 l 0.039062,0.800781 C 3.40625,-0.242188 3.199219,-0.195312 2.820312,-0.195312 L 2.777344,0 h 1.839844 z m -1.308594,-1.625 H 2.179688 l 1.09375,-1.585938 z m 0,0"
           id="path27" />
      </g>
    </g>
    <g
       fill="#231f20"
       fill-opacity="1"
       id="g381"
       transform="matrix(0.35277777,0,0,0.35277777,-18.943889,100.93072)">
      <g
         id="use381"
         transform="translate(282.97513,122.4)">
        <path
           d="M 3.542969,2.117188 V 1.9375 C 2.335938,1.246094 1.78125,-0.148438 1.78125,-2.503906 c 0,-2.3125 0.542969,-3.6875 1.761719,-4.421875 V -7.09375 c -1.710938,0.871094 -2.710938,2.5625 -2.710938,4.601562 0,2.066407 0.96875,3.660157 2.710938,4.609376"
           id="path60" />
      </g>
    </g>
    <g
       fill="#231f20"
       fill-opacity="1"
       id="g382"
       transform="matrix(0.35277777,0,0,0.35277777,-18.943889,100.93072)">
      <g
         id="use382"
         transform="translate(286.66422,122.4)">
        <path
           d="M 9.84375,-6.675781 H 8.160156 L 4.589844,-1.492188 4.015625,-6.675781 H 2.105469 l -0.027344,0.167969 c 0.324219,0.019531 0.75,0.027343 0.75,0.472656 0,0.140625 -0.039063,0.296875 -0.136719,0.664062 L 1.523438,-1.175781 C 1.246094,-0.160156 0.910156,-0.167969 0.503906,-0.167969 L 0.476562,0 h 2.125 l 0.03125,-0.167969 c -0.277343,-0.011719 -0.753906,-0.03125 -0.753906,-0.476562 0,-0.097657 0.03125,-0.285157 0.128906,-0.632813 L 3.195312,-5.492188 3.828125,0 h 0.1875 l 3.75,-5.460938 -1.128906,4.292969 c -0.226563,0.851563 -0.453125,0.96875 -1.226563,1 L 5.382812,0 h 2.917969 l 0.027344,-0.167969 c -0.375,0 -0.75,0.007813 -0.75,-0.484375 0,-0.128906 0.019531,-0.289062 0.078125,-0.496094 L 8.863281,-5.519531 C 9.0625,-6.230469 9.359375,-6.507812 9.8125,-6.507812 l 0.03125,-0.167969"
           id="path67" />
      </g>
    </g>
    <g
       fill="#231f20"
       fill-opacity="1"
       id="g384"
       transform="matrix(0.35277777,0,0,0.35277777,-18.943889,100.93072)">
      <g
         id="use384"
         transform="translate(297.45013,118.8)">
        <path
           d="m 1.78125,-3.160156 c 0,-0.195313 -0.199219,-0.34375 -0.402344,-0.34375 -0.140625,0 -0.273437,0.070312 -0.328125,0.273437 l -0.855469,2.890625 0.191407,0.074219 1.351562,-2.742187 C 1.757812,-3.058594 1.78125,-3.109375 1.78125,-3.160156"
           id="path55" />
      </g>
    </g>
    <g
       fill="#231f20"
       fill-opacity="1"
       id="g386"
       transform="matrix(0.35277777,0,0,0.35277777,-18.943889,100.93072)">
      <g
         id="use386"
         transform="translate(299.77512,122.4)">
        <path
           d="m 2.859375,-2.484375 c 0,-2.054687 -0.96875,-3.648437 -2.710937,-4.609375 v 0.179688 c 1.207031,0.703124 1.761718,2.097656 1.761718,4.441406 0,2.324218 -0.546875,3.699218 -1.761718,4.421875 V 2.117188 C 1.859375,1.257812 2.859375,-0.433594 2.859375,-2.484375"
           id="path56" />
      </g>
    </g>
  </g>
</svg>
