<?xml version="1.0" encoding="UTF-8" standalone="no"?>
<!DOCTYPE svg PUBLIC "-//W3C//DTD SVG 1.1//EN" "http://www.w3.org/Graphics/SVG/1.1/DTD/svg11.dtd">
<!-- Generated by graphviz version 9.0.0 (20230911.1827)
 -->
<!-- Title: g Pages: 1 -->
<svg width="480pt" height="466pt" viewBox="0.00 0.00 480.14 466.00" xmlns="http://www.w3.org/2000/svg" xmlns:xlink="http://www.w3.org/1999/xlink">
<g id="graph0" class="graph" transform="scale(1 1) rotate(0) translate(4 462)">
<title>g</title>
<polygon fill="white" stroke="none" points="-4,4 -4,-462 476.14,-462 476.14,4 -4,4"/>
<g id="clust1" class="cluster">
<title>clusterG0</title>
<polygon fill="none" stroke="black" points="8,-8 8,-450 464.14,-450 464.14,-8 8,-8"/>
<text text-anchor="middle" x="236.07" y="-432.7" font-family="Times,serif" font-size="14.00">Memory (After Code Execution): Python</text>
</g>
<g id="clust2" class="cluster">
<title>clusterG1</title>
<polygon fill="none" stroke="black" points="16,-82 16,-351 212.5,-351 212.5,-82 16,-82"/>
<text text-anchor="middle" x="114.25" y="-333.7" font-family="Times,serif" font-size="14.00">Stack</text>
</g>
<g id="clust3" class="cluster">
<title>clusterG2</title>
<polygon fill="none" stroke="black" points="232.5,-16 232.5,-417 456.14,-417 456.14,-16 232.5,-16"/>
<text text-anchor="middle" x="344.32" y="-399.7" font-family="Times,serif" font-size="14.00">Heap</text>
</g>
<!-- stvars -->
<g id="node1" class="node">
<title>stvars</title>
<polygon fill="none" stroke="black" points="24,-90.38 24,-317.62 204.5,-317.62 204.5,-90.38 24,-90.38"/>
<text text-anchor="middle" x="65" y="-300.32" font-family="Courier,monospace" font-size="14.00">cur_date</text>
<polyline fill="none" stroke="black" points="24,-292.38 106,-292.38"/>
<text text-anchor="middle" x="65" y="-275.07" font-family="Courier,monospace" font-size="14.00">num_rows</text>
<polyline fill="none" stroke="black" points="24,-267.12 106,-267.12"/>
<text text-anchor="middle" x="65" y="-249.82" font-family="Courier,monospace" font-size="14.00">filled</text>
<polyline fill="none" stroke="black" points="24,-241.88 106,-241.88"/>
<text text-anchor="middle" x="65" y="-224.57" font-family="Courier,monospace" font-size="14.00">empty</text>
<polyline fill="none" stroke="black" points="24,-216.62 106,-216.62"/>
<text text-anchor="middle" x="65" y="-199.32" font-family="Courier,monospace" font-size="14.00">num_cols</text>
<polyline fill="none" stroke="black" points="24,-191.38 106,-191.38"/>
<text text-anchor="middle" x="65" y="-174.07" font-family="Courier,monospace" font-size="14.00">username</text>
<polyline fill="none" stroke="black" points="24,-166.12 106,-166.12"/>
<text text-anchor="middle" x="65" y="-148.82" font-family="Courier,monospace" font-size="14.00">i</text>
<polyline fill="none" stroke="black" points="24,-140.88 106,-140.88"/>
<text text-anchor="middle" x="65" y="-123.58" font-family="Courier,monospace" font-size="14.00">j</text>
<polyline fill="none" stroke="black" points="24,-115.62 106,-115.62"/>
<text text-anchor="middle" x="65" y="-98.33" font-family="Courier,monospace" font-size="14.00">z</text>
<polyline fill="none" stroke="black" points="106,-90.38 106,-317.62"/>
<text text-anchor="middle" x="155.25" y="-300.32" font-family="Courier,monospace" font-size="14.00">0x88b6e369</text>
<polyline fill="none" stroke="black" points="106,-292.38 204.5,-292.38"/>
<text text-anchor="middle" x="155.25" y="-275.07" font-family="Courier,monospace" font-size="14.00">13</text>
<polyline fill="none" stroke="black" points="106,-267.12 204.5,-267.12"/>
<text text-anchor="middle" x="155.25" y="-249.82" font-family="Courier,monospace" font-size="14.00">0xb335c746</text>
<polyline fill="none" stroke="black" points="106,-241.88 204.5,-241.88"/>
<text text-anchor="middle" x="155.25" y="-224.57" font-family="Courier,monospace" font-size="14.00">0x6164afe3</text>
<polyline fill="none" stroke="black" points="106,-216.62 204.5,-216.62"/>
<text text-anchor="middle" x="155.25" y="-199.32" font-family="Courier,monospace" font-size="14.00">2</text>
<polyline fill="none" stroke="black" points="106,-191.38 204.5,-191.38"/>
<text text-anchor="middle" x="155.25" y="-174.07" font-family="Courier,monospace" font-size="14.00">0xf7fc43e0</text>
<polyline fill="none" stroke="black" points="106,-166.12 204.5,-166.12"/>
<text text-anchor="middle" x="155.25" y="-148.82" font-family="Courier,monospace" font-size="14.00">0x2a873f1c</text>
<polyline fill="none" stroke="black" points="106,-140.88 204.5,-140.88"/>
<text text-anchor="middle" x="155.25" y="-123.58" font-family="Courier,monospace" font-size="14.00">0x88bb0093</text>
<polyline fill="none" stroke="black" points="106,-115.62 204.5,-115.62"/>
<text text-anchor="middle" x="155.25" y="-98.33" font-family="Courier,monospace" font-size="14.00">314</text>
</g>
<!-- h1 -->
<g id="node2" class="node">
<title>h1</title>
<ellipse fill="none" stroke="black" stroke-width="0" cx="344.32" cy="-366" rx="103.82" ry="18"/>
<text text-anchor="middle" x="344.32" y="-361.32" font-family="Courier,monospace" font-size="14.00">Date[2023-07-22]</text>
</g>
<!-- stvars&#45;&gt;h1 -->
<g id="edge1" class="edge">
<title>stvars:addr1-&gt;h1:g5</title>
<path fill="none" stroke="black" d="M205.25,-305C224.62,-305 216.17,-328.6 232.5,-339 239.58,-343.51 247.36,-347.27 255.41,-350.4"/>
<polygon fill="black" stroke="black" points="254.09,-353.64 264.68,-353.66 256.41,-347.04 254.09,-353.64"/>
</g>
<!-- h3 -->
<g id="node3" class="node">
<title>h3</title>
<ellipse fill="none" stroke="black" stroke-width="0" cx="344.32" cy="-150" rx="45.95" ry="18"/>
<text text-anchor="middle" x="344.32" y="-145.32" font-family="Courier,monospace" font-size="14.00">"Jeff"</text>
</g>
<!-- stvars&#45;&gt;h3 -->
<g id="edge3" class="edge">
<title>stvars:f6-&gt;h3</title>
<path fill="none" stroke="black" d="M205.25,-179C222.45,-179 262.33,-170.27 294.83,-162.39"/>
<polygon fill="black" stroke="black" points="295.62,-165.8 304.5,-160.02 293.95,-159 295.62,-165.8"/>
</g>
<!-- h4 -->
<g id="node4" class="node">
<title>h4</title>
<ellipse fill="none" stroke="black" stroke-width="0" cx="344.32" cy="-312" rx="34.37" ry="18"/>
<text text-anchor="start" x="327.82" y="-308.32" font-family="Courier,monospace" font-weight="bold" font-size="14.00">True</text>
</g>
<!-- stvars&#45;&gt;h4 -->
<g id="edge2" class="edge">
<title>stvars:f2-&gt;h4</title>
<path fill="none" stroke="black" d="M205.25,-255C223.26,-255 217.02,-275.8 232.5,-285 252.85,-297.09 278.35,-303.78 299.76,-307.47"/>
<polygon fill="black" stroke="black" points="298.94,-310.88 309.36,-308.95 300.01,-303.97 298.94,-310.88"/>
</g>
<!-- h5 -->
<g id="node5" class="node">
<title>h5</title>
<ellipse fill="none" stroke="black" stroke-width="0" cx="344.32" cy="-258" rx="40.16" ry="18"/>
<text text-anchor="start" x="323.69" y="-254.32" font-family="Courier,monospace" font-weight="bold" font-size="14.00">False</text>
</g>
<!-- stvars&#45;&gt;h5 -->
<g id="edge4" class="edge">
<title>stvars:f4-&gt;h5</title>
<path fill="none" stroke="black" d="M205.25,-229C223.13,-229 265.52,-238.43 298.65,-246.54"/>
<polygon fill="black" stroke="black" points="297.47,-249.85 308.01,-248.86 299.15,-243.06 297.47,-249.85"/>
</g>
<!-- h6 -->
<g id="node6" class="node">
<title>h6</title>
<ellipse fill="none" stroke="black" stroke-width="0" cx="344.32" cy="-42" rx="34.37" ry="18"/>
<text text-anchor="start" x="327.82" y="-38.33" font-family="Courier,monospace" font-weight="bold" font-size="14.00">None</text>
</g>
<!-- stvars&#45;&gt;h6 -->
<g id="edge5" class="edge">
<title>stvars:f9-&gt;h6</title>
<path fill="none" stroke="black" d="M205.25,-128C234.13,-128 210.2,-87.35 232.5,-69 251.05,-53.73 276.92,-46.87 298.99,-43.88"/>
<polygon fill="black" stroke="black" points="299.08,-47.39 308.63,-42.81 298.3,-40.43 299.08,-47.39"/>
</g>
<!-- h7 -->
<g id="node7" class="node">
<title>h7</title>
<ellipse fill="none" stroke="black" stroke-width="0" cx="344.32" cy="-96" rx="74.88" ry="18"/>
<text text-anchor="start" x="298.94" y="-92.33" font-family="Courier,monospace" font-weight="bold" font-size="14.00">Singleton 0</text>
</g>
<!-- stvars&#45;&gt;h7 -->
<g id="edge6" class="edge">
<title>stvars:f8-&gt;h7</title>
<path fill="none" stroke="black" d="M205.25,-153C223.26,-153 217.02,-132.2 232.5,-123 243.43,-116.51 255.84,-111.57 268.31,-107.82"/>
<polygon fill="black" stroke="black" points="269.07,-111.24 277.79,-105.22 267.22,-104.49 269.07,-111.24"/>
</g>
<!-- h8 -->
<g id="node8" class="node">
<title>h8</title>
<ellipse fill="none" stroke="black" stroke-width="0" cx="344.32" cy="-204" rx="74.88" ry="18"/>
<text text-anchor="start" x="298.94" y="-200.32" font-family="Courier,monospace" font-weight="bold" font-size="14.00">Singleton 2</text>
</g>
<!-- stvars&#45;&gt;h8 -->
<g id="edge7" class="edge">
<title>stvars:f5-&gt;h8</title>
<path fill="none" stroke="black" d="M205.25,-204C222.36,-204 240.66,-204 258.15,-204"/>
<polygon fill="black" stroke="black" points="258,-207.5 268,-204 258,-200.5 258,-207.5"/>
</g>
</g>
</svg>