<?xml version="1.0" encoding="UTF-8" standalone="no"?>
<!DOCTYPE svg PUBLIC "-//W3C//DTD SVG 1.1//EN" "http://www.w3.org/Graphics/SVG/1.1/DTD/svg11.dtd">
<!-- Generated by graphviz version 9.0.0 (20230911.1827)
 -->
<!-- Title: g Pages: 1 -->
<svg width="551pt" height="629pt" viewBox="0.00 0.00 550.64 629.00" xmlns="http://www.w3.org/2000/svg" xmlns:xlink="http://www.w3.org/1999/xlink">
<g id="graph0" class="graph" transform="scale(1 1) rotate(0) translate(4 625)">
<title>g</title>
<polygon fill="white" stroke="none" points="-4,4 -4,-625 546.64,-625 546.64,4 -4,4"/>
<g id="clust1" class="cluster">
<title>clusterG0</title>
<polygon fill="none" stroke="black" points="8,-8 8,-613 534.64,-613 534.64,-8 8,-8"/>
<text text-anchor="middle" x="271.32" y="-595.7" font-family="Times,serif" font-size="14.00">Memory (After Code Execution)</text>
</g>
<g id="clust2" class="cluster">
<title>clusterG1</title>
<polygon fill="none" stroke="black" points="16,-160 16,-480 229,-480 229,-160 16,-160"/>
<text text-anchor="middle" x="122.5" y="-462.7" font-family="Times,serif" font-size="14.00">Stack</text>
</g>
<g id="clust3" class="cluster">
<title>clusterG2</title>
<polygon fill="none" stroke="black" points="303,-16 303,-580 526.64,-580 526.64,-16 303,-16"/>
<text text-anchor="middle" x="414.82" y="-562.7" font-family="Times,serif" font-size="14.00">Heap</text>
</g>
<g id="clust4" class="cluster">
<title>clusterG20</title>
<polygon fill="none" stroke="black" points="334.69,-387 334.69,-547 494.94,-547 494.94,-387 334.69,-387"/>
</g>
<!-- stvars -->
<g id="node1" class="node">
<title>stvars</title>
<polygon fill="none" stroke="black" points="24,-168.12 24,-445.88 221,-445.88 221,-168.12 24,-168.12"/>
<text text-anchor="middle" x="73.25" y="-428.57" font-family="Courier,monospace" font-size="14.00">country_df</text>
<polyline fill="none" stroke="black" points="24,-420.62 122.5,-420.62"/>
<text text-anchor="middle" x="73.25" y="-403.32" font-family="Courier,monospace" font-size="14.00">pop_col</text>
<polyline fill="none" stroke="black" points="24,-395.38 122.5,-395.38"/>
<text text-anchor="middle" x="73.25" y="-378.07" font-family="Courier,monospace" font-size="14.00">num_rows</text>
<polyline fill="none" stroke="black" points="24,-370.12 122.5,-370.12"/>
<text text-anchor="middle" x="73.25" y="-352.82" font-family="Courier,monospace" font-size="14.00">filled</text>
<polyline fill="none" stroke="black" points="24,-344.88 122.5,-344.88"/>
<text text-anchor="middle" x="73.25" y="-327.57" font-family="Courier,monospace" font-size="14.00">alg_row</text>
<polyline fill="none" stroke="black" points="24,-319.62 122.5,-319.62"/>
<text text-anchor="middle" x="73.25" y="-302.32" font-family="Courier,monospace" font-size="14.00">num_cols</text>
<polyline fill="none" stroke="black" points="24,-294.38 122.5,-294.38"/>
<text text-anchor="middle" x="73.25" y="-277.07" font-family="Courier,monospace" font-size="14.00">username</text>
<polyline fill="none" stroke="black" points="24,-269.12 122.5,-269.12"/>
<text text-anchor="middle" x="73.25" y="-251.82" font-family="Courier,monospace" font-size="14.00">cur_date</text>
<polyline fill="none" stroke="black" points="24,-243.88 122.5,-243.88"/>
<text text-anchor="middle" x="73.25" y="-226.57" font-family="Courier,monospace" font-size="14.00">i</text>
<polyline fill="none" stroke="black" points="24,-218.62 122.5,-218.62"/>
<text text-anchor="middle" x="73.25" y="-201.32" font-family="Courier,monospace" font-size="14.00">j</text>
<polyline fill="none" stroke="black" points="24,-193.38 122.5,-193.38"/>
<text text-anchor="middle" x="73.25" y="-176.07" font-family="Courier,monospace" font-size="14.00">z</text>
<polyline fill="none" stroke="black" points="122.5,-168.12 122.5,-445.88"/>
<text text-anchor="middle" x="171.75" y="-428.57" font-family="Courier,monospace" font-size="14.00">0x03a80afc</text>
<polyline fill="none" stroke="black" points="122.5,-420.62 221,-420.62"/>
<text text-anchor="middle" x="171.75" y="-403.32" font-family="Courier,monospace" font-size="14.00">0x10ba8</text>
<polyline fill="none" stroke="black" points="122.5,-395.38 221,-395.38"/>
<text text-anchor="middle" x="171.75" y="-378.07" font-family="Courier,monospace" font-size="14.00">13</text>
<polyline fill="none" stroke="black" points="122.5,-370.12 221,-370.12"/>
<text text-anchor="middle" x="171.75" y="-352.82" font-family="Courier,monospace" font-size="14.00">True</text>
<polyline fill="none" stroke="black" points="122.5,-344.88 221,-344.88"/>
<text text-anchor="middle" x="171.75" y="-327.57" font-family="Courier,monospace" font-size="14.00">0xf7fc4380</text>
<polyline fill="none" stroke="black" points="122.5,-319.62 221,-319.62"/>
<text text-anchor="middle" x="171.75" y="-302.32" font-family="Courier,monospace" font-size="14.00">2</text>
<polyline fill="none" stroke="black" points="122.5,-294.38 221,-294.38"/>
<text text-anchor="middle" x="171.75" y="-277.07" font-family="Courier,monospace" font-size="14.00">0xf7fc43e0</text>
<polyline fill="none" stroke="black" points="122.5,-269.12 221,-269.12"/>
<text text-anchor="middle" x="171.75" y="-251.82" font-family="Courier,monospace" font-size="14.00">8ec3d9889</text>
<polyline fill="none" stroke="black" points="122.5,-243.88 221,-243.88"/>
<text text-anchor="middle" x="171.75" y="-226.57" font-family="Courier,monospace" font-size="14.00">0</text>
<polyline fill="none" stroke="black" points="122.5,-218.62 221,-218.62"/>
<text text-anchor="middle" x="171.75" y="-201.32" font-family="Courier,monospace" font-size="14.00">None</text>
<polyline fill="none" stroke="black" points="122.5,-193.38 221,-193.38"/>
<text text-anchor="middle" x="171.75" y="-176.07" font-family="Courier,monospace" font-size="14.00">314</text>
</g>
<!-- h0 -->
<g id="node2" class="node">
<title>h0</title>
<polygon fill="none" stroke="black" stroke-width="0" points="342.69,-502 342.69,-538 486.94,-538 486.94,-502 342.69,-502"/>
<text text-anchor="middle" x="414.82" y="-515.7" font-family="Times,serif" font-size="14.00">DataFrame object</text>
</g>
<!-- stvars&#45;&gt;h0 -->
<g id="edge1" class="edge">
<title>stvars:addr0-&gt;h0:d0</title>
<path fill="none" stroke="black" d="M222.5,-433C268.48,-433 261.33,-478.55 303,-498 312.08,-502.24 321.95,-505.66 331.94,-508.43"/>
<polygon fill="black" stroke="black" points="330.77,-511.74 341.33,-510.81 332.49,-504.96 330.77,-511.74"/>
</g>
<!-- h1 -->
<g id="node3" class="node">
<title>h1</title>
<polygon fill="none" stroke="black" points="343.94,-395.5 343.94,-496.5 485.69,-496.5 485.69,-395.5 343.94,-395.5"/>
<text text-anchor="middle" x="356.44" y="-479.2" font-family="Times,serif" font-size="14.00"> </text>
<polyline fill="none" stroke="black" points="343.94,-471.25 368.94,-471.25"/>
<text text-anchor="middle" x="356.44" y="-453.95" font-family="Times,serif" font-size="14.00">0</text>
<polyline fill="none" stroke="black" points="343.94,-446 368.94,-446"/>
<text text-anchor="middle" x="356.44" y="-428.7" font-family="Times,serif" font-size="14.00">1</text>
<polyline fill="none" stroke="black" points="343.94,-420.75 368.94,-420.75"/>
<text text-anchor="middle" x="356.44" y="-403.45" font-family="Times,serif" font-size="14.00">2</text>
<polyline fill="none" stroke="black" points="368.94,-395.5 368.94,-496.5"/>
<text text-anchor="middle" x="403.57" y="-479.2" font-family="Times,serif" font-size="14.00">name</text>
<polyline fill="none" stroke="black" points="368.94,-471.25 438.19,-471.25"/>
<text text-anchor="middle" x="403.57" y="-453.95" font-family="Times,serif" font-size="14.00">Albania</text>
<polyline fill="none" stroke="black" points="368.94,-446 438.19,-446"/>
<text text-anchor="middle" x="403.57" y="-428.7" font-family="Times,serif" font-size="14.00">Algeria</text>
<polyline fill="none" stroke="black" points="368.94,-420.75 438.19,-420.75"/>
<text text-anchor="middle" x="403.57" y="-403.45" font-family="Times,serif" font-size="14.00">Angola</text>
<polyline fill="none" stroke="black" points="438.19,-395.5 438.19,-496.5"/>
<text text-anchor="middle" x="461.94" y="-479.2" font-family="Times,serif" font-size="14.00">pop</text>
<polyline fill="none" stroke="black" points="438.19,-471.25 485.69,-471.25"/>
<text text-anchor="middle" x="461.94" y="-453.95" font-family="Times,serif" font-size="14.00">2.8</text>
<polyline fill="none" stroke="black" points="438.19,-446 485.69,-446"/>
<text text-anchor="middle" x="461.94" y="-428.7" font-family="Times,serif" font-size="14.00">44.2</text>
<polyline fill="none" stroke="black" points="438.19,-420.75 485.69,-420.75"/>
<text text-anchor="middle" x="461.94" y="-403.45" font-family="Times,serif" font-size="14.00">34.5</text>
</g>
<!-- stvars&#45;&gt;h1 -->
<g id="edge2" class="edge">
<title>stvars:addr1-&gt;h1:g5</title>
<path fill="none" stroke="black" stroke-dasharray="5,2" d="M222.5,-408C289.42,-408 280.43,-475.92 343.94,-497 346.46,-497.83 421.98,-500.11 450.79,-499.23"/>
<polygon fill="black" stroke="black" points="450.76,-502.75 460.31,-498.17 449.99,-495.79 450.76,-502.75"/>
</g>
<!-- stvars&#45;&gt;h1 -->
<g id="edge4" class="edge">
<title>stvars:f4-&gt;h1:g2</title>
<path fill="none" stroke="black" stroke-dasharray="5,2" d="M222.5,-332C288.23,-332 274.96,-421.51 331.43,-432"/>
<polygon fill="black" stroke="black" points="331.04,-435.48 341.31,-432.87 331.66,-428.51 331.04,-435.48"/>
</g>
<!-- h3 -->
<g id="node4" class="node">
<title>h3</title>
<ellipse fill="none" stroke="black" stroke-width="0" cx="414.82" cy="-268" rx="45.95" ry="18"/>
<text text-anchor="middle" x="414.82" y="-263.32" font-family="Courier,monospace" font-size="14.00">"Jeff"</text>
</g>
<!-- stvars&#45;&gt;h3 -->
<g id="edge5" class="edge">
<title>stvars:f6-&gt;h3</title>
<path fill="none" stroke="black" d="M222.5,-282C268.83,-282 321.3,-277.87 359.56,-274.09"/>
<polygon fill="black" stroke="black" points="359.85,-277.58 369.45,-273.09 359.15,-270.62 359.85,-277.58"/>
</g>
<!-- h4 -->
<g id="node5" class="node">
<title>h4</title>
<ellipse fill="none" stroke="black" stroke-width="0" cx="414.82" cy="-182" rx="103.82" ry="18"/>
<text text-anchor="middle" x="414.82" y="-177.32" font-family="Courier,monospace" font-size="14.00">Date[2023-07-22]</text>
</g>
<!-- stvars&#45;&gt;h4 -->
<g id="edge6" class="edge">
<title>stvars:f7-&gt;h4</title>
<path fill="none" stroke="black" d="M222.5,-256C265.09,-256 263.52,-219.99 303,-204 309.96,-201.18 317.32,-198.71 324.8,-196.55"/>
<polygon fill="black" stroke="black" points="325.6,-199.96 334.36,-194 323.79,-193.2 325.6,-199.96"/>
</g>
<!-- h5 -->
<g id="node6" class="node">
<title>h5</title>
<polygon fill="none" stroke="black" points="509.44,-379.25 320.19,-379.25 320.19,-336.75 509.44,-336.75 509.44,-379.25"/>
<text text-anchor="middle" x="414.82" y="-361.95" font-family="Courier,monospace" font-size="14.00">Special Pre-Allocated</text>
<text text-anchor="middle" x="414.82" y="-344.7" font-family="Courier,monospace" font-size="14.00">(Singleton) &lt;True&gt;</text>
</g>
<!-- stvars&#45;&gt;h5 -->
<g id="edge3" class="edge">
<title>stvars:f2-&gt;h5</title>
<path fill="none" stroke="black" d="M222.5,-358C250.38,-358 280.54,-358 308.5,-358"/>
<polygon fill="black" stroke="black" points="308.4,-361.5 318.4,-358 308.4,-354.5 308.4,-361.5"/>
</g>
<!-- h7 -->
<g id="node8" class="node">
<title>h7</title>
<polygon fill="none" stroke="black" points="509.44,-66.25 320.19,-66.25 320.19,-23.75 509.44,-23.75 509.44,-66.25"/>
<text text-anchor="middle" x="414.82" y="-48.95" font-family="Courier,monospace" font-size="14.00">Special Pre-Allocated</text>
<text text-anchor="middle" x="414.82" y="-31.7" font-family="Courier,monospace" font-size="14.00">(Singleton) &lt;None&gt;</text>
</g>
<!-- stvars&#45;&gt;h7 -->
<g id="edge9" class="edge">
<title>stvars:f9-&gt;h7</title>
<path fill="none" stroke="black" d="M222.5,-206C292.74,-206 246.21,-111.33 303,-70 305.19,-68.41 307.46,-66.92 309.8,-65.52"/>
<polygon fill="black" stroke="black" points="311.2,-68.73 318.42,-60.97 307.94,-62.54 311.2,-68.73"/>
</g>
<!-- h8 -->
<g id="node9" class="node">
<title>h8</title>
<polygon fill="none" stroke="black" points="509.44,-160.25 320.19,-160.25 320.19,-117.75 509.44,-117.75 509.44,-160.25"/>
<text text-anchor="middle" x="414.82" y="-142.95" font-family="Courier,monospace" font-size="14.00">Special Pre-Allocated</text>
<text text-anchor="middle" x="414.82" y="-125.7" font-family="Courier,monospace" font-size="14.00">(Singleton) &lt;0&gt;</text>
</g>
<!-- stvars&#45;&gt;h8 -->
<g id="edge8" class="edge">
<title>stvars:f8-&gt;h8</title>
<path fill="none" stroke="black" d="M222.5,-231C269.05,-231 261.25,-184.58 303,-164 305.11,-162.96 307.26,-161.96 309.45,-161.01"/>
<polygon fill="black" stroke="black" points="310.51,-164.35 318.5,-157.39 307.91,-157.85 310.51,-164.35"/>
</g>
<!-- h10 -->
<g id="node11" class="node">
<title>h10</title>
<polygon fill="none" stroke="black" points="509.44,-332.25 320.19,-332.25 320.19,-289.75 509.44,-289.75 509.44,-332.25"/>
<text text-anchor="middle" x="414.82" y="-314.95" font-family="Courier,monospace" font-size="14.00">Special Pre-Allocated</text>
<text text-anchor="middle" x="414.82" y="-297.7" font-family="Courier,monospace" font-size="14.00">(Singleton) &lt;2&gt;</text>
</g>
<!-- stvars&#45;&gt;h10 -->
<g id="edge7" class="edge">
<title>stvars:f5-&gt;h10</title>
<path fill="none" stroke="black" d="M222.5,-307C250.39,-307 280.55,-307.43 308.51,-308.01"/>
<polygon fill="black" stroke="black" points="308.34,-311.51 318.41,-308.22 308.49,-304.51 308.34,-311.51"/>
</g>
<!-- h6 -->
<g id="node7" class="node">
<title>h6</title>
<polygon fill="none" stroke="black" points="509.44,-246.25 320.19,-246.25 320.19,-203.75 509.44,-203.75 509.44,-246.25"/>
<text text-anchor="middle" x="414.82" y="-228.95" font-family="Courier,monospace" font-size="14.00">Special Pre-Allocated</text>
<text text-anchor="middle" x="414.82" y="-211.7" font-family="Courier,monospace" font-size="14.00">(Singleton) &lt;False&gt;</text>
</g>
<!-- h9 -->
<g id="node10" class="node">
<title>h9</title>
<polygon fill="none" stroke="black" points="509.44,-113.25 320.19,-113.25 320.19,-70.75 509.44,-70.75 509.44,-113.25"/>
<text text-anchor="middle" x="414.82" y="-95.95" font-family="Courier,monospace" font-size="14.00">Special Pre-Allocated</text>
<text text-anchor="middle" x="414.82" y="-78.7" font-family="Courier,monospace" font-size="14.00">(Singleton) &lt;1&gt;</text>
</g>
</g>
</svg>