<?xml version="1.0" encoding="UTF-8" standalone="no"?>
<!DOCTYPE svg PUBLIC "-//W3C//DTD SVG 1.1//EN" "http://www.w3.org/Graphics/SVG/1.1/DTD/svg11.dtd">
<!-- Generated by graphviz version 9.0.0 (20230911.1827)
 -->
<!-- Title: g Pages: 1 -->
<svg width="497pt" height="385pt" viewBox="0.00 0.00 496.64 385.00" xmlns="http://www.w3.org/2000/svg" xmlns:xlink="http://www.w3.org/1999/xlink">
<g id="graph0" class="graph" transform="scale(1 1) rotate(0) translate(4 381)">
<title>g</title>
<polygon fill="white" stroke="none" points="-4,4 -4,-381 492.64,-381 492.64,4 -4,4"/>
<g id="clust1" class="cluster">
<title>clusterG0</title>
<polygon fill="none" stroke="black" points="8,-8 8,-369 480.64,-369 480.64,-8 8,-8"/>
<text text-anchor="middle" x="244.32" y="-351.7" font-family="Times,serif" font-size="14.00">Memory (After Code Execution)</text>
</g>
<g id="clust2" class="cluster">
<title>clusterG1</title>
<polygon fill="none" stroke="black" points="16,-16 16,-336 229,-336 229,-16 16,-16"/>
<text text-anchor="middle" x="122.5" y="-318.7" font-family="Times,serif" font-size="14.00">Stack</text>
</g>
<g id="clust3" class="cluster">
<title>clusterG2</title>
<polygon fill="none" stroke="black" points="249,-21 249,-336 472.64,-336 472.64,-21 249,-21"/>
<text text-anchor="middle" x="360.82" y="-318.7" font-family="Times,serif" font-size="14.00">Heap</text>
</g>
<g id="clust4" class="cluster">
<title>clusterG20</title>
<polygon fill="none" stroke="black" points="280.69,-129 280.69,-303 440.94,-303 440.94,-129 280.69,-129"/>
</g>
<!-- stvars -->
<g id="node1" class="node">
<title>stvars</title>
<polygon fill="none" stroke="black" points="24,-24.12 24,-301.88 221,-301.88 221,-24.12 24,-24.12"/>
<text text-anchor="middle" x="73.25" y="-284.57" font-family="Courier,monospace" font-size="14.00">country_df</text>
<polyline fill="none" stroke="black" points="24,-276.62 122.5,-276.62"/>
<text text-anchor="middle" x="73.25" y="-259.32" font-family="Courier,monospace" font-size="14.00">pop_col</text>
<polyline fill="none" stroke="black" points="24,-251.38 122.5,-251.38"/>
<text text-anchor="middle" x="73.25" y="-234.07" font-family="Courier,monospace" font-size="14.00">num_rows</text>
<polyline fill="none" stroke="black" points="24,-226.12 122.5,-226.12"/>
<text text-anchor="middle" x="73.25" y="-208.82" font-family="Courier,monospace" font-size="14.00">filled</text>
<polyline fill="none" stroke="black" points="24,-200.88 122.5,-200.88"/>
<text text-anchor="middle" x="73.25" y="-183.57" font-family="Courier,monospace" font-size="14.00">alg_row</text>
<polyline fill="none" stroke="black" points="24,-175.62 122.5,-175.62"/>
<text text-anchor="middle" x="73.25" y="-158.32" font-family="Courier,monospace" font-size="14.00">num_cols</text>
<polyline fill="none" stroke="black" points="24,-150.38 122.5,-150.38"/>
<text text-anchor="middle" x="73.25" y="-133.07" font-family="Courier,monospace" font-size="14.00">username</text>
<polyline fill="none" stroke="black" points="24,-125.12 122.5,-125.12"/>
<text text-anchor="middle" x="73.25" y="-107.83" font-family="Courier,monospace" font-size="14.00">cur_date</text>
<polyline fill="none" stroke="black" points="24,-99.88 122.5,-99.88"/>
<text text-anchor="middle" x="73.25" y="-82.58" font-family="Courier,monospace" font-size="14.00">i</text>
<polyline fill="none" stroke="black" points="24,-74.62 122.5,-74.62"/>
<text text-anchor="middle" x="73.25" y="-57.33" font-family="Courier,monospace" font-size="14.00">j</text>
<polyline fill="none" stroke="black" points="24,-49.38 122.5,-49.38"/>
<text text-anchor="middle" x="73.25" y="-32.08" font-family="Courier,monospace" font-size="14.00">z</text>
<polyline fill="none" stroke="black" points="122.5,-24.12 122.5,-301.88"/>
<text text-anchor="middle" x="171.75" y="-284.57" font-family="Courier,monospace" font-size="14.00">0x03a80afc</text>
<polyline fill="none" stroke="black" points="122.5,-276.62 221,-276.62"/>
<text text-anchor="middle" x="171.75" y="-259.32" font-family="Courier,monospace" font-size="14.00">0x10ba8</text>
<polyline fill="none" stroke="black" points="122.5,-251.38 221,-251.38"/>
<text text-anchor="middle" x="171.75" y="-234.07" font-family="Courier,monospace" font-size="14.00">13</text>
<polyline fill="none" stroke="black" points="122.5,-226.12 221,-226.12"/>
<text text-anchor="middle" x="171.75" y="-208.82" font-family="Courier,monospace" font-size="14.00">True</text>
<polyline fill="none" stroke="black" points="122.5,-200.88 221,-200.88"/>
<text text-anchor="middle" x="171.75" y="-183.57" font-family="Courier,monospace" font-size="14.00">0xf7fc4380</text>
<polyline fill="none" stroke="black" points="122.5,-175.62 221,-175.62"/>
<text text-anchor="middle" x="171.75" y="-158.32" font-family="Courier,monospace" font-size="14.00">2</text>
<polyline fill="none" stroke="black" points="122.5,-150.38 221,-150.38"/>
<text text-anchor="middle" x="171.75" y="-133.07" font-family="Courier,monospace" font-size="14.00">0xf7fc43e0</text>
<polyline fill="none" stroke="black" points="122.5,-125.12 221,-125.12"/>
<text text-anchor="middle" x="171.75" y="-107.83" font-family="Courier,monospace" font-size="14.00">8ec3d9889</text>
<polyline fill="none" stroke="black" points="122.5,-99.88 221,-99.88"/>
<text text-anchor="middle" x="171.75" y="-82.58" font-family="Courier,monospace" font-size="14.00">0</text>
<polyline fill="none" stroke="black" points="122.5,-74.62 221,-74.62"/>
<text text-anchor="middle" x="171.75" y="-57.33" font-family="Courier,monospace" font-size="14.00">None</text>
<polyline fill="none" stroke="black" points="122.5,-49.38 221,-49.38"/>
<text text-anchor="middle" x="171.75" y="-32.08" font-family="Courier,monospace" font-size="14.00">314</text>
</g>
<!-- h0 -->
<g id="node2" class="node">
<title>h0</title>
<polygon fill="none" stroke="black" stroke-width="0" points="288.69,-258 288.69,-294 432.94,-294 432.94,-258 288.69,-258"/>
<text text-anchor="middle" x="360.82" y="-271.7" font-family="Times,serif" font-size="14.00">DataFrame object</text>
</g>
<!-- stvars&#45;&gt;h0 -->
<g id="edge1" class="edge">
<title>stvars:addr0-&gt;h0:d0</title>
<path fill="none" stroke="black" d="M222.5,-289C240.29,-289 259.32,-287.92 277.38,-286.38"/>
<polygon fill="black" stroke="black" points="277.64,-289.87 287.28,-285.48 277.01,-282.9 277.64,-289.87"/>
</g>
<!-- h1 -->
<g id="node3" class="node">
<title>h1</title>
<polygon fill="none" stroke="black" points="289.94,-137.5 289.94,-238.5 431.69,-238.5 431.69,-137.5 289.94,-137.5"/>
<text text-anchor="middle" x="302.44" y="-221.2" font-family="Times,serif" font-size="14.00"> </text>
<polyline fill="none" stroke="black" points="289.94,-213.25 314.94,-213.25"/>
<text text-anchor="middle" x="302.44" y="-195.95" font-family="Times,serif" font-size="14.00">0</text>
<polyline fill="none" stroke="black" points="289.94,-188 314.94,-188"/>
<text text-anchor="middle" x="302.44" y="-170.7" font-family="Times,serif" font-size="14.00">1</text>
<polyline fill="none" stroke="black" points="289.94,-162.75 314.94,-162.75"/>
<text text-anchor="middle" x="302.44" y="-145.45" font-family="Times,serif" font-size="14.00">2</text>
<polyline fill="none" stroke="black" points="314.94,-137.5 314.94,-238.5"/>
<text text-anchor="middle" x="349.57" y="-221.2" font-family="Times,serif" font-size="14.00">name</text>
<polyline fill="none" stroke="black" points="314.94,-213.25 384.19,-213.25"/>
<text text-anchor="middle" x="349.57" y="-195.95" font-family="Times,serif" font-size="14.00">Albania</text>
<polyline fill="none" stroke="black" points="314.94,-188 384.19,-188"/>
<text text-anchor="middle" x="349.57" y="-170.7" font-family="Times,serif" font-size="14.00">Algeria</text>
<polyline fill="none" stroke="black" points="314.94,-162.75 384.19,-162.75"/>
<text text-anchor="middle" x="349.57" y="-145.45" font-family="Times,serif" font-size="14.00">Angola</text>
<polyline fill="none" stroke="black" points="384.19,-137.5 384.19,-238.5"/>
<text text-anchor="middle" x="407.94" y="-221.2" font-family="Times,serif" font-size="14.00">pop</text>
<polyline fill="none" stroke="black" points="384.19,-213.25 431.69,-213.25"/>
<text text-anchor="middle" x="407.94" y="-195.95" font-family="Times,serif" font-size="14.00">2.8</text>
<polyline fill="none" stroke="black" points="384.19,-188 431.69,-188"/>
<text text-anchor="middle" x="407.94" y="-170.7" font-family="Times,serif" font-size="14.00">44.2</text>
<polyline fill="none" stroke="black" points="384.19,-162.75 431.69,-162.75"/>
<text text-anchor="middle" x="407.94" y="-145.45" font-family="Times,serif" font-size="14.00">34.5</text>
</g>
<!-- stvars&#45;&gt;h1 -->
<g id="edge2" class="edge">
<title>stvars:addr1-&gt;h1:g5</title>
<path fill="none" stroke="black" stroke-dasharray="5,2" d="M222.5,-264C236.03,-264 236.02,-252.82 249,-249 256.09,-246.92 362.31,-248.2 396.97,-243.52"/>
<polygon fill="black" stroke="black" points="397.95,-246.88 406.38,-240.47 395.79,-240.22 397.95,-246.88"/>
</g>
<!-- stvars&#45;&gt;h1 -->
<g id="edge3" class="edge">
<title>stvars:f4-&gt;h1:g2</title>
<path fill="none" stroke="black" stroke-dasharray="5,2" d="M222.5,-188C248.31,-188 256.56,-178.4 277.43,-175.7"/>
<polygon fill="black" stroke="black" points="277.54,-179.2 287.31,-175.09 277.11,-172.21 277.54,-179.2"/>
</g>
<!-- h3 -->
<g id="node4" class="node">
<title>h3</title>
<ellipse fill="none" stroke="black" stroke-width="0" cx="360.82" cy="-101" rx="45.95" ry="18"/>
<text text-anchor="middle" x="360.82" y="-96.33" font-family="Courier,monospace" font-size="14.00">"Jeff"</text>
</g>
<!-- stvars&#45;&gt;h3 -->
<g id="edge4" class="edge">
<title>stvars:f6-&gt;h3</title>
<path fill="none" stroke="black" d="M222.5,-138C235.62,-138 236.61,-129.31 249,-125 267.48,-118.57 288.31,-113.52 306.88,-109.74"/>
<polygon fill="black" stroke="black" points="307.48,-113.19 316.63,-107.84 306.14,-106.32 307.48,-113.19"/>
</g>
<!-- h4 -->
<g id="node5" class="node">
<title>h4</title>
<ellipse fill="none" stroke="black" stroke-width="0" cx="360.82" cy="-47" rx="103.82" ry="18"/>
<text text-anchor="middle" x="360.82" y="-42.33" font-family="Courier,monospace" font-size="14.00">Date[2023-07-22]</text>
</g>
<!-- stvars&#45;&gt;h4 -->
<g id="edge5" class="edge">
<title>stvars:f7-&gt;h4</title>
<path fill="none" stroke="black" d="M222.5,-112C243.09,-112 232.01,-85.63 249,-74 255.68,-69.42 263.06,-65.62 270.74,-62.46"/>
<polygon fill="black" stroke="black" points="271.77,-65.81 279.94,-59.06 269.35,-59.24 271.77,-65.81"/>
</g>
</g>
<script xmlns=""/></svg>